<svg id="do_che_bien_san_2" xmlns="http://www.w3.org/2000/svg" width="37.629" height="40.552" viewBox="0 0 37.629 40.552">
  <path id="Path_22107" data-name="Path 22107" d="M253.065,30.451a1.8,1.8,0,0,1-2.1.866,1.8,1.8,0,0,0-.218-3.359,1.8,1.8,0,0,1,2.322,2.493Zm0,0" transform="translate(-230.922 -25.596)" fill="#fdd79b"/>
  <path id="Path_22127" data-name="Path 22127" d="M71.006,189.461a3.048,3.048,0,1,0,1.472,1.809,3.051,3.051,0,0,0-1.472-1.809Zm.188,3.565a1.859,1.859,0,1,1,.146-1.416A1.847,1.847,0,0,1,71.194,193.027Zm0,0" transform="translate(-61.282 -174.119)"/>
  <path id="Path_22128" data-name="Path 22128" d="M102.871,402.635a6.622,6.622,0,0,0-2.377-2.1c-2.248-1.23-4.587-1.135-5.326.215a1.811,1.811,0,0,0-.211.7l-.3,2.978a.55.55,0,0,0,0,.071c-.024,1.264,1.062,2.495,2.987,3.381a7.121,7.121,0,0,0,2.9.684l.115,0a2.513,2.513,0,0,0,2.293-1.1,2.549,2.549,0,0,0,.207-.663c0-.016.005-.032.007-.049l.226-2.251a2.8,2.8,0,0,0-.52-1.864Zm-5.448-1.782h.015a6,6,0,0,1,4.436,2.427,1.747,1.747,0,0,1,.343,1.021.681.681,0,0,1-.075.265,1.333,1.333,0,0,1-1.213.467h-.015a5.5,5.5,0,0,1-2.486-.723c-1.466-.8-2.316-1.966-2.3-2.685a.686.686,0,0,1,.076-.3A1.332,1.332,0,0,1,97.422,400.854Zm4.487,6.038c-.34.622-2.025.717-3.769-.087-1.414-.651-2.314-1.547-2.3-2.285l.07-.7a7.033,7.033,0,0,0,1.944,1.535,6.531,6.531,0,0,0,3.055.864,3.512,3.512,0,0,0,1.13-.173l-.056.562A1.97,1.97,0,0,1,101.909,406.892Zm0,0" transform="translate(-87.198 -368.016)"/>
  <path id="Path_22129" data-name="Path 22129" d="M38.021,20.477a1.663,1.663,0,0,0-.873-.937.5.5,0,0,1-.249-.668,1.673,1.673,0,0,0-3.045-1.388l-.279.612a4.8,4.8,0,0,0-4.856-.9l-2.488.93a.594.594,0,0,0,.416,1.113l2.488-.93a3.6,3.6,0,0,1,2.524,6.753L27.265,26.7a7.545,7.545,0,0,0-1.556-.069c-2.131.121-3.828,1.055-4.286,2.252l-2.868,1.072a7.7,7.7,0,0,0,.639-2.836,7.333,7.333,0,0,0-.628-3.457,3.694,3.694,0,0,0-.8-1.111l6.33-2.366a.594.594,0,0,0-.416-1.113l-2.647.989a19.183,19.183,0,0,0,.835-8.368,9.428,9.428,0,0,0-1.742-4.4l.509-.943a2.411,2.411,0,0,0,2.525-1.218,2.392,2.392,0,0,0-2.792-3.428,2.392,2.392,0,1,0-4.031,2.325l-.432.8a8.937,8.937,0,0,0-4.686.743.594.594,0,1,0,.459,1.1,6.649,6.649,0,0,1,5.828-.088c1.7.916,2.8,2.744,3.187,5.287a18.01,18.01,0,0,1-.811,7.886A10.433,10.433,0,0,0,14.427,12.3a10.388,10.388,0,0,0-9.234-.469,19.993,19.993,0,0,1,4.1-3.84.594.594,0,1,0-.671-.98,23.836,23.836,0,0,0-7.176,8.293h0c-1.925,3.566-.857,8.136,2.6,11.114a.594.594,0,0,0,.776-.9C1.795,22.909.838,18.941,2.5,15.87h0v0c2-3.7,7.095-4.826,11.366-2.52a9.028,9.028,0,0,1,4.93,7.555l-.829.31a8.142,8.142,0,0,0-4.554-7.025c-3.881-2.1-8.46-1.17-10.206,2.065s-.009,7.571,3.873,9.666a9.158,9.158,0,0,0,4.33,1.131,7.824,7.824,0,0,0,1.794-.207c0,.007,0,.013,0,.02-.013.3-.01.592.006.878A9.4,9.4,0,0,1,7,26.949a.594.594,0,1,0-.521,1.068,10.906,10.906,0,0,0,4.778,1.129,9.931,9.931,0,0,0,2.107-.225c.382,1.795,1.374,3.052,2.618,3.106a1.977,1.977,0,0,0,.837-.152l4.6-1.719c.015.04.045.107.063.146l1.341,2.723a.617.617,0,0,0,.036.063,3.544,3.544,0,0,0,3.222,1.362,8.78,8.78,0,0,0,1.1-.073,7.044,7.044,0,0,0,2.92-1.015,2.515,2.515,0,0,0,1.362-2.15,2.545,2.545,0,0,0-.175-.673c-.006-.015-1.09-2.212-1.1-2.234a2.827,2.827,0,0,0-1.1-1.014l2.994-1.119a4.761,4.761,0,0,0,2.683-2.5,4.809,4.809,0,0,0,.393-1.362l.61.278a1.673,1.673,0,0,0,2.261-2.109ZM18.077,5.542a6.339,6.339,0,0,0-.969-.422l.509-.941a.594.594,0,0,0-.2-.779,1.211,1.211,0,0,1-.4-1.578,1.2,1.2,0,0,1,1.632-.488,1.209,1.209,0,0,1,.619,1.239.594.594,0,0,0,.984.531,1.2,1.2,0,0,1,1.958.553,1.2,1.2,0,0,1-.094.917,1.211,1.211,0,0,1-1.538.533.594.594,0,0,0-.759.263l-.546,1.012a6.365,6.365,0,0,0-1.2-.84ZM7.64,24.872c-3.3-1.785-4.827-5.4-3.392-8.056s5.292-3.368,8.6-1.584a7.867,7.867,0,0,1,3.094,2.942,5.736,5.736,0,0,1,.8,3.494L15.6,22.1a.617.617,0,0,0-.075.035,4.628,4.628,0,0,0-2.169,3.438,7.559,7.559,0,0,1-5.711-.7Zm10.367,2.2c-.083,1.925-.832,3.327-1.581,3.682a.965.965,0,0,1-.4.088c-.857-.037-1.743-1.659-1.644-3.927.1-2.242,1.1-3.771,1.947-3.771h.03c.408.018.822.4,1.135,1.041A6.138,6.138,0,0,1,18.007,27.069Zm5.276,1.449a5.507,5.507,0,0,1,2.492-.7c1.932-.11,3.423.63,3.464,1.364.019.341-.27.722-.8,1.045a5.5,5.5,0,0,1-2.492.7c-1.668.095-3.006-.444-3.367-1.065a.685.685,0,0,1-.1-.3c-.019-.341.271-.722.8-1.046Zm3.744,4.68c-1.545.2-2.782-.089-3.157-.725l-.312-.633a6.818,6.818,0,0,0,2.008.287q.224,0,.454-.013a5.514,5.514,0,0,0,3.917-1.626l.249.506a1.915,1.915,0,0,1,.087.284c.04.708-1.339,1.679-3.245,1.92ZM36.9,21.264a.486.486,0,0,1-.643.24L35.14,21A4.846,4.846,0,0,0,34.886,20a4.784,4.784,0,0,0-.459-.914l.507-1.112a.485.485,0,1,1,.883.4,1.694,1.694,0,0,0,.838,2.242.485.485,0,0,1,.24.643Zm0,0" transform="translate(-0.5 -0.001)"/>
  <path id="Path_22130" data-name="Path 22130" d="M130.12,110.579a.594.594,0,0,0,0-1.188h-.01a.591.591,0,0,0-.587.6.6.6,0,0,0,.6.591Zm0,0" transform="translate(-119.3 -100.727)"/>
  <path id="Path_22131" data-name="Path 22131" d="M155.352,109.985a.594.594,0,0,0-.594-.594h-.007a.591.591,0,0,0-.59.594.6.6,0,0,0,1.192,0Zm0,0" transform="translate(-141.99 -100.727)"/>
</svg>
