<svg xmlns="http://www.w3.org/2000/svg" width="38.852" height="41.872" viewBox="0 0 38.852 41.872">
  <g id="do_che_bien_san_1" transform="translate(-0.5 -0.001)">
    <path id="Path_22106" data-name="Path 22106" d="M188.79,9.624a1.857,1.857,0,1,0-2.857,1.275l-2.144,3.97,3.358,1.813,2.144-3.97a1.857,1.857,0,1,0-.5-3.088Zm0,0" transform="translate(-168.3 -6.877)" fill="#fde6bf"/>
    <path id="Path_22107" data-name="Path 22107" d="M253.141,30.537a1.856,1.856,0,0,1-2.173.894,1.858,1.858,0,0,0-.225-3.468,1.857,1.857,0,0,1,2.4,2.574Zm0,0" transform="translate(-229.777 -25.523)" fill="#fdd79b"/>
    <path id="Path_22108" data-name="Path 22108" d="M19.1,78.284c4.307-7.976,11.621-12.378,16.336-9.832s5.047,11.076.74,19.052Zm0,0" transform="translate(-17.076 -62.19)" fill="#ffaa5c"/>
    <path id="Path_22109" data-name="Path 22109" d="M199.426,88.635l-1.71-.924c4.138-7.865,3.782-16.2-.826-18.75a5.918,5.918,0,0,1,1.8.622c4.716,2.546,5.047,11.076.74,19.052Zm0,0" transform="translate(-180.329 -63.32)" fill="#ff9838"/>
    <path id="Path_22110" data-name="Path 22110" d="M21.5,147.2c-4.716-2.546-10.342-1.269-12.567,2.852s-.207,9.526,4.508,12.073,10.342,1.269,12.567-2.852S26.212,149.744,21.5,147.2Zm0,0" transform="translate(-6.909 -133.956)" fill="#fdd79b"/>
    <path id="Path_22111" data-name="Path 22111" d="M43.837,173.477c-3.716-2.007-8.062-1.163-9.707,1.883s.034,7.143,3.75,9.149,8.062,1.163,9.707-1.883S47.553,175.484,43.837,173.477Zm0,0" transform="translate(-30.299 -158.288)" fill="#ff646f"/>
    <path id="Path_22112" data-name="Path 22112" d="M83.435,182.621a5.851,5.851,0,0,1-4.556,2.913,5.432,5.432,0,0,0,2.561-2.354c1.645-3.046-.034-7.143-3.75-9.149A8.635,8.635,0,0,0,72.539,173a8.119,8.119,0,0,1,7.146.469c3.716,2.006,5.395,6.1,3.75,9.149Zm0,0" transform="translate(-66.147 -158.284)" fill="#ff4755"/>
    <path id="Path_22113" data-name="Path 22113" d="M79.072,199.123a2.534,2.534,0,1,1-2.534-2.534A2.534,2.534,0,0,1,79.072,199.123Zm0,0" transform="translate(-67.492 -180.511)" fill="#fde6bf"/>
    <path id="Path_22114" data-name="Path 22114" d="M109.571,428.039a2.315,2.315,0,0,0,.149-.5l.243-2.426-7.492-2.985-.314,3.14h0c-.036,1.055,1.008,2.155,2.727,2.946,1.923.885,4.1.9,4.687-.173Zm0,0" transform="translate(-93.342 -387.602)" fill="#ff4755"/>
    <path id="Path_22115" data-name="Path 22115" d="M162.38,452.108l-.243,2.426a2.332,2.332,0,0,1-.149.5c-.392.717-1.489.948-2.746.761a1.686,1.686,0,0,0,1.231-.761,2.3,2.3,0,0,0,.149-.5l.3-3.007Zm0,0" transform="translate(-145.759 -414.6)" fill="#fc2b3a"/>
    <path id="Path_22116" data-name="Path 22116" d="M108.471,411.827c1.989,1.088,4.079,1.1,4.667.021s-.546-2.831-2.535-3.919-4.079-1.1-4.667-.021S106.483,410.739,108.471,411.827Zm0,0" transform="translate(-96.671 -373.812)" fill="#fde6bf"/>
    <path id="Path_22117" data-name="Path 22117" d="M125.6,411.836c-.4.73-1.487.96-2.766.694a1.5,1.5,0,0,0,.953-.694c.589-1.076-.545-2.831-2.534-3.919a6.952,6.952,0,0,0-1.9-.716,5.3,5.3,0,0,1,3.714.716C125.054,409.005,126.189,410.76,125.6,411.836Zm0,0" transform="translate(-109.132 -373.801)" fill="#fdd79b"/>
    <path id="Path_22118" data-name="Path 22118" d="M417.717,220.422a1.114,1.114,0,0,0-.552-1.476,1.133,1.133,0,0,1-.562-1.5,1.114,1.114,0,1,0-2.028-.924l-1.188,2.605a.5.5,0,0,0,.247.661l2.605,1.188A1.115,1.115,0,0,0,417.717,220.422Zm0,0" transform="translate(-379.08 -198.212)" fill="#ff646f"/>
    <path id="Path_22119" data-name="Path 22119" d="M207.257,220.976l-13.55,5.065.706,8.993,15.88-5.936a4.335,4.335,0,0,0-3.036-8.122Zm0,0" transform="translate(-177.406 -202.65)" fill="#ff4755"/>
    <path id="Path_22120" data-name="Path 22120" d="M216.918,232.885l-15.88,5.936-.116-1.477,14.553-5.44a4.336,4.336,0,0,0,1.6-7.079,4.335,4.335,0,0,1-.153,8.061Zm0,0" transform="translate(-184.031 -206.437)" fill="#fc2b3a"/>
    <path id="Path_22121" data-name="Path 22121" d="M173.187,289.368c.11-2.533-.913-4.635-2.284-4.694s-2.571,1.947-2.681,4.48.913,4.635,2.284,4.694,2.571-1.946,2.681-4.479Zm0,0" transform="translate(-153.998 -261.39)" fill="#fde6bf"/>
    <path id="Path_22122" data-name="Path 22122" d="M191.053,289.356c-.11,2.533-1.309,4.538-2.681,4.479a1.454,1.454,0,0,1-.648-.189,5.728,5.728,0,0,0,1.584-4.073c.092-2.115-.607-3.93-1.637-4.5a1.621,1.621,0,0,1,1.1-.407C190.14,284.721,191.163,286.822,191.053,289.356Zm0,0" transform="translate(-171.864 -261.38)" fill="#fdd79b"/>
    <path id="Path_22123" data-name="Path 22123" d="M281.1,364.232a2.309,2.309,0,0,0-.139-.5l-1.077-2.188-7.937,1.429,1.394,2.831h0c.527.915,2,1.3,3.873,1.058C279.316,366.592,281.172,365.457,281.1,364.232Zm0,0" transform="translate(-249.249 -331.971)" fill="#ff4755"/>
    <path id="Path_22124" data-name="Path 22124" d="M349.048,366.5a1.881,1.881,0,0,0,.913-1.52,2.317,2.317,0,0,0-.139-.5l-1.278-2.643,1.673-.3,1.077,2.188a2.33,2.33,0,0,1,.139.506C351.485,365.147,350.453,366.015,349.048,366.5Zm0,0" transform="translate(-319.579 -331.967)" fill="#fc2b3a"/>
    <path id="Path_22125" data-name="Path 22125" d="M274.826,348.016c2.263-.128,4.042-1.225,3.972-2.45s-1.961-2.114-4.224-1.985-4.042,1.225-3.972,2.45,1.961,2.114,4.224,1.985Zm0,0" transform="translate(-248.011 -315.47)" fill="#fde6bf"/>
    <path id="Path_22126" data-name="Path 22126" d="M299.494,348.012l-.076,0c1.346-.437,2.245-1.249,2.2-2.126-.069-1.211-1.918-2.094-4.147-1.989a7.088,7.088,0,0,1,1.777-.324c2.263-.128,4.155.761,4.224,1.986s-1.709,2.322-3.973,2.45Zm0,0" transform="translate(-272.679 -315.466)" fill="#fdd79b"/>
    <path id="Path_22127" data-name="Path 22127" d="M71.152,189.473a3.147,3.147,0,1,0,1.52,1.868,3.151,3.151,0,0,0-1.52-1.868Zm.195,3.681a1.92,1.92,0,1,1,.15-1.462A1.907,1.907,0,0,1,71.347,193.154Zm0,0" transform="translate(-60.611 -173.63)"/>
    <path id="Path_22128" data-name="Path 22128" d="M103.138,402.732a6.836,6.836,0,0,0-2.454-2.169c-2.321-1.27-4.737-1.172-5.5.222a1.869,1.869,0,0,0-.218.727l-.308,3.074a.569.569,0,0,0,0,.073c-.025,1.305,1.1,2.576,3.084,3.491a7.353,7.353,0,0,0,2.995.706l.119,0a2.6,2.6,0,0,0,2.367-1.141,2.632,2.632,0,0,0,.214-.685c0-.017.005-.034.007-.05l.233-2.324a2.886,2.886,0,0,0-.537-1.924Zm-5.626-1.84h.016a6.2,6.2,0,0,1,4.58,2.506,1.8,1.8,0,0,1,.355,1.055.7.7,0,0,1-.077.273,1.376,1.376,0,0,1-1.252.482h-.015a5.683,5.683,0,0,1-2.567-.747c-1.513-.828-2.392-2.03-2.37-2.772a.709.709,0,0,1,.079-.315A1.376,1.376,0,0,1,97.512,400.892Zm4.633,6.234c-.351.642-2.091.74-3.892-.089-1.46-.672-2.389-1.6-2.371-2.359l.073-.726a7.263,7.263,0,0,0,2.007,1.585,6.744,6.744,0,0,0,3.154.892,3.626,3.626,0,0,0,1.167-.178l-.058.58a2.029,2.029,0,0,1-.079.3Zm0,0" transform="translate(-86.455 -366.985)"/>
    <path id="Path_22129" data-name="Path 22129" d="M39.242,21.143a1.718,1.718,0,0,0-.9-.967.52.52,0,0,1-.257-.689,1.728,1.728,0,0,0-3.144-1.433l-.288.632a4.952,4.952,0,0,0-5.014-.933l-2.569.96a.613.613,0,0,0,.429,1.149l2.569-.96a3.722,3.722,0,0,1,2.606,6.973l-4.537,1.7a7.791,7.791,0,0,0-1.607-.071c-2.2.125-3.953,1.09-4.426,2.326L19.142,30.93A7.949,7.949,0,0,0,19.8,28a7.572,7.572,0,0,0-.648-3.57,3.815,3.815,0,0,0-.821-1.147l6.536-2.443a.613.613,0,0,0-.429-1.149l-2.733,1.021a19.807,19.807,0,0,0,.862-8.64,9.735,9.735,0,0,0-1.8-4.539l.526-.974A2.489,2.489,0,0,0,23.9,5.306a2.469,2.469,0,0,0-2.882-3.54,2.47,2.47,0,1,0-4.162,2.4l-.446.827a9.228,9.228,0,0,0-4.838.767.613.613,0,1,0,.474,1.131,6.866,6.866,0,0,1,6.018-.09c1.752.946,2.889,2.833,3.29,5.459a18.6,18.6,0,0,1-.837,8.143,10.772,10.772,0,0,0-5.639-7.7,10.726,10.726,0,0,0-9.534-.485A20.643,20.643,0,0,1,9.584,8.253.613.613,0,1,0,8.891,7.24,24.612,24.612,0,0,0,1.481,15.8h0C-.507,19.486.6,24.2,4.163,27.279a.613.613,0,0,0,.8-.929c-3.127-2.7-4.115-6.792-2.4-9.964h0v0c2.062-3.816,7.325-4.983,11.735-2.6a9.322,9.322,0,0,1,5.091,7.8l-.856.32a8.407,8.407,0,0,0-4.7-7.254C9.822,12.485,5.094,13.441,3.291,16.78s-.009,7.817,4,9.981a9.456,9.456,0,0,0,4.47,1.167,8.079,8.079,0,0,0,1.853-.213c0,.007,0,.013,0,.02-.013.309-.01.612.007.906a9.7,9.7,0,0,1-6.41-.816.613.613,0,1,0-.538,1.1A11.261,11.261,0,0,0,11.6,30.094a10.254,10.254,0,0,0,2.175-.233c.395,1.853,1.419,3.152,2.7,3.207a2.042,2.042,0,0,0,.864-.157l4.747-1.775c.016.042.046.111.065.151L23.543,34.1a.637.637,0,0,0,.037.065c.547.915,1.73,1.406,3.327,1.406a9.066,9.066,0,0,0,1.137-.075,7.273,7.273,0,0,0,3.015-1.048,2.6,2.6,0,0,0,1.406-2.22,2.628,2.628,0,0,0-.18-.694c-.006-.016-1.125-2.284-1.141-2.307a2.919,2.919,0,0,0-1.134-1.047L33.1,27.023a4.962,4.962,0,0,0,3.176-3.989l.629.287a1.728,1.728,0,0,0,2.335-2.177ZM18.649,5.722a6.545,6.545,0,0,0-1-.436l.525-.972a.614.614,0,0,0-.2-.8,1.25,1.25,0,0,1-.41-1.629,1.244,1.244,0,0,1,1.685-.5,1.248,1.248,0,0,1,.639,1.28A.613.613,0,0,0,20.9,3.2a1.244,1.244,0,0,1,2.022.571,1.235,1.235,0,0,1-.1.947,1.25,1.25,0,0,1-1.588.55.614.614,0,0,0-.784.272L19.888,6.59a6.572,6.572,0,0,0-1.239-.867ZM7.872,25.681c-3.412-1.843-4.984-5.574-3.5-8.318s5.464-3.478,8.876-1.635a8.123,8.123,0,0,1,3.195,3.038,5.922,5.922,0,0,1,.831,3.608l-1.186.443a.637.637,0,0,0-.078.036,4.778,4.778,0,0,0-2.239,3.55,7.805,7.805,0,0,1-5.9-.721Zm10.7,2.268c-.086,1.988-.859,3.435-1.632,3.8a1,1,0,0,1-.409.091c-.885-.038-1.8-1.713-1.7-4.055.1-2.314,1.132-3.894,2.01-3.894h.031c.421.018.849.41,1.172,1.075a6.337,6.337,0,0,1,.526,2.98Zm5.448,1.5a5.686,5.686,0,0,1,2.574-.724c1.994-.113,3.534.65,3.577,1.408.02.352-.279.745-.821,1.079a5.679,5.679,0,0,1-2.574.724c-1.722.1-3.1-.458-3.477-1.1a.708.708,0,0,1-.1-.309c-.02-.352.28-.746.821-1.08Zm3.866,4.832c-1.6.2-2.873-.092-3.26-.748l-.322-.653a7.04,7.04,0,0,0,2.073.3q.231,0,.468-.013a5.693,5.693,0,0,0,4.044-1.679l.257.523a1.977,1.977,0,0,1,.089.293c.042.731-1.383,1.734-3.35,1.983ZM38.079,21.956a.5.5,0,0,1-.664.248l-1.148-.524A5,5,0,0,0,36,20.654a4.939,4.939,0,0,0-.474-.944l.524-1.148a.5.5,0,1,1,.912.416,1.749,1.749,0,0,0,.865,2.314.5.5,0,0,1,.248.664Zm0,0" transform="translate(0 0)"/>
    <path id="Path_22130" data-name="Path 22130" d="M130.139,110.618a.613.613,0,0,0,0-1.227h-.011a.61.61,0,0,0-.606.617.617.617,0,0,0,.617.61Zm0,0" transform="translate(-118.467 -100.444)"/>
    <path id="Path_22131" data-name="Path 22131" d="M155.391,110a.613.613,0,0,0-.613-.613h-.008a.61.61,0,0,0-.61.613.615.615,0,0,0,1.231,0Zm0,0" transform="translate(-141.093 -100.444)"/>
  </g>
</svg>
