<svg xmlns="http://www.w3.org/2000/svg" width="40.336" height="35.474" viewBox="0 0 40.336 35.474">
  <g id="gia_vi" transform="translate(0 -30.856)">
    <g id="Group_3303" data-name="Group 3303" transform="translate(16.597 35.482)">
      <path id="Path_22152" data-name="Path 22152" d="M210.677,89.574H218.8v5.691h-8.126Z" transform="translate(-210.677 -89.574)" fill="#ddeafb"/>
    </g>
    <g id="Group_3304" data-name="Group 3304" transform="translate(15.011 41.27)">
      <path id="Path_22153" data-name="Path 22153" d="M200.249,163.047h-8.126a2.772,2.772,0,0,1-.69,1.83l-.207.235a2.772,2.772,0,0,0-.69,1.83v13.874a1.168,1.168,0,0,0,1.168,1.168h8.963a1.168,1.168,0,0,0,1.168-1.168V166.942a2.772,2.772,0,0,0-.69-1.83l-.207-.235a2.772,2.772,0,0,1-.69-1.83Z" transform="translate(-190.537 -163.047)" fill="#ccf49f"/>
    </g>
    <g id="Group_3305" data-name="Group 3305" transform="translate(22.316 35.482)">
      <path id="Path_22154" data-name="Path 22154" d="M283.271,89.574h2.407v5.691h-2.407Z" transform="translate(-283.271 -89.574)" fill="#cbe2ff"/>
    </g>
    <g id="Group_3306" data-name="Group 3306" transform="translate(22.316 41.27)">
      <path id="Path_22155" data-name="Path 22155" d="M286.574,165.112l-.207-.235a2.772,2.772,0,0,1-.69-1.83h-2.407a2.772,2.772,0,0,0,.69,1.83l.207.235a2.772,2.772,0,0,1,.69,1.83v13.874a1.168,1.168,0,0,1-1.168,1.168H286.1a1.168,1.168,0,0,0,1.168-1.168V166.942A2.772,2.772,0,0,0,286.574,165.112Z" transform="translate(-283.271 -163.047)" fill="#b3e59f"/>
    </g>
    <g id="Group_3307" data-name="Group 3307" transform="translate(15.011 31.44)">
      <path id="Path_22156" data-name="Path 22156" d="M200.571,38.52l-.068-.053a.934.934,0,0,0-.575-.2h-7.482a.934.934,0,0,0-.575.2l-.068.053a3.293,3.293,0,0,0,0,5.189l.068.053a.934.934,0,0,0,.575.2h7.482a.934.934,0,0,0,.575-.2l.068-.053a3.293,3.293,0,0,0,0-5.189Z" transform="translate(-190.538 -38.269)" fill="#a298a5"/>
    </g>
    <g id="Group_3308" data-name="Group 3308" transform="translate(21.773 31.44)">
      <path id="Path_22157" data-name="Path 22157" d="M279.648,38.52l-.068-.053a.934.934,0,0,0-.575-.2h-2.628a.935.935,0,0,1,.575.2l.068.053a3.293,3.293,0,0,1,0,5.189l-.068.053a.935.935,0,0,1-.575.2h2.628a.934.934,0,0,0,.575-.2l.068-.053a3.293,3.293,0,0,0,0-5.189Z" transform="translate(-276.377 -38.269)" fill="#8b818e"/>
    </g>
    <g id="Group_3309" data-name="Group 3309" transform="translate(3.326 36.276)">
      <path id="Path_22158" data-name="Path 22158" d="M42.212,99.661h6.621v5.17H42.212Z" transform="translate(-42.212 -99.661)" fill="#ddeafb"/>
    </g>
    <g id="Group_3310" data-name="Group 3310" transform="translate(7.519 36.276)">
      <path id="Path_22159" data-name="Path 22159" d="M95.444,99.661h2.427v5.17H95.444Z" transform="translate(-95.444 -99.661)" fill="#cbe2ff"/>
    </g>
    <g id="Group_3311" data-name="Group 3311" transform="translate(2.102 34.568)">
      <path id="Path_22160" data-name="Path 22160" d="M34.965,81.388H27.474a.788.788,0,0,1-.788-.788V78.758a.788.788,0,0,1,.788-.788h7.491a.788.788,0,0,1,.788.788V80.6A.788.788,0,0,1,34.965,81.388Z" transform="translate(-26.686 -77.97)" fill="#a298a5"/>
    </g>
    <path id="Path_22161" data-name="Path 22161" d="M34.965,77.97h-.813V79a.788.788,0,0,1-.788.788H26.686V80.6a.788.788,0,0,0,.788.788h7.491a.788.788,0,0,0,.788-.788V78.758A.788.788,0,0,0,34.965,77.97Z" transform="translate(-24.584 -43.402)" fill="#8b818e"/>
    <g id="Group_3312" data-name="Group 3312" transform="translate(30.04 40.783)">
      <path id="Path_22162" data-name="Path 22162" d="M381.3,156.872h8.126v6.46H381.3Z" transform="translate(-381.304 -156.872)" fill="#ddeafb"/>
    </g>
    <g id="Group_3313" data-name="Group 3313" transform="translate(35.625 40.783)">
      <path id="Path_22163" data-name="Path 22163" d="M452.2,156.872h2.54v6.46H452.2Z" transform="translate(-452.202 -156.872)" fill="#cbe2ff"/>
    </g>
    <g id="Group_3314" data-name="Group 3314" transform="translate(28.453 37.303)">
      <path id="Path_22164" data-name="Path 22164" d="M372.069,117.122H361.558a.394.394,0,0,1-.394-.394v-2.063a1.97,1.97,0,0,1,1.97-1.97h7.36a1.97,1.97,0,0,1,1.969,1.97v2.063A.394.394,0,0,1,372.069,117.122Z" transform="translate(-361.164 -112.696)" fill="#aa8080"/>
    </g>
    <path id="Path_22165" data-name="Path 22165" d="M370.765,112.939a1.983,1.983,0,0,1,.019.272v2.063a.394.394,0,0,1-.394.394h-9.227v1.285a.394.394,0,0,0,.394.394h10.511a.394.394,0,0,0,.394-.394v-2.063A1.97,1.97,0,0,0,370.765,112.939Z" transform="translate(-332.711 -75.617)" fill="#9d6b6b"/>
    <g id="Group_3315" data-name="Group 3315" transform="translate(0.584 40.783)">
      <path id="Path_22166" data-name="Path 22166" d="M7.413,168.8v6.326A1.168,1.168,0,0,0,8.581,176.3h9.768a1.168,1.168,0,0,0,1.168-1.168V168.8a2.074,2.074,0,0,0-.561-1.418l-1.146-1.223a2.923,2.923,0,0,1,0-4l1.141-1.214a2.074,2.074,0,0,0,.563-1.421V158.04a1.168,1.168,0,0,0-1.168-1.168H8.581a1.168,1.168,0,0,0-1.168,1.168v1.484a2.074,2.074,0,0,0,.563,1.421l1.141,1.214a2.923,2.923,0,0,1,0,4l-1.146,1.223a2.074,2.074,0,0,0-.561,1.418Z" transform="translate(-7.413 -156.872)" fill="#cbe2ff"/>
    </g>
    <g id="Group_3316" data-name="Group 3316" transform="translate(6.939 40.783)">
      <path id="Path_22167" data-name="Path 22167" d="M93.269,160.945a2.074,2.074,0,0,0,.563-1.421V158.04a1.168,1.168,0,0,0-1.168-1.168H89.414a1.168,1.168,0,0,1,1.168,1.168v1.484a2.074,2.074,0,0,1-.563,1.421l-1.141,1.214a2.923,2.923,0,0,0,0,4l1.146,1.223a2.074,2.074,0,0,1,.561,1.418v6.326a1.168,1.168,0,0,1-1.168,1.168h3.251a1.168,1.168,0,0,0,1.168-1.168V168.8a2.074,2.074,0,0,0-.561-1.418l-1.146-1.223a2.923,2.923,0,0,1,0-4Z" transform="translate(-88.084 -156.872)" fill="#bed8fb"/>
    </g>
    <g id="Group_3317" data-name="Group 3317" transform="translate(15.011 44.777)">
      <path id="Path_22168" data-name="Path 22168" d="M201.837,209.733h-2.706a.388.388,0,0,1-.371-.273,2.694,2.694,0,0,0-5.146,0,.388.388,0,0,1-.371.273h-2.706v9.662h11.3Z" transform="translate(-190.538 -207.565)" fill="#a298a5"/>
    </g>
    <g id="Group_3318" data-name="Group 3318" transform="translate(28.453 45.712)">
      <path id="Path_22169" data-name="Path 22169" d="M371.681,226.936a10.494,10.494,0,0,1,.4-2.9,9.4,9.4,0,0,0,.385-2.614,1.984,1.984,0,0,0-1.984-1.984h-7.331a1.984,1.984,0,0,0-1.984,1.984,9.4,9.4,0,0,0,.385,2.614,10.833,10.833,0,0,1,0,5.807,9.4,9.4,0,0,0-.385,2.614v.006a1.394,1.394,0,0,0,1.394,1.394h8.51a1.394,1.394,0,0,0,1.394-1.394v-.006a9.4,9.4,0,0,0-.385-2.614A10.5,10.5,0,0,1,371.681,226.936Z" transform="translate(-361.164 -219.435)" fill="#ccf49f"/>
    </g>
    <g id="Group_3319" data-name="Group 3319" transform="translate(35.625 45.712)">
      <path id="Path_22170" data-name="Path 22170" d="M456.329,221.42a1.984,1.984,0,0,0-1.984-1.984H452.2a1.984,1.984,0,0,1,1.984,1.984,9.4,9.4,0,0,1-.385,2.614,10.833,10.833,0,0,0,0,5.807,9.4,9.4,0,0,1,.385,2.614v.006a1.394,1.394,0,0,1-1.394,1.394h2.143a1.394,1.394,0,0,0,1.394-1.394v-.006a9.4,9.4,0,0,0-.385-2.614,10.833,10.833,0,0,1,0-5.807A9.4,9.4,0,0,0,456.329,221.42Z" transform="translate(-452.202 -219.436)" fill="#b3e59f"/>
    </g>
    <g id="Group_3321" data-name="Group 3321" transform="translate(23.903 46.945)">
      <g id="Group_3320" data-name="Group 3320">
        <path id="Path_22171" data-name="Path 22171" d="M303.412,235.086h2.407v9.662h-2.407Z" transform="translate(-303.412 -235.086)" fill="#8b818e"/>
      </g>
    </g>
    <g id="Group_3322" data-name="Group 3322" transform="translate(0.584 44.014)">
      <path id="Path_22172" data-name="Path 22172" d="M18.955,198.717a2.074,2.074,0,0,0,.481-.843H7.5a2.074,2.074,0,0,0,.481.843l1.141,1.214a2.923,2.923,0,0,1,0,4l-1.146,1.223a2.074,2.074,0,0,0-.561,1.418V212.9a1.168,1.168,0,0,0,1.168,1.168H18.35a1.168,1.168,0,0,0,1.168-1.168v-6.326a2.074,2.074,0,0,0-.561-1.418l-1.146-1.223a2.923,2.923,0,0,1,0-4Z" transform="translate(-7.414 -197.874)" fill="#f4ddb1"/>
    </g>
    <g id="Group_3323" data-name="Group 3323" transform="translate(6.939 44.014)">
      <path id="Path_22173" data-name="Path 22173" d="M89.414,214.069h3.251a1.168,1.168,0,0,0,1.168-1.168v-6.326a2.074,2.074,0,0,0-.561-1.418l-1.146-1.223a2.923,2.923,0,0,1,0-4l1.141-1.214a2.074,2.074,0,0,0,.481-.843H90.5a2.074,2.074,0,0,1-.481.843l-1.141,1.214a2.923,2.923,0,0,0,0,4l1.146,1.223a2.074,2.074,0,0,1,.561,1.418V212.9A1.168,1.168,0,0,1,89.414,214.069Z" transform="translate(-88.084 -197.875)" fill="#efcb84"/>
    </g>
    <g id="Group_3324" data-name="Group 3324" transform="translate(4.214 50.992)">
      <ellipse id="Ellipse_40" data-name="Ellipse 40" cx="2.422" cy="1.954" rx="2.422" ry="1.954" fill="#aa8080"/>
    </g>
    <g id="Group_3325" data-name="Group 3325" transform="translate(31.189 50.692)">
      <path id="Path_22174" data-name="Path 22174" d="M396.28,282.646a.389.389,0,0,0-.389.389v5.136a.389.389,0,0,0,.389.389H404.2c-.039-.164-.081-.328-.128-.49a10.492,10.492,0,0,1-.4-2.9,10.663,10.663,0,0,1,.3-2.521Z" transform="translate(-395.891 -282.646)" fill="#f9efda"/>
    </g>
    <g id="Group_3326" data-name="Group 3326" transform="translate(36.827 50.692)">
      <path id="Path_22175" data-name="Path 22175" d="M470,288.071a10.492,10.492,0,0,1-.4-2.9,10.661,10.661,0,0,1,.3-2.521h-2.143a10.665,10.665,0,0,0-.3,2.521,10.493,10.493,0,0,0,.4,2.9c.047.162.089.326.128.49h2.143C470.09,288.4,470.048,288.233,470,288.071Z" transform="translate(-467.462 -282.646)" fill="#efcb84"/>
    </g>
    <g id="Group_3329" data-name="Group 3329" transform="translate(17.087 56.065)">
      <g id="Group_3327" data-name="Group 3327">
        <path id="Path_22176" data-name="Path 22176" d="M231.864,350.853h0a2.612,2.612,0,0,0-1.9.941,8.917,8.917,0,0,1-12.018,1.576.658.658,0,0,0-.992.782,10.153,10.153,0,0,0,18.292,1.167,2.59,2.59,0,0,0,.1-2.287A3.638,3.638,0,0,0,231.864,350.853Z" transform="translate(-216.898 -350.85)" fill="#dd636e"/>
      </g>
      <g id="Group_3328" data-name="Group 3328" transform="translate(1.032 0.262)">
        <path id="Path_22177" data-name="Path 22177" d="M247.4,356.1a3.637,3.637,0,0,0-1.978-1.92,2.579,2.579,0,0,1-.23,1.907,10.16,10.16,0,0,1-15.2,2.993,10.153,10.153,0,0,0,17.311-.694A2.59,2.59,0,0,0,247.4,356.1Z" transform="translate(-229.992 -354.182)" fill="#da4a54"/>
      </g>
    </g>
    <g id="Group_3330" data-name="Group 3330" transform="translate(0 30.856)">
      <path id="Path_22178" data-name="Path 22178" d="M208.055,42.313a.974.974,0,0,0,.973-.973V39.25a2.534,2.534,0,0,0-2.531-2.531h-7.406a2.534,2.534,0,0,0-2.531,2.531v2.09a.974.974,0,0,0,.973.973h.613v.834a.584.584,0,0,0,0,1.148v1.029a2.572,2.572,0,0,0-1.587,2.373,10,10,0,0,0,.408,2.776,10.258,10.258,0,0,1,0,5.482,10.18,10.18,0,0,0-.4,2.307,8.372,8.372,0,0,1-.988.56V45.165a3.478,3.478,0,0,0-1.042-2.451A2.187,2.187,0,0,1,194,41.27V37.414a3.877,3.877,0,0,0,.1-6.184,1.551,1.551,0,0,0-1-.375h-3.43a.584.584,0,1,0,0,1.168h3.43a.427.427,0,0,1,.283.127,2.692,2.692,0,0,1,1.041,2.135,2.45,2.45,0,0,1-1.324,2.262h-7.482a2.451,2.451,0,0,1-1.324-2.262,2.692,2.692,0,0,1,1.041-2.135.427.427,0,0,1,.283-.127h1.122a.584.584,0,0,0,0-1.168h-1.122a1.55,1.55,0,0,0-1,.375,3.877,3.877,0,0,0,.1,6.184V41.27a2.187,2.187,0,0,1-.545,1.445,3.478,3.478,0,0,0-1.042,2.451V59.04a1.754,1.754,0,0,0,1.752,1.752h.992a10.7,10.7,0,0,0,6.061,5,10.834,10.834,0,0,0,3.358.533,10.692,10.692,0,0,0,3.877-.724.584.584,0,1,0-.424-1.089,9.6,9.6,0,0,1-12.363-5.368c-.045-.051.073-.143.112-.088a9.5,9.5,0,0,0,12.8-1.678,2.033,2.033,0,0,1,1.48-.732,3.049,3.049,0,0,1,1.661.412c-.067.04-.135.079-.2.114a.584.584,0,0,0,.53,1.041,4.62,4.62,0,0,0,.576-.348,3.09,3.09,0,0,1,.354.611,2.015,2.015,0,0,1-.075,1.771,9.448,9.448,0,0,1-2.608,3,.584.584,0,0,0,.7.934,10.534,10.534,0,0,0,2.981-3.474h2.364a1.982,1.982,0,0,0,1.978-1.985,9.79,9.79,0,0,0-.269-2.24,10.631,10.631,0,0,1-.139-6.018,9.992,9.992,0,0,0,.408-2.776,2.572,2.572,0,0,0-1.587-2.373V44.295a.584.584,0,0,0,0-1.148v-.834Zm-22.181-4.6h6.958v2.874h-6.958Zm8.544,21.325a.576.576,0,0,1-.059.255,8.32,8.32,0,0,1-7.2-1.186,1.242,1.242,0,0,0-1.856,1.515h-.433a.585.585,0,0,1-.584-.584V57.191h10.131V59.04Zm0-3.017H184.287V47.529h2.122a.967.967,0,0,0,.929-.684,2.11,2.11,0,0,1,4.03,0,.967.967,0,0,0,.929.684h2.122v8.494Zm0-9.662h-1.981a3.278,3.278,0,0,0-6.169,0h-1.981v-1.2a2.356,2.356,0,0,1,.751-1.68,3.353,3.353,0,0,0,.8-1.729h7.03a3.354,3.354,0,0,0,.8,1.729,2.355,2.355,0,0,1,.751,1.68v1.2Zm3.311-5.216v-1.9a1.364,1.364,0,0,1,1.363-1.363H206.5a1.364,1.364,0,0,1,1.363,1.363v1.9Zm8.544,1.992h-6.958v-.823h6.958ZM199.316,44.3h6.958v.823h-6.958Zm4.393,8.306a3.374,3.374,0,0,1,.2,2.591,3.413,3.413,0,0,1-.395.821h-.554a4.225,4.225,0,0,0-2.243-.538c-.086,0-.171.011-.256.021v-4.23h6.775a11.476,11.476,0,0,0-.161,1.937,11.124,11.124,0,0,0,.35,2.81h-2.583a4.636,4.636,0,0,0,.178-.46,4.534,4.534,0,0,0-.274-3.482.584.584,0,1,0-1.041.53Zm3.341,6.936h-2.039a3.2,3.2,0,0,0-.255-1.533,4.276,4.276,0,0,0-.474-.823h3.432a8.471,8.471,0,0,1,.146,1.545.811.811,0,0,1-.81.81Zm.81-11.851a8.811,8.811,0,0,1-.352,2.412h-7.238a.974.974,0,0,0-.973.973v4.8a3.216,3.216,0,0,0-.906.75c-.165.2-.338.385-.518.564q.085-.458.218-.92a11.416,11.416,0,0,0,0-6.132,8.829,8.829,0,0,1-.362-2.451,1.4,1.4,0,0,1,1.4-1.4h7.331A1.4,1.4,0,0,1,207.861,47.7Z" transform="translate(-168.693 -30.856)"/>
      <path id="Path_22179" data-name="Path 22179" d="M11.52,76.773H10.53V75.136a1.365,1.365,0,0,0,1.223-1.356V71.92a1.364,1.364,0,0,0-1.363-1.363H2.881A1.364,1.364,0,0,0,1.518,71.92v1.86a1.365,1.365,0,0,0,1.223,1.356v1.637H1.752A1.754,1.754,0,0,0,0,78.525v1.484A2.649,2.649,0,0,0,.721,81.83l1.141,1.214a2.344,2.344,0,0,1,0,3.2L.719,87.469A2.649,2.649,0,0,0,0,89.287V90.5a.584.584,0,1,0,1.168,0V89.287a1.485,1.485,0,0,1,.4-1.019l1.146-1.223a3.514,3.514,0,0,0,0-4.8L1.705,81.171h1.62a.584.584,0,1,0,0-1.168H1.168V78.525a.585.585,0,0,1,.584-.584H11.52a.585.585,0,0,1,.584.584V80H6.122a.584.584,0,1,0,0,1.168h5.444l-1.008,1.072a3.514,3.514,0,0,0,0,4.8L11.7,88.268a1.485,1.485,0,0,1,.4,1.019v6.326a.585.585,0,0,1-.584.584H1.752a.585.585,0,0,1-.584-.584V93.39A.584.584,0,1,0,0,93.39v2.223a1.754,1.754,0,0,0,1.752,1.752H11.52a1.754,1.754,0,0,0,1.752-1.752V89.287a2.648,2.648,0,0,0-.719-1.818l-1.146-1.223a2.344,2.344,0,0,1,0-3.2L12.55,81.83a2.649,2.649,0,0,0,.721-1.821V78.525a1.754,1.754,0,0,0-1.752-1.752Zm-2.157,0H3.91v-1.63H9.362Zm1.028-2.8H2.881a.2.2,0,0,1-.195-.195V71.92a.2.2,0,0,1,.195-.195h7.51a.2.2,0,0,1,.195.195v1.86a.2.2,0,0,1-.195.195Z" transform="translate(0 -67.429)"/>
      <path id="Path_22180" data-name="Path 22180" d="M52.09,281.578a3.049,3.049,0,1,0-3.006,2.538A2.8,2.8,0,0,0,52.09,281.578Zm-4.844,0c0-.755.824-1.37,1.838-1.37s1.838.614,1.838,1.37-.824,1.37-1.838,1.37S47.246,282.333,47.246,281.578Z" transform="translate(-42.448 -259.488)"/>
      <path id="Path_22181" data-name="Path 22181" d="M36.826,359.491a.584.584,0,0,0,.584.584h6.3a.584.584,0,1,0,0-1.168h-6.3A.584.584,0,0,0,36.826,359.491Z" transform="translate(-33.925 -333.063)"/>
      <path id="Path_22182" data-name="Path 22182" d="M222.067,272.814a.584.584,0,0,0,0,1.168h5.255a.584.584,0,1,0,0-1.168Z" transform="translate(-204.034 -253.752)"/>
      <path id="Path_22183" data-name="Path 22183" d="M227.321,303.533h-5.255a.584.584,0,0,0,0,1.168h5.255a.584.584,0,1,0,0-1.168Z" transform="translate(-204.033 -282.051)"/>
    </g>
  </g>
</svg>
