<svg xmlns="http://www.w3.org/2000/svg" width="109.865" height="89.122" viewBox="0 0 109.865 89.122">
  <g id="icon_tien_ich" transform="translate(18608.002 -6315.86)">
    <path id="Path_1019" data-name="Path 1019" d="M107.171,9.735C104.846,4.93,100.434.9,95.154.138,88.768-.784,82.7,3.057,77.8,7.273S68.219,16.323,62.03,18.2c-11.053,3.342-22.469-3.966-34.01-4.043A27.666,27.666,0,0,0,7.857,22.863c-19.11,20.543-.048,53.543,21.851,62.6,17.683,7.313,38.862,3.181,54.333-8.075C98.8,66.655,107.89,47.806,109.579,29.63c.131-1.427.22-2.854.262-4.269C109.989,20.027,109.49,14.539,107.171,9.735Z" transform="translate(-18498.137 6404.982) rotate(180)" fill="#e5b6ee"/>
    <g id="shopping-cart-hand-drawn-tool" transform="translate(-18590.699 6284.94)">
      <g id="Group_910" data-name="Group 910" transform="translate(0 43.291)">
        <path id="Path_1020" data-name="Path 1020" d="M65.093,80.706c-14.629,1.56-29.408,3.936-44.12,2.1a2.578,2.578,0,0,0-.268-.124,2.427,2.427,0,0,1-1.785-2.584c1.251-1.789,3.925-1.673,5.8-1.528,2.621.2,5.222.177,7.85.15A174.459,174.459,0,0,0,53.006,77.31c3.75-.484,7.484-1.023,11.2-1.7a1.686,1.686,0,0,0,1.448-2,2.229,2.229,0,0,0,.046-.367c.206-7.954.449-15.9,1.222-23.822a1.684,1.684,0,0,0-1.685-1.939,2.018,2.018,0,0,0-.758-.1c-17.171,1-34.369,1.218-51.564,1.42a2.347,2.347,0,0,0-.346-.329A30.088,30.088,0,0,0,2.517,43.382c-2.528-.734-3.6,3.2-1.084,3.926,9.459,2.747,13.708,10.923,15.519,20.049a70.351,70.351,0,0,1,1.029,8.3c.014.173-2.373,2.036-2.637,2.512a4.782,4.782,0,0,0-.406,3.444c.833,3.5,3.69,4.942,6.981,5.518A9.138,9.138,0,0,0,20.542,89.8a1.923,1.923,0,0,0-.069,1,6.843,6.843,0,0,0,1.916,5.05,8.19,8.19,0,0,0,5.41,1.954,2.107,2.107,0,0,0,.6-.059c.069-.005.136,0,.209-.012a7.466,7.466,0,0,0,6.466-6.8,5.52,5.52,0,0,0-.861-3.5c5.571-.091,11.048-.56,16.6-1.109A7.323,7.323,0,0,0,49.6,88.611c-1.4,4.547,3.017,7.749,7.244,7.976a2.11,2.11,0,0,0,.6-.059c.069-.005.136,0,.209-.012a7.466,7.466,0,0,0,6.466-6.8,5.741,5.741,0,0,0-1.773-4.633c.914-.1,1.827-.208,2.742-.305C67.676,84.5,67.7,80.427,65.093,80.706Zm-3.424-8.778q-4.907.85-9.839,1.436c-.017-1.53-.039-3.059-.084-4.587,3.339-.045,6.679-.057,10.018-.019C61.732,69.813,61.7,70.87,61.669,71.927Zm.236-7.242c-3.442-.04-6.881-.022-10.319.032-.055-1.208-.124-2.415-.2-3.621,3.555-.058,7.108-.1,10.664-.075C61.995,62.242,61.952,63.463,61.9,64.685Zm.758-13.135c-.154,1.8-.281,3.6-.392,5.4-3.715-.026-7.431.016-11.147.08q-.189-2.472-.43-4.94C54.684,51.94,58.674,51.769,62.662,51.55ZM47.764,73.8q-5.725.555-11.475.768-.354-2.582-.716-5.163c4.028-.279,8.065-.451,12.1-.555C47.725,70.5,47.748,72.148,47.764,73.8Zm-.247-9c-4.169.116-8.332.306-12.49.6q-.264-1.967-.509-3.939c4.267-.095,8.535-.208,12.8-.3C47.394,62.376,47.462,63.587,47.517,64.8Zm-.884-12.566q.234,2.433.424,4.869c-4.341.093-8.684.21-13.025.305-.178-1.609-.348-3.22-.487-4.835Q40.089,52.441,46.633,52.231ZM32.226,74.67q-5.128.072-10.265-.138-.162-1.864-.4-3.721,4.977-.674,9.973-1.1Q31.882,72.19,32.226,74.67Zm-1.238-8.954q-5.033.443-10.052,1.108a49.893,49.893,0,0,0-1.248-5.184c3.586.012,7.17-.028,10.755-.093Q30.7,63.633,30.988,65.716ZM15.712,52.842q6.883-.084,13.765-.2.212,2.426.486,4.842c-3.917.069-7.835.108-11.753.079A31.773,31.773,0,0,0,15.712,52.842Zm12.135,40.9c-.017,0-.032-.007-.048-.007-2.246-.12-3.271-.883-3.254-3.034a3.907,3.907,0,0,1,3.671-2.652c1.538.345,2.821,1.114,2.791,2.887C30.977,92.63,29.281,93.444,27.847,93.744ZM56.9,92.522c-.017,0-.032-.007-.048-.007-2.247-.12-3.272-.884-3.254-3.035a3.906,3.906,0,0,1,3.67-2.652c1.539.345,2.822,1.114,2.791,2.887C60.024,91.408,58.329,92.222,56.9,92.522Z" transform="translate(0 -43.291)" fill="#275471"/>
      </g>
    </g>
  </g>
</svg>
