<svg id="icon_cua_hang" xmlns="http://www.w3.org/2000/svg" width="50" height="48.784" viewBox="0 0 50 48.784">
  <path id="Path_1083" data-name="Path 1083" d="M48.608,50.493q-1.685,0-3.37.031c-.752-8.881-1.255-17.78-1.733-26.68a1.617,1.617,0,0,0,.091-.916,8.889,8.889,0,0,1-.117-1.467c.963.028,1.925.069,2.889.128a1.172,1.172,0,0,0,1.3-1.113,1.133,1.133,0,0,0-.335-1.382,54.9,54.9,0,0,0-5.02-3.849,1.061,1.061,0,0,0,.014-.142c-.01-2.712-.122-5.423-.131-8.136a1,1,0,0,0-1.074-1.013,1.22,1.22,0,0,0-.238-.036c-2.4-.123-4.81-.131-7.218-.131a.992.992,0,0,0-1.014,1.038,1.133,1.133,0,0,0-.035.274c0,.849-.01,1.7-.043,2.543C29.9,8.328,27.166,7.114,24.422,5.949a1.424,1.424,0,0,0-1.375.125,1.283,1.283,0,0,0-.68.215C14.812,11.154,7.8,16.768.584,22.115c-1.277.947-.244,3.005,1.024,2.537h0c.568-.036,1.136-.08,1.7-.121.6,9.04.115,18.11.778,27.144-.7-.008-1.4-.015-2.1-.031C.14,51.6.143,54.481,2,54.521c7.057.154,14.106-.063,21.154-.347q9.961-.206,19.913-.735,2.772-.058,5.545-.069A1.44,1.44,0,0,0,48.608,50.493ZM34.7,7.888c1.8,0,3.6.023,5.4.1.023,1.962.08,3.923.106,5.885q-2.728-1.712-5.594-3.195C34.678,9.747,34.7,8.819,34.7,7.888ZM23.74,51.273q-3.353.137-6.708.246c-.156-1.642-.237-3.284-.277-4.925a1.321,1.321,0,0,0,.683.18,1.362,1.362,0,0,0,0-2.723,1.319,1.319,0,0,0-.7.192c.011-1.6.056-3.192.157-4.791a6.584,6.584,0,0,1,6.405-.7A100.958,100.958,0,0,1,23.74,51.273Zm2.724-.113a101.114,101.114,0,0,0-.518-13.236,1.447,1.447,0,0,0-.182-.576,1.163,1.163,0,0,0-.662-.77,9.353,9.353,0,0,0-10.053.851,1.455,1.455,0,0,0-.332.354,1.34,1.34,0,0,0-.512.992,76.643,76.643,0,0,0,.108,12.786q-3.752.018-7.505-.014c-.649-9.009-.174-18.052-.772-27.066a1.436,1.436,0,0,0-.027-.165c11.589-1,23.124-2.913,34.757-2.9.012.43.032.86.075,1.288a1.341,1.341,0,0,0-.09.582q.1,1.773.195,3.546a5.634,5.634,0,0,0-1.72-2.488c-3.733-3.118-10.264-1.171-10.013,4.165a8.309,8.309,0,0,0,1.6,4.531c2.584,2.772,6.917,1.123,9.107-1.233A4.824,4.824,0,0,0,41.1,29.625c.392,6.989.829,13.975,1.421,20.95C37.165,50.695,31.816,50.934,26.464,51.16ZM38.288,29.416c-.029.064-.059.127-.094.191A4.294,4.294,0,0,1,36.288,31.3V29.457Q37.287,29.426,38.288,29.416Zm-2-2.058V25.8a4.189,4.189,0,0,1,.78.335,2.886,2.886,0,0,1,1.166,1.18Q37.259,27.328,36.288,27.357Zm-3.966.162c.027-.053.053-.107.081-.158a3.3,3.3,0,0,1,1.784-1.555v1.627Q33.255,27.475,32.322,27.519Zm1.865,2.014v2.175a2.78,2.78,0,0,1-1.239-.4,2.222,2.222,0,0,1-1.043-1.667Q33.047,29.583,34.188,29.533ZM5.762,21.615c5.9-4.454,11.758-8.969,17.979-12.976.014-.009.023-.02.036-.028,6.534,2.794,13.053,5.86,18.761,10.112C30.221,18.489,18.022,20.568,5.762,21.615Z" transform="translate(0 -5.788)" fill="#fff"/>
</svg>
