<svg xmlns="http://www.w3.org/2000/svg" width="36.969" height="51.376" viewBox="0 0 36.969 51.376">
  <g id="icon_flash" transform="matrix(0.985, 0.174, -0.174, 0.985, -3.668, -119.12)">
    <path id="Path_954" data-name="Path 954" d="M77.294,151.615c-.165.194-.336.382-.489.586-.065.087-.127.176-.187.266a.519.519,0,0,0-.14-.062l-.137-.018a.512.512,0,0,0-.26.07c-.039.019-.079.036-.118.056a.65.65,0,0,0-.17.145,1.444,1.444,0,0,0-.21.329c-.081.177-.143.362-.209.545-.033.06-.065.121-.093.184-.073.164-.136.332-.2.5-.036.1-.068.194-.1.291-.071.2-.139.41-.205.616l-.027.084,0,.013q-.426,1.171-.853,2.343-.173.475-.348.951l-.138.293-.33.7c-.167.353-.337.7-.484,1.066l.009-.021c-.045.109-.088.219-.13.33a.433.433,0,0,0,.533.532.446.446,0,0,0,.259-.2,4.839,4.839,0,0,0,.261-.41l.122-.238.027-.052h0l-.176.439a.245.245,0,0,0,.064.242.249.249,0,0,0,.3.039c.044-.03.086-.062.127-.1l.04-.052c.023-.031.045-.062.066-.094a2.435,2.435,0,0,0,.166-.3c.1-.212.184-.432.285-.645.072-.151.143-.3.214-.455l.349-.743c.046-.1.094-.195.137-.294l.573-1.318c.125-.286.241-.574.358-.864q.429-1.066.846-2.136.176-.454.349-.91c.053-.14.107-.279.159-.42.065-.175.127-.351.2-.525.028-.057.058-.113.085-.171a.711.711,0,0,0,.07-.235.345.345,0,0,0-.04-.227c-.021-.029-.043-.058-.065-.086a.936.936,0,0,0-.127-.092.26.26,0,0,0-.146-.041.282.282,0,0,0-.212.088Z" transform="translate(-33.328 -29.772)" fill="#ffe11a"/>
    <path id="Path_955" data-name="Path 955" d="M74.3,135.988a1.631,1.631,0,0,0-1.205-1.05,1.98,1.98,0,0,0-.968.008,2.788,2.788,0,0,0-.58.23,3.332,3.332,0,0,0-.358.233c-.053.031-.106.063-.156.1l-.721.482-.229.151c-.107.025-.213.053-.318.08l-.123.032a1.319,1.319,0,0,0-.246-.017,6.368,6.368,0,0,0-.683.088c-.074.014-.146.032-.219.048l-.053.012a3.074,3.074,0,0,0-.6-.228,3.491,3.491,0,0,0-.775-.106,4.317,4.317,0,0,0-.513.007c-.285.016-.568.058-.849.1-.159.022-.316.049-.473.079-.191-.1-.381-.205-.575-.3a9.019,9.019,0,0,0-1.069-.448,1.813,1.813,0,0,0-.839,0,1.69,1.69,0,0,0-.5.208l-.009,0,.444-.533c.105-.126.223-.25.318-.383l.369-.519.233-.328a1.711,1.711,0,0,0,.4-.172,2.6,2.6,0,0,0,.948-.823,1.978,1.978,0,0,0,.272-.583,2.5,2.5,0,0,0,.078-.854,10.846,10.846,0,0,1,.882-1.254,1.676,1.676,0,0,0,.884-.39,11.97,11.97,0,0,0,1.252-1.412l.2-.249c.42-.464.842-.926,1.278-1.378q1.026-1.063,2.068-2.112l.464-.466.148-.15c.068-.068.138-.135.2-.205a2.362,2.362,0,0,0,.391-.477,1.287,1.287,0,0,0,0-1.458,1.579,1.579,0,0,0-.6-.518,1.983,1.983,0,0,0-.864-.206,1.354,1.354,0,0,0-.414.06,4.123,4.123,0,0,0-.655.266c-.064.033-.127.069-.189.1s-.134.076-.2.112c-.143.035-.288.06-.435.085-.241.042-.48.089-.719.139-.44.092-.878.192-1.316.286a1.976,1.976,0,0,0-1.336-.126l-.071.012c-.378.032-.759.049-1.138.072q-.776.047-1.553.1c-.455.033-.909.084-1.362.128l-.325.033a1.522,1.522,0,0,0-.3-.156,4.382,4.382,0,0,0-.673-.222c-.052-.011-.107-.018-.16-.027-.534-.089-1.081-.13-1.624-.17-.343-.026-.686-.044-1.029-.062l-.147-.012-.1,0a2.233,2.233,0,0,0-.534.066,2.3,2.3,0,0,0-1.074.519,1.8,1.8,0,0,0-.544.813,3.1,3.1,0,0,0-.078.527,1.854,1.854,0,0,0,.088.544l-.055.07a2.2,2.2,0,0,0-.207.405,1.376,1.376,0,0,0-.07.666c.006.065.013.129.022.193.017.13.038.255.059.388a1.268,1.268,0,0,0,.157.392,1.509,1.509,0,0,0-.115.386c0,.023-.009.045-.014.068l-.036.1c-.13.347-.283.686-.433,1.027-.174.348-.348.7-.525,1.044l-.261.537a1.982,1.982,0,0,0,0,1.2,2.047,2.047,0,0,0,.168.383q-.093.334-.192.667l-.074.248-.435.636a2.136,2.136,0,0,0-.379,1.241,1.919,1.919,0,0,0-.363.254,2.134,2.134,0,0,0-.445.568c-.052.094-.109.187-.164.28-.1.163-.2.324-.285.49-.2.363-.391.725-.583,1.09-.289.551-.574,1.1-.875,1.652-.119.2-.232.406-.344.608l-.113.234c-.073.116-.147.233-.225.346-.122.178-.259.345-.391.517a7.206,7.206,0,0,0-.773,1.125,2.988,2.988,0,0,0-.212.471,1.458,1.458,0,0,0,0,.834l.024.057a1.42,1.42,0,0,0,.429.641,1.478,1.478,0,0,0,.43.3,2.122,2.122,0,0,0,1.127.211,4.676,4.676,0,0,0,.6-.086,5.146,5.146,0,0,0,.637-.219,7.711,7.711,0,0,0,1.5-.792l.119-.078a3.533,3.533,0,0,0,.936-.045,2.243,2.243,0,0,0,.274-.064,1.391,1.391,0,0,0,.141.269,1.582,1.582,0,0,0,.6.519,1.851,1.851,0,0,0,.84.2,21.161,21.161,0,0,0,2.149.02q.454,0,.906.007a1.854,1.854,0,0,0,.631.093,2.392,2.392,0,0,0,.475-.067l.582.022q-.16.249-.325.5c-.078.118-.161.234-.243.35a4.445,4.445,0,0,0-.307.414,1.308,1.308,0,0,0-.228.736,1.39,1.39,0,0,0,.245.773c-.126.109-.251.218-.375.328a9.66,9.66,0,0,0-1.588,1.566.835.835,0,0,0-.109.725.893.893,0,0,0,.1.214l-.09.084c-.081.076-.164.152-.244.23a1.386,1.386,0,0,0-.443.627l-.266.217q-.273.224-.541.453c-.351.3-.7.6-1.026.919-.665.649-1.294,1.326-1.956,1.978-.212.209-.419.421-.615.642-.168.189-.31.4-.46.6-.3.406-.6.818-.938,1.2l-.027.031a.171.171,0,0,0,0,.259.235.235,0,0,0,.3,0c.36-.327.744-.633,1.121-.945.353-.291.668-.614,1-.925.679-.641,1.319-1.312,2-1.954.2-.185.4-.365.6-.543s.434-.332.653-.5.4-.321.6-.483c.158-.13.318-.258.475-.39a.667.667,0,0,0,.139-.092l0,0c.128-.1.23-.225.348-.332l.23-.209.389-.351.088-.079a1.074,1.074,0,0,0,.284-.1,2.951,2.951,0,0,0,.464-.348c.164-.142.335-.277.494-.424.182-.169.367-.335.541-.51s.351-.358.521-.541c.042-.045.084-.092.125-.138q.258-.221.518-.439l.1-.08a1.77,1.77,0,0,0,.835-.647q.056-.067.108-.137l.226-.187.08-.063c.181-.145.358-.294.534-.444l.584-.48c.621-.509,1.246-1.015,1.858-1.532l1.1-.931c.169-.143.331-.291.5-.436l.251-.221a6.942,6.942,0,0,0,.63-.666.882.882,0,0,0,.154-.5c0-.005,0-.011,0-.016.7-.563,1.431-1.1,2.164-1.639a1.878,1.878,0,0,0,.549-.178,1.714,1.714,0,0,0,.564-.461c.089-.086.18-.17.269-.256l.116-.109a9.616,9.616,0,0,0,.83-.517,1.474,1.474,0,0,0,.444-.663A1.328,1.328,0,0,0,74.3,135.988Z" transform="translate(-14.78 -4.909)" fill="#b5e806"/>
    <path id="Path_956" data-name="Path 956" d="M66.93,262c-.713.605-1.376,1.264-2.036,1.926s-1.283,1.319-1.915,1.988c-.295.312-.577.635-.863.955s-.547.621-.817.934c-.642.746-1.295,1.483-1.947,2.22-.3.336-.615.654-.925.978l-.742.774c-.244.255-.5.5-.751.746a.422.422,0,0,0,.6.6c.224-.216.45-.43.666-.654l.577-.6,1.036-1.075c.1-.1.188-.209.282-.314l.641-.715c.249-.277.5-.554.747-.833.315-.355.623-.717.945-1.066l1.014-1.1c.118-.129.244-.251.365-.376l.631-.649c.308-.317.623-.627.935-.941.354-.356.709-.711,1.059-1.071.366-.378.715-.771,1.062-1.167a.413.413,0,0,0,.116-.28.4.4,0,0,0-.4-.4.419.419,0,0,0-.28.116Z" transform="translate(-20.697 -116.115)" fill="#ffe11a"/>
    <path id="Path_957" data-name="Path 957" d="M89.439,231.577c-.3.358-.624.694-.946,1.031q-.442.463-.909.9c-.662.621-1.327,1.24-1.974,1.876q-2.048,2.014-4.1,4.025t-4.144,4.01a.618.618,0,0,0,.873.873q2.255-2.168,4.5-4.344c1.291-1.252,2.568-2.52,3.864-3.766l1.007-.968c.3-.285.6-.563.89-.856l.533-.542c.144-.147.277-.3.414-.457.313-.349.617-.706.9-1.081a.579.579,0,0,0-.5-.872.559.559,0,0,0-.41.17Z" transform="translate(-36.45 -91.804)" fill="#ffe11a"/>
    <path id="Path_958" data-name="Path 958" d="M130.749,129.023a.6.6,0,0,0-.3.523c0,.075.009.15.016.225a.419.419,0,0,0-.216.357q-.007.218-.016.435a1.063,1.063,0,0,0-.288.19,2.111,2.111,0,0,0-.249.293c-.15.19-.305.376-.452.57s-.274.371-.413.556l-.336.447c-.213.284-.425.569-.64.852q-.718.941-1.439,1.88c-.255.329-.51.658-.752,1l-.165.165-.2.2-.057.054a10.451,10.451,0,0,0-.844.844l-.136.176a.862.862,0,0,0-.117.384l-.232.267c-.066.076-.131.154-.2.231l-.11.132a2.647,2.647,0,0,0-.2.274,1.446,1.446,0,0,0-.12.3.8.8,0,0,0,0,.442l-.2.285a2.105,2.105,0,0,0-.418.784l-.017.129a.836.836,0,0,0,.31,1.124l.2.084a.843.843,0,0,0,.444,0,1.557,1.557,0,0,0,.751-.509q.144-.141.283-.285c.078-.081.153-.164.229-.248.046-.051.089-.1.133-.157a2.662,2.662,0,0,0,.314-.44l.007-.014.064-.067q.187-.2.372-.394.083-.089.164-.18l.089-.1c.059-.07.115-.142.169-.215a1.147,1.147,0,0,0,.135-.281.77.77,0,0,0-.264-.808l.081-.011a.807.807,0,0,0,.356-.208c.1-.078.2-.155.292-.237.114-.1.219-.21.324-.318.179-.182.352-.368.531-.55l.481-.486.5-.507c.018-.015.036-.031.053-.049.109-.084.217-.168.32-.259s.222-.206.331-.312.22-.215.328-.324c.178-.179.361-.355.534-.538.154-.162.312-.322.463-.488l.283-.313c.053-.058.1-.119.155-.179a2.247,2.247,0,0,0,.191-.26,1.343,1.343,0,0,0,.121-.321.744.744,0,0,0-.05-.518.559.559,0,0,0,.3-.349.888.888,0,0,0,.025-.108.653.653,0,0,0,.3-.272,1.237,1.237,0,0,0,.122-.269,3.385,3.385,0,0,0,.061-.406,3.2,3.2,0,0,0,.015-.35c0-.1,0-.2-.012-.294s-.024-.193-.039-.29a.953.953,0,0,0-.137-.316.7.7,0,0,0-.295-.273l-.008-.052v-.005a1.549,1.549,0,0,0-.034-.285.582.582,0,0,0-.285-.363.607.607,0,0,0-.611,0Zm-4.244,6.214-.032.041.032-.041Z" transform="translate(-72.171 -11.246)" fill="#ffd34e"/>
    <path id="Path_959" data-name="Path 959" d="M79.665,205.708a.61.61,0,0,0-.445.584c0,.145.01.291.017.436a.654.654,0,0,0-.086-.006.808.808,0,0,0-.427.108,3.365,3.365,0,0,0-.307.236l.04-.031a15.751,15.751,0,0,0-1.374,1.247c-.16.159-.315.324-.472.486a9.1,9.1,0,0,0-.656.71.723.723,0,0,0-.178.291l-.8.822-.255.264c-.036.03-.073.06-.108.092a1.032,1.032,0,0,0-.156.181l-.132.137c-.084.087-.172.169-.255.256a3.31,3.31,0,0,0-.378.5.684.684,0,0,0-.1.3l-.364.288c-.507.4-1.006.814-1.5,1.226l-.742.617-.328.276-.179.151c-.07.06-.141.12-.21.182a2.5,2.5,0,0,0-.319.4,1.105,1.105,0,0,0-.143.422,3.379,3.379,0,0,0-.279.309q-.032.032-.06.065c-.187.162-.372.327-.557.491-.333.3-.672.586-1.006.881s-.666.6-1,.9-.7.59-1.045.887a14.365,14.365,0,0,0-1.808,1.8c-.557.678-1.1,1.369-1.69,2.018-.288.315-.556.646-.838.966-.3.339-.611.667-.921,1-.2.215-.407.429-.616.639q-.163.164-.324.33a3.921,3.921,0,0,0-.288.351,1.488,1.488,0,0,0-.24.515.969.969,0,0,0,.441,1.083.951.951,0,0,0,.484.13.991.991,0,0,0,.678-.281c.1-.089.206-.167.3-.264l.233-.251c.145-.155.293-.306.44-.458.3-.312.6-.627.9-.939s.59-.635.882-.955.6-.6.905-.9c.634-.609,1.223-1.263,1.85-1.879s1.3-1.143,1.96-1.7c.349-.295.685-.605,1.022-.915s.653-.587.977-.884.638-.6.958-.9l.14-.13c.26-.192.495-.426.732-.641.159-.145.318-.289.474-.437.365-.333.721-.675,1.061-1.034a1.176,1.176,0,0,0,.3-.528.982.982,0,0,0,.288-.551c.42-.359.841-.718,1.267-1.07a2.073,2.073,0,0,0,.381-.273c.1-.084.194-.181.289-.274l1.047-.843c.026,0,.053,0,.079,0l.276-.037a1.037,1.037,0,0,0,.457-.267,8.407,8.407,0,0,0,.642-.59c.086-.084.17-.168.254-.253l.134-.136a4.185,4.185,0,0,0,.311-.36l.019-.018c.193-.183.388-.364.583-.546s.419-.386.612-.6a3.157,3.157,0,0,0,.222-.279.91.91,0,0,0,.175-.344q.026-.139.039-.28a.908.908,0,0,0-.124-.459c-.013-.023-.027-.044-.04-.063a.916.916,0,0,0,.058-.08.79.79,0,0,0,.126-.4,1.442,1.442,0,0,0-.028-.284,1.866,1.866,0,0,0-.06-.267,1.2,1.2,0,0,0-.42-.737,1.121,1.121,0,0,0-.091-.163.641.641,0,0,0-.525-.3.6.6,0,0,0-.159.022Zm1.12,1.376.008.01-.008-.01Z" transform="translate(-20.123 -68.908)" fill="#ffd34e"/>
    <path id="Path_960" data-name="Path 960" d="M64.559,238.732a4.555,4.555,0,0,0-.495.21c-.236.109-.47.223-.705.333q-.407.193-.817.375l-.062-.018a.709.709,0,0,0-.182-.28,1.579,1.579,0,0,0-.268-.209,1,1,0,0,0-.513-.118,1.969,1.969,0,0,0-.634.142c-.138.049-.277.1-.415.146-.286.1-.571.206-.856.314-.181.069-.363.138-.543.208-.221.087-.441.175-.654.278-.082.039-.164.078-.244.119a1.9,1.9,0,0,0-.354.253.8.8,0,0,0-.1.1h-.009a.619.619,0,0,0-.42.177.553.553,0,0,0-.129.1l-.086.111a.547.547,0,0,0-.075.277.994.994,0,0,0,.112.5c.033.08.066.161.1.241.066.157.133.314.2.472h0q.026.067.055.133a.531.531,0,0,0,.332.255.555.555,0,0,0,.676-.364.574.574,0,0,0,.305-.023.667.667,0,0,0,.377-.29c.008-.013.015-.027.022-.041a.637.637,0,0,0,.154.009c.356-.024.711-.085,1.064-.137.286-.043.572-.084.858-.128l.011,0a.784.784,0,0,0,.435-.011l.2-.065c.036-.008.073-.015.11-.021.152-.017.305-.033.457-.052l.328-.041c.128-.016.257-.035.385-.052a1.236,1.236,0,0,0,.455-.171.96.96,0,0,0,.422-.533l.308-.132.115-.048a.87.87,0,0,0,.754.051.744.744,0,0,0,.476-.465.9.9,0,0,0,.185-.233.931.931,0,0,0,.127-.469,1.6,1.6,0,0,0-.039-.275.89.89,0,0,0-.471-.577l-.224-.095a1.488,1.488,0,0,0-.292-.035h-.026a1.345,1.345,0,0,0-.4.077Z" transform="translate(-20.924 -98.341)" fill="#ffd34e"/>
    <path id="Path_961" data-name="Path 961" d="M68.005,244.493c-.459.188-.921.367-1.389.532-.441.156-.884.3-1.329.449s-.869.267-1.307.392a12.085,12.085,0,0,1-1.186.261.854.854,0,0,0-.086-.206.9.9,0,0,0-.537-.413.932.932,0,0,0-.693.091q-.269.139-.526.3l-.317.2c-.119.074-.239.143-.351.228a2.606,2.606,0,0,0-.269.222c-.042.042-.082.087-.123.13a.909.909,0,0,0-.23.872.9.9,0,0,0,.23.4.943.943,0,0,0,.634.262,1.3,1.3,0,0,0,.261-.006,1.2,1.2,0,0,0,.146.055,2.629,2.629,0,0,0,1.16-.039c.195-.031.392-.077.583-.127.446-.116.888-.241,1.326-.384.407-.133.805-.288,1.2-.447q.671-.269,1.344-.533c.623-.246,1.243-.5,1.861-.761l.182-.077a.761.761,0,0,0,0-1.314.83.83,0,0,0-.4-.11.494.494,0,0,0-.187.033Z" transform="translate(-22.988 -102.994)" fill="#ffd34e"/>
    <path id="Path_962" data-name="Path 962" d="M130.618,139.326c.267-.431.527-.868.775-1.31.227-.4.45-.81.657-1.225s.4-.8.594-1.21c.171-.366.347-.73.52-1.1v0h0a18.249,18.249,0,0,0-1.572,2.265c-.238.407-.458.819-.656,1.246-.21.451-.406.907-.594,1.366-.144.351-.286.706-.406,1.068a0,0,0,0,0,0,0C130.152,140.057,130.39,139.695,130.618,139.326Z" transform="translate(-79.192 -15.792)" fill="#7f7f7f"/>
    <path id="Path_963" data-name="Path 963" d="M61.456,213.086c-.238.658-.437,1.329-.638,2l-.032.107s0,0,0,0q.481-.975.879-1.989c.113-.289.211-.581.306-.876.153-.475.29-.953.416-1.436l.014-.056h0C62.057,211.572,61.733,212.321,61.456,213.086Z" transform="translate(-24.178 -76.166)" fill="#7f7f7f"/>
    <path id="Path_964" data-name="Path 964" d="M93.727,261.192c.289-.308.577-.617.852-.936a0,0,0,0,0,0,0h0c-.221.2-.449.387-.674.58s-.463.4-.692.6c-.443.39-.884.784-1.309,1.193q-1.188,1.145-2.3,2.364s0,0,0,0q1.038-.833,2.03-1.72c.162-.146.324-.292.482-.441.256-.244.507-.495.755-.747Q93.305,261.644,93.727,261.192Z" transform="translate(-46.974 -115.507)" fill="#7f7f7f"/>
    <path id="Path_965" data-name="Path 965" d="M165.044,233.84c.2-.21.4-.42.594-.633.253-.275.5-.554.741-.841.185-.222.374-.439.558-.662.312-.379.619-.763.922-1.15a0,0,0,0,0,0,0h0q-.522.473-1.019.971c-.209.21-.421.42-.619.641-.444.5-.863,1.016-1.264,1.547-.219.29-.441.582-.637.888,0,0,0,0,0,0C164.552,234.34,164.8,234.093,165.044,233.84Z" transform="translate(-106.434 -91.896)" fill="#7f7f7f"/>
    <path id="Path_966" data-name="Path 966" d="M152.3,253.153c.325-.311.633-.639.932-.975q.229-.257.45-.521c.149-.178.306-.351.455-.529s.294-.354.44-.531a0,0,0,0,0,0,0h0a15.746,15.746,0,0,0-2.191,1.826,23.16,23.16,0,0,0-1.768,2.043q-.191.242-.379.486s0,0,0,0C150.944,254.367,151.644,253.784,152.3,253.153Z" transform="translate(-94.889 -107.844)" fill="#7f7f7f"/>
    <path id="Path_967" data-name="Path 967" d="M42.878,302.853a0,0,0,0,0,0,0h0q-.659,1.031-1.278,2.086c-.262.45-.524.9-.773,1.357-.237.433-.475.866-.707,1.3-.249.466-.494.934-.74,1.4-.045.086-.092.172-.139.256,0,0,0,0,0,0,.161-.223.314-.453.467-.682s.316-.477.472-.716q.193-.3.381-.6c.125-.2.253-.4.372-.6.256-.433.506-.87.737-1.317q.455-.879.876-1.775Q42.714,303.213,42.878,302.853Z" transform="translate(-7.187 -148.608)" fill="#7f7f7f"/>
    <path id="Path_968" data-name="Path 968" d="M41.794,256.7c-.144-.152-.292-.3-.441-.446q-.324-.322-.658-.633h0a0,0,0,0,0,0,0c.334.392.677.775,1.024,1.155.271.3.553.583.835.87.165.168.332.334.5.5,0,0,0,0,0,0q-.384-.484-.8-.945C42.1,257.033,41.951,256.865,41.794,256.7Z" transform="translate(-8.38 -111.991)" fill="#7f7f7f"/>
    <path id="Path_969" data-name="Path 969" d="M32.608,195.533c.237-.471.469-.944.686-1.424.1-.211.2-.421.276-.638q.485-1.305.9-2.634c.04-.126.08-.253.118-.379s.072-.259.1-.389c.068-.267.13-.537.194-.8a0,0,0,0,0,0,0h0c-.2.426-.38.859-.588,1.28q-.25.507-.49,1.019c-.277.59-.547,1.184-.8,1.786l0-.01c-.4.821-.761,1.66-1.107,2.506-.184.426-.361.855-.539,1.283-.3.711-.6,1.424-.891,2.137,0,0,0,0,0,0,.388-.67.788-1.334,1.18-2,.205-.349.4-.7.6-1.057C32.38,195.986,32.493,195.76,32.608,195.533Z" transform="translate(0 -58.697)" fill="#7f7f7f"/>
    <path id="Path_970" data-name="Path 970" d="M167.632,150.757c.406-.519.8-1.047,1.2-1.569h0l.086-.111a0,0,0,0,0,0,0h0c-.451.441-.883.9-1.309,1.365-.335.364-.667.733-.979,1.117-.663.815-1.287,1.661-1.887,2.523,0,0,0,0,0,0C165.754,153.016,166.726,151.914,167.632,150.757Z" transform="translate(-106.782 -27.761)" fill="#7f7f7f"/>
    <path id="Path_971" data-name="Path 971" d="M175.965,159.554h0c-.354.359-.7.729-1.026,1.112-.372.432-.714.891-1.046,1.354,0,0,0,0,0,0q.48-.5.935-1.026c.25-.288.488-.587.719-.89l0,.005c.143-.184.282-.369.422-.555C175.967,159.555,175.966,159.554,175.965,159.554Z" transform="translate(-114.288 -35.359)" fill="#7f7f7f"/>
    <path id="Path_972" data-name="Path 972" d="M65.952,162.994l0,0v0Z" transform="translate(-28.344 -39.173)" fill="#7f7f7f"/>
    <path id="Path_973" data-name="Path 973" d="M64.722,142.279v0l.029-.068v0h0l0,0v0q.308-.728.58-1.47c.029-.081.062-.161.088-.243q.053-.167.1-.334.117-.39.223-.784c.02-.074.032-.15.047-.225q.051-.249.1-.5c.027-.142.054-.285.08-.427.034-.189.061-.378.088-.568h0c-.055.186-.107.374-.164.559q-.068.222-.134.446-.073.246-.142.493c-.017.061-.032.124-.052.185-.16.479-.3.964-.454,1.446-.109.347-.214.695-.318,1.043-.1.32-.19.643-.309.956,0,0,0,0,0,0C64.572,142.621,64.65,142.451,64.722,142.279Z" transform="translate(-27.13 -18.395)" fill="#7f7f7f"/>
    <path id="Path_974" data-name="Path 974" d="M53.5,155.7c.214-.424.431-.847.637-1.275.232-.482.445-.974.648-1.469q.124-.3.244-.606h0q-.346.623-.661,1.263c-.137.278-.262.563-.383.849l.006-.014q-.262.619-.491,1.252S53.5,155.7,53.5,155.7Z" transform="translate(-18.881 -30.447)" fill="#7f7f7f"/>
    <path id="Path_975" data-name="Path 975" d="M66.206,311.928c-.367.337-.727.682-1.1,1.018q-.282.257-.561.516-.717.665-1.416,1.35c-.074.073-.15.143-.227.213q-.366.331-.724.671c-.335.317-.665.639-1,.956q-.6.572-1.195,1.15c-.34.329-.678.66-1.024.983l-.072.065s0,0,0,0l.087-.065h0c.82-.633,1.625-1.285,2.424-1.944.357-.294.705-.6,1.052-.906q.366-.325.724-.658c.076-.07.149-.141.22-.216q.674-.7,1.329-1.422.256-.282.51-.566c.333-.373.648-.761.967-1.146a0,0,0,0,0,0,0Z" transform="translate(-22.495 -156.053)" fill="#7f7f7f"/>
    <path id="Path_976" data-name="Path 976" d="M61.3,340.663a23.639,23.639,0,0,0-2.574,2.232c-.158.162-.314.325-.469.491-.127.137-.251.278-.379.414-.329.35-.644.715-.988,1.051,0,0,0,0,0,0a13.46,13.46,0,0,0,1.141-.828c.339-.264.661-.553.979-.842.336-.306.65-.635.959-.968.463-.5.9-1.02,1.331-1.551,0,0,0,0,0,0Z" transform="translate(-21.002 -179.623)" fill="#7f7f7f"/>
    <path id="Path_977" data-name="Path 977" d="M56.2,150.237c.361-.371.718-.749,1.092-1.108s.772-.729,1.164-1.088c.363-.333.74-.651,1.116-.969.741-.626,1.5-1.235,2.221-1.88.375-.333.752-.664,1.119-1.006q.585-.543,1.16-1.1c.72-.691,1.411-1.411,2.112-2.12.61-.617,1.228-1.226,1.846-1.835q1.125-1.107,2.237-2.227l.03-.006a.554.554,0,0,0,.383-.673c-.174-.695-.358-1.387-.53-2.083-.183-.741-.35-1.486-.52-2.231a.522.522,0,0,0-.283-.346.66.66,0,0,0-.055-.063.63.63,0,0,0-.278-.161,1.018,1.018,0,0,0-.394-.07,2.955,2.955,0,0,0-.351.027l-.245.029c-.184.022-.37.042-.554.066l-1.2.158q-1.059.139-2.118.287l-1.557.179-.715.083c-.17.019-.342.023-.512.035l-.786.051.181-.218.891-1.083c.6-.726,1.208-1.441,1.816-2.158.233-.274.471-.543.707-.814l1.1-1.265c.178-.205.364-.4.547-.605l1.306-1.439q1.118-1.232,2.243-2.455a.449.449,0,0,0,.129-.309.437.437,0,0,0-.129-.309.444.444,0,0,0-.267-.123c-.014-.345-.018-.691-.025-1.036-.008-.374-.016-.748-.022-1.122-.017-.965-.017-1.93-.009-2.895a.641.641,0,0,0,.206-.657.649.649,0,0,0-.633-.471.678.678,0,0,0-.164.02c-.092.022-.185.04-.279.055-.538.072-1.074.157-1.611.237-.489.073-.979.138-1.469.207-2.1.279-4.205.539-6.309.8-2.058.256-4.119.488-6.178.728-.671.078-1.343.15-2.014.225l-.189.025a.709.709,0,0,0-.314,1.185l.028.026c-.132.473-.265.945-.4,1.416l-.608,2.079c-.106.363-.2.73-.319,1.089l-.494,1.535-.567,1.759c-.124.385-.265.767-.4,1.149-.157.45-.307.9-.472,1.351l-.641,1.743c-.315.855-.642,1.705-.968,2.556q-.589,1.54-1.181,3.077c-.5,1.291-1.007,2.578-1.539,3.855-.089.209-.178.418-.266.628-.046.11-.087.22-.126.333a2.368,2.368,0,0,0-.09.47.525.525,0,0,0,.262.454.512.512,0,0,0,.355.061.761.761,0,0,0,.427.293,8.927,8.927,0,0,0,.888.169l.028.054c.03.058.066.115.1.172l.2.35c.072.126.146.251.221.375.3.493.584.99.871,1.488l-.168.056a.45.45,0,0,0-.259.2.433.433,0,0,0,.491.636l.412-.138a.387.387,0,0,0,.408.018.366.366,0,0,0,.166-.21q.54-.18,1.082-.356l1.85-.6c.379-.123.764-.232,1.146-.346.436-.13.871-.262,1.309-.385q.847-.238,1.694-.472l.538-.145c-.057.109-.115.217-.173.324-.174.321-.368.631-.564.939-.334.525-.7,1.033-1.051,1.546-.493.716-1.008,1.417-1.515,2.123l-2.039,2.839c-.5.689-.978,1.389-1.466,2.084l-1.2,1.712-.4.57c-.046.066-.095.131-.139.2l-1.855,2.844-.381.583c-.255.391-.492.793-.736,1.19a.4.4,0,0,0,.046.465l-.127.1-.2.15a2.467,2.467,0,0,1-.352.24.5.5,0,0,0-.272.211.464.464,0,0,0,.168.636.454.454,0,0,0,.359.047c.07-.026.14-.057.209-.086a1.056,1.056,0,0,0,.2-.126c.1-.07.19-.147.284-.221l.34-.268c.2-.157.4-.313.6-.469l.022-.016a.42.42,0,0,0,.136-.091c.011-.011.019-.023.028-.034.72-.55,1.443-1.1,2.148-1.668q.609-.494,1.223-.983c.364-.289.728-.576,1.086-.873q1.186-.986,2.351-2c.739-.639,1.45-1.311,2.152-1.989.724-.7,1.452-1.4,2.168-2.108C55.485,150.96,55.845,150.6,56.2,150.237Zm9.777-25.652c-.551.608-1.107,1.212-1.646,1.832-.632.726-1.266,1.45-1.888,2.185q-.906,1.07-1.793,2.154-.32.394-.635.791c-.183.233-.371.466-.535.713q-.718.046-1.437.1c.185-.392.408-.769.63-1.139.126-.21.247-.424.379-.631l.518-.806c.276-.429.579-.842.872-1.259.109-.155.214-.314.328-.465l.42-.559q.979-1.3,1.97-2.6l.922-1.2c.283-.37.552-.751.827-1.126l1.179-1.6c.2-.277.391-.566.582-.852l1.043-1.561c.085-.127.162-.259.242-.389l.166-.269q0,.659.006,1.318.006.581.017,1.161c.007.407.022.819.068,1.224.005.04.011.08.016.12a.451.451,0,0,0,.117.2.421.421,0,0,0,.038.031Q67.177,123.263,65.977,124.584ZM43.8,142.421l0,0h0Zm9.676.26q-.735.21-1.469.422-.644.187-1.286.38l-1,.3c-.135.041-.27.079-.4.122-1.056.345-2.112.689-3.166,1.039q-.14-.234-.291-.463c-.188-.286-.381-.569-.573-.853-.1-.153-.211-.3-.31-.46l-.3-.476.019-.01a.766.766,0,0,0,.319-.366l.8-.074c.371-.034.743-.06,1.114-.087.986-.07,1.972-.157,2.96-.2l2.483-.1.961-.038c.49-.019.98-.019,1.47-.027h.011c-.068.175-.14.348-.211.52l-.026.061-.117.031c-.121.031-.241.065-.362.1Q53.782,142.592,53.475,142.681Zm-7.257,13.527c.15-.229.316-.449.474-.673L49,152.263c.475-.673.961-1.337,1.445-2q.871-1.2,1.747-2.4c.261-.356.525-.709.781-1.069q.478-.674.957-1.349a15.648,15.648,0,0,0,1.056-1.723c.157-.3.3-.6.441-.909.036-.076.069-.153.1-.23.066-.149.136-.3.195-.448l.136-.351a2.378,2.378,0,0,0,.1-.335,1.655,1.655,0,0,0,.039-.258,1.115,1.115,0,0,0-.035-.335.457.457,0,0,0-.528-.33.79.79,0,0,0-.628-.324H54.8c-.68.01-1.358.022-2.038.048l-2.184.085c-.376.014-.754.019-1.129.045l-1.693.117c-.591.041-1.182.074-1.772.127l-1.322.119c-.137.012-.274.027-.411.036-.18.012-.358.016-.536.034.212-.495.425-.99.625-1.489.366-.914.732-1.829,1.087-2.747.74-1.912,1.485-3.824,2.191-5.749.177-.482.362-.963.531-1.448q.306-.88.611-1.76c.337-.97.642-1.951.956-2.929.113-.351.235-.7.339-1.055l.382-1.309.563-1.929c.153-.522.3-1.046.444-1.571q1.627-.182,3.253-.371c1.008-.117,2.017-.226,3.024-.351,2.081-.258,4.163-.511,6.242-.785.837-.11,1.673-.223,2.509-.344.373-.054.745-.114,1.117-.176l.206-.037-.567.88c-.219.341-.446.674-.676,1.008l-1.1,1.592c-.2.3-.432.58-.65.869-.513.682-1.031,1.36-1.538,2.045-.632.8-1.255,1.6-1.885,2.4-.333.422-.66.849-.99,1.273-.279.359-.558.718-.827,1.085l-.8,1.09c-.093.127-.178.261-.266.391L58.08,130c-.184.27-.359.549-.529.828a10.678,10.678,0,0,0-.637,1.133l-.06.143a.6.6,0,0,0,.276.675.591.591,0,0,0,.142.059.677.677,0,0,0-.035.212.686.686,0,0,0,.2.484.668.668,0,0,0,.485.2c1.176-.085,2.354-.155,3.531-.231.153-.01.306-.015.458-.032l.82-.094c.554-.064,1.109-.119,1.661-.2,1.351-.187,2.705-.36,4.051-.578,0,.008,0,.015.006.022-.058.1-.116.209-.176.313-.122.212-.257.415-.393.619s-.278.408-.422.609c-.115.163-.229.327-.351.485l-.524.679c-.431.559-.865,1.115-1.294,1.675-.6.661-1.188,1.327-1.782,1.99l-1.071,1.2c-.108.12-.213.243-.327.357l-4.047,4.074c-.111.112-.225.221-.338.331L56.656,146l-2.485,2.423c-1.208,1.178-2.4,2.373-3.595,3.561l-.688.682c-.168.167-.33.341-.5.512l-2.274,2.351c-.169.175-.331.354-.5.533l-1.072,1.17Zm8.895-6.323q-.528.53-1.066,1.05c-.732.71-1.457,1.428-2.19,2.137s-1.461,1.373-2.211,2.038-1.515,1.326-2.291,1.966c-.548.452-1.1.894-1.651,1.349-.109.091-.22.179-.329.269l.484-.591c.066-.081.139-.157.209-.234l.56-.621.929-1.032c.048-.053.1-.1.149-.155l.439-.457,2.213-2.3c.114-.118.231-.233.347-.349l1.075-1.071c1.16-1.155,2.318-2.313,3.487-3.458l2.572-2.521c.35-.342.7-.685,1.043-1.033l2.39-2.423,1.083-1.1c.123-.125.253-.246.369-.377l1.979-2.232.958-1.082c.066-.074.132-.147.192-.225l.223-.293,1.357-1.786c.151-.2.3-.4.444-.6q.343-.484.666-.98.136-.211.262-.427.125.551.251,1.1c.075.327.15.654.229.98.07.289.15.572.248.851q-1.168,1.174-2.351,2.333c-.68.667-1.359,1.334-2.03,2.01-.747.754-1.5,1.506-2.261,2.242-.7.671-1.421,1.319-2.154,1.953q-.549.474-1.109.935c-.4.328-.8.651-1.194.989q-.617.535-1.223,1.081c-.366.33-.716.675-1.067,1.021S55.458,149.538,55.113,149.884Z" transform="translate(-9.116 0)" fill="#161616"/>
  </g>
</svg>
