<svg xmlns="http://www.w3.org/2000/svg" width="50" height="38.379" viewBox="0 0 50 38.379">
  <g id="icon_email" transform="translate(0 -54.144)">
    <g id="Group_879" data-name="Group 879" transform="translate(0 54.144)">
      <path id="Path_1003" data-name="Path 1003" d="M49.084,55.88a1.594,1.594,0,0,0-1.7-1.637c-15.391.506-30.815-1.164-46.109,1.241A1.516,1.516,0,0,0,.226,57.836c0,.017.009.033.014.05a1.685,1.685,0,0,0-.115.773c.76,10.62,1.907,21.205,2.945,31.8a1.953,1.953,0,0,0,.064.32,1.6,1.6,0,0,0,1.7,1.741c14.331-.558,28.7-.065,42.989-1.472a2,2,0,0,0,.346-.069,1.725,1.725,0,0,0,1.715-1.7c.38-11-.276-21.987-.736-32.978A1.994,1.994,0,0,0,49.084,55.88ZM46.4,76.957A93.876,93.876,0,0,0,38.459,67.2a78.1,78.1,0,0,0,7.388-5.639C46.075,66.7,46.3,71.825,46.4,76.957ZM44.714,57.833A80.7,80.7,0,0,1,26.042,70.3c-6.816-3.394-13-7.818-19.348-11.985C19.306,56.971,32.043,58.047,44.714,57.833Zm-40.9,2.818c3.395,2.2,6.728,4.5,10.121,6.7C11.1,72.054,7.995,76.614,5.719,81.584,5.025,74.612,4.347,67.639,3.816,60.652ZM46.391,87.636c-13.215,1.188-26.492.859-39.742,1.3a1.815,1.815,0,0,0,.332-.653c1.971-7,6.213-12.9,9.942-19.043,2.526,1.559,5.1,3.036,7.779,4.346.031.015.062.021.093.034a1.773,1.773,0,0,0,1.985.261,94.681,94.681,0,0,0,8.669-4.734A77.637,77.637,0,0,1,46.3,83.4a1.832,1.832,0,0,0,.149.211C46.44,84.954,46.425,86.295,46.391,87.636Z" transform="translate(0 -54.144)" fill="#fff"/>
    </g>
  </g>
</svg>
