<svg xmlns="http://www.w3.org/2000/svg" width="51.324" height="51.725" viewBox="0 0 51.324 51.725">
  <g id="icon_time" transform="translate(0.275 0.521)">
    <path id="Path_1005" data-name="Path 1005" d="M43.977,47.435a12.287,12.287,0,0,0,1.7-2.065c2.816-4.334,2.917-10.02,1.552-14.861C44.3,20.15,33.825,13.22,23.186,15.351a.587.587,0,0,0-.352-.128C11.085,14.959,5.421,26.929,8.026,37.208a22.7,22.7,0,0,0,5.127,9.6c-1.906,1.226-3.72,3.7-1.849,5.821,2.013,2.279,5.186-.113,5.955-2.331,4.651,2.913,9.85,3.063,15.257,2.129A29.561,29.561,0,0,0,39.327,50.5c1.017,1.889,3.576,3.522,5.5,2.491A2.581,2.581,0,0,0,46.032,50,4.465,4.465,0,0,0,43.977,47.435ZM12.247,51.373c-.838-1.4.495-2.975,1.463-3.973a20.067,20.067,0,0,0,2.579,2.245C15.42,50.5,13.481,53.433,12.247,51.373Zm27.6-3.1c-2.734.136-3.814,1.043-1.67.811a25.091,25.091,0,0,1-4.366,1.36c-9.662,2.137-18.729-.771-23.2-10.1-4.674-9.769-.23-24.1,12.222-23.869a.579.579,0,0,0,.3-.073,23.767,23.767,0,0,1,13.241,2.653c-.831,0-.339.529.737.493.03,0,.044-.022.068-.031a19.557,19.557,0,0,1,2.66,1.947c-.728-.023-.365.568.529.475a18.974,18.974,0,0,1,1.979,2.16c-.949-.042-1.461.579-.8.559.4-.012.807.023,1.206,0a20.229,20.229,0,0,1,2.27,4.007c.122.287.232.579.339.873-.329.01-.21.5.177.51a19.771,19.771,0,0,1,.746,2.932c-.1.024-.2.052-.3.069-.443.078-.2.569.386.463a18.448,18.448,0,0,1,.191,2.829c-.732.136-.717.762-.01.513a16.515,16.515,0,0,1-.291,2.529c-.268.054-.777.726-.111.535a15.014,15.014,0,0,1-.838,2.544c-.045.1-.1.2-.145.3-1.054,0-1.271.736-.319.634a11.4,11.4,0,0,1-1.29,1.885c-.391.1-.782.2-1.176.283-1.208.258-1.014.871.322.62A13.611,13.611,0,0,1,39.844,48.276ZM43.4,51.74a4.014,4.014,0,0,1-2.914-1.8,15.47,15.47,0,0,0,2.367-1.519,5.424,5.424,0,0,1,1.329,1.253C44.728,50.524,44.624,51.74,43.4,51.74Z" transform="translate(-1.381 -2.882)" fill="#fff" stroke="#fff" stroke-width="1"/>
    <path id="Path_1006" data-name="Path 1006" d="M44.2,32.229C41.109,24.4,32.245,18.513,23.787,20.27,16,21.888,11.7,29.574,13.529,37.163,15.5,45.314,23.935,50.424,32.02,49.846a.431.431,0,0,0,.4-.306C40.115,47.225,47.7,41.12,44.2,32.229ZM31.1,48.41a.664.664,0,0,0-.461.432c-.749-.084-1.5-.2-2.246-.344a.442.442,0,0,0,.046-.115,10.771,10.771,0,0,0,.238-3.1.45.45,0,0,0-.878-.119,10.673,10.673,0,0,0-.377,3.077.422.422,0,0,0,.009.046C22,47.04,16.988,44.076,15.1,38.445a14.335,14.335,0,0,1-.593-2.492c1.237.153,2.438.388,3.669.625.469.09.849-.6.35-.83a7.226,7.226,0,0,0-4.1-.527C13.879,29.384,17,23.68,23.031,21.9a13.63,13.63,0,0,1,3.934-.551.956.956,0,0,0-.046.258,6.332,6.332,0,0,0,.589,2.963c.285.593,1.05.132.973-.41a6.961,6.961,0,0,1,.014-2.34.908.908,0,0,0,0-.388,18.031,18.031,0,0,1,13.09,8.962C46.956,39.683,39.488,45.935,31.1,48.41Z" transform="translate(-2.48 -3.844)" fill="#fff" stroke="#fff" stroke-width="1"/>
    <path id="Path_1007" data-name="Path 1007" d="M45.385,6.306a11.084,11.084,0,0,0-8.969-.761A11.586,11.586,0,0,0,25.067.082C22.6.367,16.3,2.425,15.794,5.471A10.825,10.825,0,0,0,3.519,5.413C-1.339,9.092-.644,18.822,4.485,22a.337.337,0,0,0,.35.013.5.5,0,0,0,.581-.439c.216-3.1,3.364-6.217,5.6-8.109,2.051-1.737,4.4-2.655,6.721-3.855a.584.584,0,0,0,.551-.291l.17-.09a.515.515,0,0,0-.258-.952c-.049,0-.1.012-.147.017A7.016,7.016,0,0,0,16.422,6a.269.269,0,0,0,.051-.2c-.007-.048-.015-.1-.023-.145a.172.172,0,0,0-.212-.123c.527-.325,2.589-1.574,3.28-1.977A13.967,13.967,0,0,1,25.171,1.6,9.918,9.918,0,0,1,34.877,6.14c-1.574.707-3.3,1.822-3.28,3.444-.151-.009-.3-.027-.454-.031-.564-.017-.71.9-.136,1a23.25,23.25,0,0,1,9.049,3.481c2.78,1.906,4.483,4.368,6.582,6.91a.717.717,0,0,0,1.226.341C52.475,16.809,50.738,9.315,45.385,6.306ZM16.5,8.579a11.856,11.856,0,0,0-1.425.485c-.752-.109-1.8.593-1.343.631A18.56,18.56,0,0,0,11.7,10.942c-1.135-.04-1.795.7-.971.726-.578.459-1.126.937-1.636,1.419-1.078-.042-1.6.719-.758.74-1.8,1.832-3.866,4.449-3.883,6.987C1.552,17.109.714,9.757,4.767,6.84a8.5,8.5,0,0,1,7.89-1.081A10.1,10.1,0,0,1,16.5,8.579Zm31.933,8.378a9.2,9.2,0,0,1-1.273,2.721c-2.238-5.433-8.561-9.2-14.319-9.974h0c.086-1.837,4.439-2.784,5.768-2.974a9.4,9.4,0,0,1,6.362,1.262c.23.142.433.3.642.459-1.184.011.293.739.878.758a7.648,7.648,0,0,1,1.486,2.044c-1.291-.075-1.107.727.259.613a7.72,7.72,0,0,1,.451,1.763c-.439.135-.94,1.021.05.488a8.361,8.361,0,0,1-.166,2.3C47.787,16.4,47.7,16.971,48.432,16.958Z" transform="translate(0 0)" fill="#fff" stroke="#fff" stroke-width="1"/>
    <path id="Path_1008" data-name="Path 1008" d="M31,36.306c1.018-1.726,2.274-3.658,2.5-5.55.069-.581-.716-.782-1.078-.446-1.361,1.264-2.174,3.5-2.951,5.306-.026,0-.052.011-.078.015A22.376,22.376,0,0,1,24.618,31.7c-.4-.391-.94.185-.6.6a34.711,34.711,0,0,0,4.256,4.04,1.528,1.528,0,0,0,.441,2.192,1.565,1.565,0,0,0,.682.207,1.019,1.019,0,0,0,.973.007,1.761,1.761,0,0,0,.709-2.339C31.055,36.37,31.025,36.341,31,36.306Z" transform="translate(-4.56 -5.806)" fill="#fff" stroke="#fff" stroke-width="1"/>
    <path id="Path_1009" data-name="Path 1009" d="M46.326,38.792a4.437,4.437,0,0,0-1.993.145c-.719.123-1.433.252-2.147.4a.684.684,0,0,0,.181,1.338c.727-.049,1.45-.118,2.175-.194a4.449,4.449,0,0,0,1.953-.393A.719.719,0,0,0,46.326,38.792Z" transform="translate(-7.987 -7.457)" fill="#fff" stroke="#fff" stroke-width="1"/>
  </g>
</svg>
