<svg xmlns="http://www.w3.org/2000/svg" xmlns:xlink="http://www.w3.org/1999/xlink" width="110" height="110" viewBox="0 0 110 110">
  <defs>
    <filter id="Ellipse_2" x="0" y="0" width="110" height="110" filterUnits="userSpaceOnUse">
      <feOffset dx="10" dy="10" input="SourceAlpha"/>
      <feGaussianBlur stdDeviation="10" result="blur"/>
      <feFlood flood-opacity="0.161"/>
      <feComposite operator="in" in2="blur"/>
      <feComposite in="SourceGraphic"/>
    </filter>
  </defs>
  <g id="icon_xem_truoc" transform="translate(-650 -2574)">
    <g transform="matrix(1, 0, 0, 1, 650, 2574)" filter="url(#Ellipse_2)">
      <g id="Ellipse_2-2" data-name="Ellipse 2" transform="translate(20 20)" fill="#fff" stroke="#eee" stroke-width="1">
        <circle cx="25" cy="25" r="25" stroke="none"/>
        <circle cx="25" cy="25" r="24.5" fill="none"/>
      </g>
    </g>
    <g id="magnifying-glass-hand-drawn-tool" transform="translate(685.115 2607.126)">
      <g id="Group_849" data-name="Group 849" transform="translate(0)">
        <path id="Path_994" data-name="Path 994" d="M54.391,13.74a8.2,8.2,0,0,0,2.255-5.653,10.057,10.057,0,0,0-.812-3.467A7.612,7.612,0,0,0,48.485,0a10.792,10.792,0,0,0-3.728.684c-3.247,1.211-4.619,4.8-4.538,7.821a8.2,8.2,0,0,0,11.118,7.28c.8,1.692,1.641,3.364,2.514,5.016a22.492,22.492,0,0,0,1.288,2.53c.862,1.215,3.63-.544,4.4-1.183l.01-.011a.546.546,0,0,0,.33-.854C58.1,18.73,56.095,16.344,54.391,13.74ZM41.762,8.463c-.066-2.472,1-5.389,3.535-6.334a9.229,9.229,0,0,1,3.189-.587A6.042,6.042,0,0,1,54.41,5.211,8.235,8.235,0,0,1,55.1,8.087a6.676,6.676,0,0,1-13.342.376Zm10.68,6.8a8.265,8.265,0,0,0,1.033-.69c.712,1.073,1.471,2.112,2.245,3.142a17.544,17.544,0,0,0-1.532,1.064C53.591,17.616,53,16.447,52.441,15.265Zm3.62,7.2c-.427-.858-.863-1.711-1.3-2.563a16.168,16.168,0,0,1,1.708-1.189c.68.9,1.36,1.8,2.014,2.716A5.478,5.478,0,0,1,56.061,22.462Z" transform="translate(-40.216)"/>
      </g>
    </g>
  </g>
</svg>
