<svg xmlns="http://www.w3.org/2000/svg" width="47.129" height="50" viewBox="0 0 47.129 50">
  <g id="icon_phone" transform="translate(-44.17)">
    <g id="Group_896" data-name="Group 896" transform="translate(44.17 0)">
      <path id="Path_1017" data-name="Path 1017" d="M46.455,20.728c3.139,4.407,7.365,8.2,11.783,12.013,4.747,4.1,8.941,6.711,13.2,8.217a1.463,1.463,0,0,0,.774.067c5.214.238,9.593-1.238,12.914-4.375,1.484,1.048,2.829,3,2.552,4.4-.168.85-.91,1.4-2.206,1.645a1.333,1.333,0,0,0-1.146,1.5,1.648,1.648,0,0,0,1.606,1.535h0a1.708,1.708,0,0,0,.318-.03c3.044-.567,4.853-2.766,4.608-5.6a8.187,8.187,0,0,0-3.64-5.828q.258-.355.5-.73a1.368,1.368,0,0,0-.1-1.726,1.451,1.451,0,0,0-.461-.709,24.871,24.871,0,0,0-7.482-4.58,1.359,1.359,0,0,0-1.081.006,18.781,18.781,0,0,1-7.534-.319.833.833,0,0,0-.076-.058,54.951,54.951,0,0,1-12.695-11.44A22.713,22.713,0,0,0,60.439,8.65,1.509,1.509,0,0,0,60.3,7.619a1.578,1.578,0,0,0-.371-.566A72.064,72.064,0,0,0,52.7.525a1.435,1.435,0,0,0-.674-.29A1.517,1.517,0,0,0,50.16.427c-5.292,4.995-8.2,13.758-3.942,19.809A1.55,1.55,0,0,0,46.455,20.728Zm8.819-6.947a1.516,1.516,0,0,0-.2.941,1.6,1.6,0,0,0,.313,1.332,57.476,57.476,0,0,0,14,12.767,1.582,1.582,0,0,0,.326.162,1.546,1.546,0,0,0,.486.215,22.4,22.4,0,0,0,8.808.394,20.755,20.755,0,0,1,5.4,3.25c-2.6,3.383-6.359,5.1-11.175,5.1q-.533,0-1.079-.026c-4.8-1.734-8.859-4.906-12.528-8.076A67.456,67.456,0,0,1,49.565,19.712a1.577,1.577,0,0,0-.352-.667C45.41,14.731,47.537,7.879,51.5,3.51a65.835,65.835,0,0,1,5.72,5.236A19.382,19.382,0,0,1,55.274,13.781Z" transform="translate(-44.17 0)" fill="#fff"/>
      <path id="Path_1018" data-name="Path 1018" d="M385.628,395.3a1.317,1.317,0,0,0-1.059.56c-1.429,1.827-2.808,2.1-4.547.909a1.471,1.471,0,0,0-.837-.276,1.558,1.558,0,0,0-1.418,1.154,1.576,1.576,0,0,0,.628,1.821,6.273,6.273,0,0,0,3.559,1.175h0a6.237,6.237,0,0,0,4.89-2.609,1.709,1.709,0,0,0-1.218-2.736Z" transform="translate(-340.075 -350.645)" fill="#fff"/>
    </g>
  </g>
</svg>
