<svg xmlns="http://www.w3.org/2000/svg" width="46.684" height="50" viewBox="0 0 46.684 50">
  <g id="icon_the_loai" transform="translate(19344.098 -1149.26)">
    <g id="Group_829" data-name="Group 829" transform="translate(-19344.098 1149.26)">
      <g id="supermarket" transform="translate(0 0)">
        <g id="Group_824" data-name="Group 824" transform="translate(0)">
          <g id="Group_823" data-name="Group 823" transform="translate(0)">
            <path id="Path_981" data-name="Path 981" d="M60.338,6.921V4.976A4.982,4.982,0,0,0,55.362,0H41.522A4.943,4.943,0,0,0,38,1.458L18.43,21.032a4.976,4.976,0,0,0,0,7.038l1.989,1.989a5.015,5.015,0,0,0-.129,1.127,4.944,4.944,0,0,0,1.458,3.519l13.84,13.84a4.982,4.982,0,0,0,7.038,0L62.2,28.971a4.944,4.944,0,0,0,1.458-3.519V11.612A4.984,4.984,0,0,0,60.338,6.921Zm-39.563,18.8a1.659,1.659,0,0,1,0-2.346L40.349,3.8a1.649,1.649,0,0,1,1.173-.486h13.84a1.661,1.661,0,0,1,1.659,1.659V6.635H44.84a4.943,4.943,0,0,0-3.519,1.458L22.233,27.181Zm39.077.9L40.279,46.2a1.661,1.661,0,0,1-2.346,0l-13.84-13.84a1.659,1.659,0,0,1,0-2.346L43.667,10.439a1.649,1.649,0,0,1,1.173-.486H58.68a1.661,1.661,0,0,1,1.659,1.659v13.84h0A1.649,1.649,0,0,1,59.853,26.625Z" transform="translate(-16.972)" fill="#275471"/>
          </g>
        </g>
        <g id="Group_826" data-name="Group 826" transform="translate(31.061 13.462)">
          <g id="Group_825" data-name="Group 825">
            <path id="Path_982" data-name="Path 982" d="M329.852,135.891a4.687,4.687,0,1,0,4.687,4.687A4.692,4.692,0,0,0,329.852,135.891Zm0,6.249a1.562,1.562,0,1,1,1.562-1.562A1.564,1.564,0,0,1,329.852,142.14Z" transform="translate(-325.165 -135.891)" fill="#275471"/>
          </g>
        </g>
      </g>
    </g>
  </g>
</svg>
