<svg xmlns="http://www.w3.org/2000/svg" width="33.17" height="25" viewBox="0 0 33.17 25">
  <g id="icon_twi" transform="translate(0 -60.058)">
    <g id="Group_912" data-name="Group 912" transform="translate(0 60.058)">
      <path id="Path_1032" data-name="Path 1032" d="M32.509,65.764c-.582-.288-1.167-.569-1.74-.872a18.811,18.811,0,0,0,1.155-2.145.866.866,0,0,0-.3-1.16.9.9,0,0,0-.978.076,26.107,26.107,0,0,0-2.841,1.1,6.172,6.172,0,0,0-.837-.959C22.6,57.741,15.5,61.467,13.578,65.893c-3.761-.168-6.935-2.083-9.536-4.434a.86.86,0,0,0-.355-.2.778.778,0,0,0-1.158.457,7.321,7.321,0,0,0,1.981,6.768c-.357-.011-.714-.026-1.071-.048a.886.886,0,0,0-.4.06c-.582-.118-1.281.27-1.025.911a7.442,7.442,0,0,0,3.579,3.942c-.177,0-.354,0-.534-.007a.945.945,0,0,0-.294.035c-.533.087-.988.588-.615,1.118a10.19,10.19,0,0,0,4.7,3.629,5.656,5.656,0,0,1-4.563,1.427,1.06,1.06,0,0,0-.2,0,.883.883,0,0,0-.4.1.727.727,0,0,0-.307,1.049c.034.044.072.085.108.127a21.729,21.729,0,0,1-2.2-.33c-.793-.392-1.779.58-1.025,1.2a16.961,16.961,0,0,0,4.992,2.8.82.82,0,0,0,.477.04c10.283,2.511,19.522-4.651,22.5-13.167a14.394,14.394,0,0,0,.632-2.508c1.258-.429,2.494-.917,3.728-1.411C33.478,67.112,33.256,65.817,32.509,65.764Zm-6.492,6.679c-3.162,7.248-11.438,12.927-20.3,10.51a.965.965,0,0,0-.279-.033q-.567-.221-1.107-.482,1.086.063,2.184.028a.768.768,0,0,0,.279-1.5.585.585,0,0,0-.059-.033,6.538,6.538,0,0,0,4.193-2.756.7.7,0,0,0-.393-1.058.923.923,0,0,0-.289-.145,8.779,8.779,0,0,1-3.67-2.135,17.809,17.809,0,0,0,2.986-.526A.767.767,0,0,0,9.3,72.8a.989.989,0,0,0-.305-.073A6.08,6.08,0,0,1,4.184,70.01c.861.035,1.723.039,2.586.039A.764.764,0,0,0,7.1,68.572a6.45,6.45,0,0,1-3.044-5,16.2,16.2,0,0,0,9.981,3.866.853.853,0,0,0,.537-.166.753.753,0,0,0,.458-.474A7.747,7.747,0,0,1,23.1,61.73a4.761,4.761,0,0,1,3.373,2C28.19,66.288,27.135,69.882,26.017,72.444Zm2.772-7.466a7.046,7.046,0,0,0-.214-.716c.266-.118.534-.231.8-.341q-.214.347-.445.684A.794.794,0,0,0,28.789,64.978Zm.231,2.05a9.348,9.348,0,0,0-.089-1.281.865.865,0,0,0,.221.188c.375.221.759.424,1.146.621Q29.662,66.8,29.02,67.028Z" transform="translate(0 -60.058)" fill="#fff"/>
      <path id="Path_1033" data-name="Path 1033" d="M298.512,121.994a.672.672,0,0,0,0,1.342A.672.672,0,0,0,298.512,121.994Z" transform="translate(-277.338 -117.704)" fill="#fff"/>
    </g>
  </g>
</svg>
