<svg xmlns="http://www.w3.org/2000/svg" xmlns:xlink="http://www.w3.org/1999/xlink" width="110" height="110" viewBox="0 0 110 110">
  <defs>
    <filter id="Ellipse_58" x="0" y="0" width="110" height="110" filterUnits="userSpaceOnUse">
      <feOffset dx="10" dy="10" input="SourceAlpha"/>
      <feGaussianBlur stdDeviation="10" result="blur"/>
      <feFlood flood-opacity="0.161"/>
      <feComposite operator="in" in2="blur"/>
      <feComposite in="SourceGraphic"/>
    </filter>
  </defs>
  <g id="icon_yeu_thich" transform="translate(18351 -1647)">
    <g transform="matrix(1, 0, 0, 1, -18351, 1647)" filter="url(#Ellipse_58)">
      <g id="Ellipse_58-2" data-name="Ellipse 58" transform="translate(20 20)" fill="#fff" stroke="#eee" stroke-width="1">
        <circle cx="25" cy="25" r="25" stroke="none"/>
        <circle cx="25" cy="25" r="24.5" fill="none"/>
      </g>
    </g>
    <g id="icon_yeu_thich-2" data-name="icon_yeu_thich" transform="translate(-18317 1682.937)">
      <g id="Group_848" data-name="Group 848" transform="translate(0 0)">
        <path id="Path_992" data-name="Path 992" d="M16.295,13.188c-.177,0-.356.008-.533.024a6.387,6.387,0,0,0-4.693,3.121,7.505,7.505,0,0,0-5.956-3.4,5.586,5.586,0,0,0-1.444.189A4.893,4.893,0,0,0,.436,16.074a5.8,5.8,0,0,0,.3,5.045c1.184,2.008,3.214,3.233,5.177,4.418A26.68,26.68,0,0,1,8.862,27.5a8.932,8.932,0,0,1,.888.8,12.123,12.123,0,0,0-1.085,1.558A3.278,3.278,0,0,0,8.4,32.076a1.162,1.162,0,0,0,.614.688,1.1,1.1,0,0,0,.469.106,2.586,2.586,0,0,0,1.752-1.208,2.813,2.813,0,0,0,.339-3.148c.922-.834,1.926-1.61,2.9-2.361a28.429,28.429,0,0,0,4.772-4.3c.671-.82,2.747-3.7,1.28-6.391A4.66,4.66,0,0,0,16.295,13.188Zm-6,17.352a1.906,1.906,0,0,1-.427.582,3.1,3.1,0,0,1,.277-1c.027-.06.205-.335.334-.52A1.542,1.542,0,0,1,10.29,30.54ZM8.621,15.694a6.669,6.669,0,0,1,1.13,1.189c.038.052.1.149.165.262.392.654.814,1.292,1.271,1.292.226,0,.418-.159.57-.474a5.434,5.434,0,0,1,4.35-3.366c.107-.01.215-.014.322-.014A3.212,3.212,0,0,1,19.5,16.629c.572,1.614-.333,3.526-2.769,5.847a42.033,42.033,0,0,1-3.327,2.759c-.88.68-1.79,1.383-2.641,2.131A13.665,13.665,0,0,0,8.2,25.277c-.473-.314-.984-.621-1.525-.946-2.66-1.6-5.675-3.411-5.2-6.785a3.538,3.538,0,0,1,3.658-3.176c.143,0,.29.007.436.021A5.728,5.728,0,0,1,8.621,15.694Z" transform="translate(-0.001 -12.933)"/>
      </g>
    </g>
  </g>
</svg>
