<svg xmlns="http://www.w3.org/2000/svg" width="23.631" height="25.494" viewBox="0 0 23.631 25.494">
  <g id="icon_fb" transform="translate(19756.236 -6603.626)">
    <g id="facebook-letter-logo-in-a-square-hand-drawn-outline" transform="translate(-19756 6603.87)">
      <g id="Group_880" data-name="Group 880" transform="translate(0 0)">
        <path id="Path_1004" data-name="Path 1004" d="M40.208,1.054A.7.7,0,0,0,39.617.033c-6.524-.164-14.966.342-21.49.092A.609.609,0,0,0,17.655.3a.621.621,0,0,0-.4.605c0,7.759-.331,15.706.756,23.411a.533.533,0,0,0,.333.455.623.623,0,0,0,.511.231c1.25-.007,3.047-.085,4.3-.092a1.14,1.14,0,0,0,.869-.869V16.266a.751.751,0,0,0-.01-.1.608.608,0,0,0,.01-.086.7.7,0,0,0-.686-.686,17.22,17.22,0,0,0-1.8-.09c-.028-.162-.059-.6-.087-.759a8.865,8.865,0,0,1,1.705-.158.7.7,0,0,0,.211-.035.57.57,0,0,0,.658-.651,32.038,32.038,0,0,1-.094-6.358c.92-2.213,3.342-3,5.581-2.719V5.7c-4.017.149-4.788,4.091-3.908,7.543a.7.7,0,0,0,.1.22.636.636,0,0,0,.653.558h1.692v1.1a5.216,5.216,0,0,1-1.783.3c-.008,0-.014,0-.021.006a.587.587,0,0,0-.665.655c.171,1.948.273,5.821.366,7.774a.663.663,0,0,0,.485.625.69.69,0,0,0,.292.061c4.42,0,8.293.082,12.711-.092a.651.651,0,0,0,.544-.3.64.64,0,0,0,.325-.566c.172-7.5-.085-15-.091-22.5C40.212,1.074,40.209,1.065,40.208,1.054ZM38.939,23.1c-4.066.142-7.584.085-11.652.077-.076-1.9-.164-4.945-.289-6.492a6.135,6.135,0,0,0,2.082-.553A.634.634,0,0,0,29.4,15.6a.754.754,0,0,0,.016-.157v-2.1a.649.649,0,0,0-.691-.663.732.732,0,0,0-.178-.023h-1.68c-.618-2.661-.269-5.711,3.143-5.579a.6.6,0,0,0,.631-.446.626.626,0,0,0,.238-.515v-2.1a.649.649,0,0,0-.7-.663c-3.179-.538-6.349.579-7.6,3.681a.594.594,0,0,0-.032.39,32.16,32.16,0,0,0,.032,5.62,7.6,7.6,0,0,0-2.081.371.71.71,0,0,0-.493.762.849.849,0,0,0,.014.173c.1.517.188,1.31.274,1.829a.676.676,0,0,0,.715.5c.013,0,.024,0,.038,0,.443,0,1.159,0,1.6.03v6.838c-.937.017-2.422.059-3.359.075-.986-7.271-.686-14.783-.666-22.108,6.2.2,14.113-.227,20.214-.121C38.854,8.626,39.088,15.861,38.939,23.1Z" transform="translate(-17.209 0)" fill="#fff" stroke="#fff" stroke-width="0.5"/>
      </g>
    </g>
  </g>
</svg>
