<svg xmlns="http://www.w3.org/2000/svg" width="244.506" height="93.692" viewBox="0 0 244.506 93.692">
  <g id="Logo_am_ban" transform="translate(0 -0.446)">
    <path id="Path_1046" data-name="Path 1046" d="M361.471,71.125c1.056,0,1.542.339,1.542,1.4V77.35c0,1.021-.49,1.4-1.542,1.4h-8.718l.039,2.224h7.357c1.056,0,1.542.343,1.542,1.4V87.2c0,1.056-.493,1.4-1.542,1.4h-7.207l.077,2.644h7.245c1.056,0,1.542.385,1.542,1.4v4.8c0,1.056-.489,1.434-1.542,1.434H346.487c-1.318,0-1.657-.489-1.7-2l-.339-23.775c-.039-1.472.412-1.962,1.734-1.962h15.285m0-.385H346.187a2.13,2.13,0,0,0-1.622.513,2.491,2.491,0,0,0-.5,1.842l.339,23.771c.039,1.511.385,2.382,2.081,2.382h13.778c1.318,0,1.927-.578,1.927-1.819v-4.8c0-1.2-.632-1.781-1.927-1.781h-6.872l-.054-1.873h6.81c.829,0,1.927-.181,1.927-1.781V82.371c0-1.6-1.106-1.784-1.927-1.784H353.17l-.023-1.453h8.325c1.3,0,1.927-.586,1.927-1.784V72.521c0-1.6-1.1-1.781-1.927-1.781Z" transform="translate(-211.464 -43.203)" fill="#fff"/>
    <path id="Path_1047" data-name="Path 1047" d="M357.705,68.81H342.421c-1.322,0-1.773.489-1.734,1.962l.339,23.775c.039,1.511.385,2,1.7,2H356.5c1.056,0,1.542-.385,1.542-1.434v-4.79c0-1.021-.489-1.4-1.542-1.4h-7.245l-.077-2.64h7.207c1.056,0,1.542-.339,1.542-1.4V80.06c0-1.056-.493-1.4-1.542-1.4h-7.357l-.038-2.228h8.718c1.056,0,1.542-.385,1.542-1.4V70.205C359.251,69.149,358.761,68.81,357.705,68.81ZM355.96,89.695A1.033,1.033,0,0,1,357,90.731v4.131s-.428-2.424-.728-3.573a2.559,2.559,0,0,0-1.4-1.6Zm.069-10.244a.863.863,0,0,1,.871.856v4.17l-.212-1.5a4.381,4.381,0,0,0-.933-2.139,4.52,4.52,0,0,0-1.927-1.384Zm1.927-4.625-.193-1.434a4.178,4.178,0,0,0-2.613-3.3h2a.8.8,0,0,1,.806.805Z" transform="translate(-209.386 -42.017)" fill="#fff"/>
    <path id="Path_1048" data-name="Path 1048" d="M409.692,71.125c1.206,0,1.623.451,2.039,1.7l7.812,23.324c.339,1.056.039,1.434-.832,1.7l-4.679,1.36a1.632,1.632,0,0,1-.412.058c-.5,0-.848-.3-1.06-.925L411.4,94.561h-8.937l-1.133,3.773c-.208.628-.563.925-1.06.925a1.632,1.632,0,0,1-.412-.058l-4.679-1.36c-.867-.262-1.156-.64-.833-1.7l7.812-23.324c.416-1.245.832-1.7,2.039-1.7h5.492m-5.01,16.187h4.528L406.917,79.8l-2.262,7.507m5.01-16.572h-5.473c-1.468,0-1.977.69-2.4,1.962l-7.812,23.32a1.827,1.827,0,0,0-.019,1.438,1.727,1.727,0,0,0,1.1.771l4.683,1.36a2.034,2.034,0,0,0,.52.073,1.467,1.467,0,0,0,1.426-1.191l1.052-3.507h8.336l1.087,3.5a1.468,1.468,0,0,0,1.426,1.2,2.065,2.065,0,0,0,.513-.069L418.8,98.2a1.761,1.761,0,0,0,1.11-.771A1.834,1.834,0,0,0,419.889,96l-7.812-23.3c-.424-1.272-.933-1.962-2.4-1.962Zm-4.5,16.187,1.746-5.781,1.746,5.781Z" transform="translate(-242.045 -43.203)" fill="#fff"/>
    <path id="Path_1049" data-name="Path 1049" d="M415.77,93.83l-7.812-23.32c-.416-1.245-.832-1.7-2.039-1.7h-5.473c-1.206,0-1.622.455-2.039,1.7L390.6,93.83c-.343,1.056-.039,1.434.829,1.7l4.679,1.357a1.105,1.105,0,0,0,1.472-.867l1.133-3.773h8.914l1.156,3.773a1.11,1.11,0,0,0,1.472.867l4.694-1.357C415.809,95.263,416.105,94.886,415.77,93.83ZM400.9,85l2.262-7.511L405.43,85Zm5.207-12.8c-.678-1.865-3.97-2.266-3.97-2.266h2.282a2.4,2.4,0,0,1,2.274,1.626l7.515,22.114C413.9,92.855,406.64,73.654,406.108,72.2Z" transform="translate(-239.98 -42.017)" fill="#fff"/>
    <path id="Path_1050" data-name="Path 1050" d="M471.451,71.125c1.056,0,1.542.339,1.542,1.4V77.35c0,1.06-.489,1.4-1.542,1.4h-6.166l.227,18.414c0,1.322-.339,1.7-1.434,1.7h-5.434c-1.056,0-1.434-.385-1.434-1.7l-.227-18.414h-5.9c-1.056,0-1.542-.339-1.542-1.4V72.521c0-1.056.493-1.4,1.542-1.4h20.364m0-.385H451.087c-.829,0-1.927.185-1.927,1.781V77.35c0,1.6,1.106,1.784,1.927,1.784h5.542l.224,18.033c0,1.5.509,2.081,1.819,2.081h5.434c1.515,0,1.819-.8,1.819-2.085l-.22-18.029h5.781c.829,0,1.927-.185,1.927-1.784V72.521c0-1.6-1.1-1.781-1.927-1.781Z" transform="translate(-276.056 -43.203)" fill="#fff"/>
    <path id="Path_1051" data-name="Path 1051" d="M467.7,68.81h-20.38c-1.056,0-1.542.339-1.542,1.4V75.05c0,1.056.493,1.4,1.542,1.4h5.924l.227,18.418c0,1.318.385,1.7,1.434,1.7h5.434c1.094,0,1.434-.385,1.434-1.7l-.227-18.418h6.166c1.056,0,1.542-.339,1.542-1.4V70.205C469.247,69.149,468.757,68.81,467.7,68.81Zm-6.756,26.045a.281.281,0,0,1-.563,0V76.591a.281.281,0,0,1,.563,0Zm6.887-20.723a18.566,18.566,0,0,0-.466-3.176c-.331-1.114-3.149-1.156-3.149-1.156h2.844a.771.771,0,0,1,.771.771Z" transform="translate(-273.979 -42.017)" fill="#fff"/>
    <path id="Path_1052" data-name="Path 1052" d="M534.772,70.145a1.774,1.774,0,0,1,.717.15l5.245,2.073c.906.416,1.094,1.095.49,1.966l-7.812,10.641a3.793,3.793,0,0,0-.906,2.567V96.26c0,1.511-.412,2-1.734,2h-5.056c-1.322,0-1.7-.489-1.7-2l-.112-8.718A3.792,3.792,0,0,0,523,84.975l-7.812-10.641c-.6-.871-.416-1.542.489-1.966l5.245-2.073a1.775,1.775,0,0,1,.717-.15c.567,0,.944.385,1.4,1.017l5.137,7.434,5.2-7.434c.455-.64.832-1.017,1.4-1.017m0-.385a2.154,2.154,0,0,0-1.711,1.179l-4.891,6.983-4.817-6.979a1.912,1.912,0,0,0-2.582-1l-5.238,2.07h0a1.677,1.677,0,0,0-1.017,1.044,1.769,1.769,0,0,0,.385,1.488l7.816,10.648a3.441,3.441,0,0,1,.832,2.339l.112,8.721c0,1.468.347,2.382,2.085,2.382H530.8c1.761,0,2.12-.956,2.12-2.386V87.542a3.441,3.441,0,0,1,.836-2.343l7.808-10.637a1.78,1.78,0,0,0,.385-1.5,1.676,1.676,0,0,0-1.064-1.044h0l-5.245-2.073a2.146,2.146,0,0,0-.859-.177Z" transform="translate(-316.204 -42.601)" fill="#fff"/>
    <path id="Path_1053" data-name="Path 1053" d="M536.919,70.058l-5.245-2.077a1.773,1.773,0,0,0-.717-.15c-.567,0-.944.385-1.4,1.017l-5.207,7.438-5.133-7.438c-.451-.64-.829-1.017-1.4-1.017a1.773,1.773,0,0,0-.717.15l-5.245,2.077c-.906.416-1.095,1.095-.489,1.962l7.812,10.641a3.791,3.791,0,0,1,.906,2.567l.112,8.718c0,1.511.385,2,1.7,2h5.056c1.322,0,1.734-.489,1.734-2V85.238a3.792,3.792,0,0,1,.906-2.567l7.812-10.652C538.014,71.152,537.825,70.474,536.919,70.058Zm-1.129,2.235-7.554,10.352a2.884,2.884,0,0,0-.551,1.7l.023,9.612c-.1-3.715-.744-10.86-.093-11.747s7.141-10.105,7.242-10.583c.077-.385-.7-1.121-1.068-1.453a.035.035,0,0,1,.039-.058l1.607.771a.948.948,0,0,1,.355,1.411Z" transform="translate(-314.076 -41.414)" fill="#fff"/>
    <path id="Path_1054" data-name="Path 1054" d="M287.682,71.125c1.156,0,1.777.3,1.927,1.811l2.655,24c.116.871.039,1.21-.717,1.322l-5.7.832a3.472,3.472,0,0,1-.4.031c-.528,0-.674-.224-.771-.748L283.4,87.127l-2.64,10.529c-.266.867-.605,1.206-1.472,1.206h-4.17c-.871,0-1.21-.339-1.472-1.206l-2.678-10.529-1.249,11.246c-.093.524-.235.748-.771.748a3.354,3.354,0,0,1-.385-.031l-5.7-.832c-.771-.112-.829-.451-.717-1.322l2.644-24c.15-1.511.771-1.811,1.927-1.811h4.968c1.094,0,1.357.189,1.773,1.4l3.734,12.229,3.738-12.229c.412-1.206.678-1.4,1.773-1.4h4.979m0-.385H282.7c-1.276,0-1.677.308-2.139,1.653l-3.372,11.034-3.365-11.018c-.47-1.36-.867-1.669-2.143-1.669H266.7c-1.256,0-2.127.385-2.312,2.158l-2.64,24c-.108.817-.108,1.569,1.041,1.742l5.7.832a3.636,3.636,0,0,0,.459.035c.84,0,1.048-.513,1.156-1.068v-.023l1.01-9.138,2.158,8.479a1.732,1.732,0,0,0,1.846,1.5h4.151a1.728,1.728,0,0,0,1.842-1.48l2.127-8.479,1.044,9.138v.023c.1.555.3,1.068,1.156,1.068a3.576,3.576,0,0,0,.455-.035l5.7-.832c1.156-.173,1.156-.925,1.044-1.75L289.99,72.894c-.177-1.788-1.052-2.154-2.312-2.154Z" transform="translate(-160.845 -43.203)" fill="#fff"/>
    <path id="Path_1055" data-name="Path 1055" d="M288.482,94.624l-2.64-24c-.15-1.511-.771-1.811-1.927-1.811h-4.979c-1.095,0-1.36.189-1.773,1.4l-3.738,12.229L269.69,70.205c-.416-1.206-.678-1.4-1.773-1.4h-4.983c-1.156,0-1.773.3-1.927,1.811l-2.644,24c-.112.867-.039,1.206.717,1.322l5.7.829c.867.112,1.056-.077,1.156-.717l1.249-11.246,2.679,10.529c.262.867.6,1.206,1.472,1.206H275.5c.867,0,1.206-.339,1.472-1.206l2.64-10.529L280.9,96.057c.116.64.3.829,1.156.717l5.7-.829C288.521,95.83,288.6,95.475,288.482,94.624Zm-21.2-23.008a3.7,3.7,0,0,0-2.22-1.788h1.8a1.438,1.438,0,0,1,1.357.983l4.035,11.878c-.536-1.172-4.386-9.789-4.983-11.072ZM285.811,85.1c-.856-4.887-1.754-9.951-1.927-10.641-.351-1.38-.829-3.781-2.671-4.367H283.3a.879.879,0,0,1,.875.771l3.3,23.8c-.112-.551-.879-4.972-1.68-9.569Z" transform="translate(-158.766 -42.017)" fill="#fff"/>
    <path id="Path_1056" data-name="Path 1056" d="M273.938,163.624a1.762,1.762,0,0,0-1.461-.686,2.37,2.37,0,0,0-1.087.285,5.627,5.627,0,0,1-2.937,1,4.667,4.667,0,0,1-2.532-.848,6.591,6.591,0,0,1-1.156-3.935,6.813,6.813,0,0,1,.956-3.877,5.262,5.262,0,0,1,2.948-1.6,14.169,14.169,0,0,0,2.386-.79,2.189,2.189,0,0,0,1.133-2.012,2.917,2.917,0,0,0-.7-1.973,3.083,3.083,0,0,0-1.861-1.021c-1.542.1-2.443.177-2.744.239a8.9,8.9,0,0,0-3.515,1.6,14.448,14.448,0,0,0-4.667,5.735,9.314,9.314,0,0,0-.385,2.937,21.8,21.8,0,0,0,.435,4.239,9.086,9.086,0,0,0,1.518,3.873,8.04,8.04,0,0,0,2.012,1.865c.15.077,1.118.466,2.906,1.156a13.369,13.369,0,0,0,3,.493,6.937,6.937,0,0,0,2.74-.582,6.508,6.508,0,0,0,2.667-1.734,5.4,5.4,0,0,0,.805-2.752A2.228,2.228,0,0,0,273.938,163.624Zm-2.232-12.664a5.361,5.361,0,0,0-4.5-2S270.781,148.17,271.706,150.96ZM270.4,164.291s2.941-1.95,3.634.987a3.06,3.06,0,0,0-3.634-.987Z" transform="translate(-158.759 -90.792)" fill="#fff"/>
    <path id="Path_1057" data-name="Path 1057" d="M317.79,157.441a13.826,13.826,0,0,0-3.083-.385,8.393,8.393,0,0,0-2.154.385,9.327,9.327,0,0,1-1.63.385c-.351,0-.524-.482-.524-1.445a23.007,23.007,0,0,1,.32-3.122,22.585,22.585,0,0,0,.324-3.122,2.382,2.382,0,0,0-.3-1.418c0-.277-.409-.513-1.222-.7a7.736,7.736,0,0,0-1.6-.208q-2.07,0-2.278,1.341a37.6,37.6,0,0,0-.316,5.588q0,4.922.7,14.387.281.963,2.594.967,2.2,0,2.416-.967a3.082,3.082,0,0,0,.25-1.449c0-.385-.031-.9-.1-1.6s-.1-1.237-.1-1.6c0-.975.212-1.511.64-1.611a5.865,5.865,0,0,1,2.073-.52q1.6,0,1.6,2.251c0,.328-.027.821-.077,1.484s-.073,1.156-.073,1.48a2.867,2.867,0,0,0,.528,2.016,3.033,3.033,0,0,0,2.1.52c1.156,0,1.842-.235,2.039-.7q.644-1.133.644-4.918Q320.565,158.485,317.79,157.441ZM310,153.471c.023-.447.185-3.854-.385-4.116-.459-.208-1.877-.709-1.877-.709s2.436-.073,2.582.9A21.475,21.475,0,0,1,310,153.471Zm9.635,15.632a23.7,23.7,0,0,0,.1-4.3c-.15-4-1.626-5.862-2.968-6.791l.385.089q2.767,1.041,2.771,7.018a19.27,19.27,0,0,1-.281,3.985Z" transform="translate(-187.654 -90.57)" fill="#fff"/>
    <path id="Path_1058" data-name="Path 1058" d="M365.524,165.863q-.771-4.918-3.025-7.111-2.416-2.312-7.226-2.312a6.341,6.341,0,0,0-3.384,3.515,31.781,31.781,0,0,0-1.6,4.844,22.845,22.845,0,0,0-.181,2.655,9.457,9.457,0,0,0,.686,3.854,11.068,11.068,0,0,0,2.37,3.2,9.831,9.831,0,0,0,4.22.879,18.263,18.263,0,0,0,4.948-.821,7.159,7.159,0,0,0,2.74-3.4A17.945,17.945,0,0,0,365.524,165.863Zm-7.943,2.5q-2.37,0-2.282-1.8a6.092,6.092,0,0,1,.493-1.892q.547-1.4,1.087-1.43a3.939,3.939,0,0,1,2.058.447,1.856,1.856,0,0,1,1.118,1.653Q360.055,168.368,357.581,168.364Zm-.285-10.91s5.584-.27,6.833,5.966A9.107,9.107,0,0,0,357.3,157.454Z" transform="translate(-215.178 -95.875)" fill="#fff"/>
    <path id="Path_1059" data-name="Path 1059" d="M409.013,149.1a5.125,5.125,0,0,0-2.651-1.372,14.583,14.583,0,0,0-3.854-.493,13.594,13.594,0,0,0-3.384.385q-2.266.532-2.771,1.7-.983,2.181-.983,8.556,0,3.788.274,6.895a17.111,17.111,0,0,0,.574,3.75q.436,1.191,2.786,1.191,2.447,0,2.744-1.118a1.342,1.342,0,0,0,.058-.432,18.228,18.228,0,0,0-.439-3.257,18.307,18.307,0,0,1-.439-3.272,4.309,4.309,0,0,1,.52-2.355.485.485,0,0,1,.42-.208,8.338,8.338,0,0,1,1.488.513,6.165,6.165,0,0,0,2.177.513,6.845,6.845,0,0,0,3.384-1,6.093,6.093,0,0,0,2.012-4.767A7.889,7.889,0,0,0,409.013,149.1Zm-3.711,5.3a1.488,1.488,0,0,1-1.6,1.218,8.712,8.712,0,0,1-1.156-.119c-.817-.116-1.222-.717-1.222-1.8A1.279,1.279,0,0,1,402,152.58a1.873,1.873,0,0,1,1.353-.308c1.364.239,2.042.748,2.042,1.522A2.458,2.458,0,0,1,405.3,154.407Zm-2.752-6.232s6.552-1.26,7.461,4.571A7.862,7.862,0,0,0,402.55,148.175Z" transform="translate(-242.997 -90.219)" fill="#fff"/>
    <path id="Path_1060" data-name="Path 1060" d="M453.374,166.61a6.765,6.765,0,0,0-3.114-1.542q-3.931-.983-4.039-2.235a1.083,1.083,0,0,1,.52-1.056,2.251,2.251,0,0,1,1.226-.312,6.482,6.482,0,0,1,2.844.817,1.291,1.291,0,0,0,.644.166,2.675,2.675,0,0,0,1.75-.771,2.177,2.177,0,0,0,.871-1.619,1.09,1.09,0,0,0-.224-.671,10.22,10.22,0,0,0-2.312-2.147,8.35,8.35,0,0,0-4.039-.821,9.588,9.588,0,0,0-5.681,1.835,6.043,6.043,0,0,0-2.833,5.037,4.239,4.239,0,0,0,1.195,2.968,5.179,5.179,0,0,0,3.264,1.638q2.906.4,2.906,1.341a1.206,1.206,0,0,1-.073.385,1.927,1.927,0,0,1-1.283.493,5.8,5.8,0,0,1-2.251-.771,5.9,5.9,0,0,0-2.2-.771,2,2,0,0,0-2.012,1.657,9.1,9.1,0,0,0-.181,2.22,7.041,7.041,0,0,0,3.638,2.293,14.646,14.646,0,0,0,4.316.628,13.91,13.91,0,0,0,4.625-.671,4.787,4.787,0,0,0,3.565-4.86A4.574,4.574,0,0,0,453.374,166.61Zm-.135-6.679c.085.987-.385,1.306-.443,1.337,0-.077.293-1.041.065-1.484a15.707,15.707,0,0,0-2.436-2.362C450.588,157.51,453.151,158.913,453.239,159.931Zm-5.989,5.222s5.742.22,6.7,3.815C453.871,168.81,452.565,166.251,447.25,165.153Z" transform="translate(-269.406 -95.862)" fill="#fff"/>
    <path id="Path_1061" data-name="Path 1061" d="M497.22,157.441a13.826,13.826,0,0,0-3.083-.385,8.393,8.393,0,0,0-2.154.385,9.327,9.327,0,0,1-1.63.385c-.351,0-.524-.482-.524-1.445a22.978,22.978,0,0,1,.32-3.122,22.585,22.585,0,0,0,.324-3.122,2.381,2.381,0,0,0-.3-1.418c0-.277-.409-.513-1.222-.7a7.736,7.736,0,0,0-1.6-.208q-2.07,0-2.278,1.341a37.6,37.6,0,0,0-.316,5.588q0,4.922.7,14.387.285.963,2.594.967,2.2,0,2.416-.967a3.084,3.084,0,0,0,.251-1.449c0-.385-.031-.9-.1-1.6s-.1-1.237-.1-1.6c0-.975.212-1.511.64-1.611a5.864,5.864,0,0,1,2.073-.52q1.6,0,1.6,2.251c0,.328-.027.821-.077,1.484s-.073,1.156-.073,1.48a2.867,2.867,0,0,0,.528,2.016,3.033,3.033,0,0,0,2.1.52c1.156,0,1.842-.235,2.039-.7q.644-1.133.644-4.918Q499.995,158.485,497.22,157.441Zm-9.812-9.172a2.467,2.467,0,0,1,2.52,2.7A3.357,3.357,0,0,0,487.408,148.269Zm5.214,9.673s5.141-.994,6.351,2.582a7.343,7.343,0,0,0-6.351-2.586Z" transform="translate(-297.932 -90.57)" fill="#fff"/>
    <path id="Path_1062" data-name="Path 1062" d="M544.294,165.863q-.771-4.918-3.025-7.111-2.416-2.312-7.23-2.312a6.348,6.348,0,0,0-3.38,3.515,31.775,31.775,0,0,0-1.6,4.844,22.858,22.858,0,0,0-.181,2.655,9.461,9.461,0,0,0,.686,3.854,11.072,11.072,0,0,0,2.37,3.2,9.832,9.832,0,0,0,4.2.894,18.266,18.266,0,0,0,4.948-.821,7.3,7.3,0,0,0,2.74-3.4A18.53,18.53,0,0,0,544.294,165.863Zm-7.943,2.5q-2.37,0-2.281-1.8a6.09,6.09,0,0,1,.493-1.892q.551-1.4,1.087-1.43a3.939,3.939,0,0,1,2.058.447,1.848,1.848,0,0,1,1.118,1.653Q538.825,168.368,536.351,168.364Zm-1.156-10.957s5.349-.123,7.357,4.151c-.189-.351-1.958-3.172-7.346-4.131Z" transform="translate(-325.051 -95.875)" fill="#fff"/>
    <path id="Path_1063" data-name="Path 1063" d="M592.225,88.435a12.615,12.615,0,0,0-4.8-2.085c-.385-.089-.8-.173-1.206-.254s-.805-.162-1.21-.235l-1.21-.231-.359-.069-.848-.17a15.03,15.03,0,0,1-4.505-1.507c-.146-.081-.289-.17-.432-.262a6.144,6.144,0,0,1-.5-.358,4.016,4.016,0,0,1-.447-.385c-.077-.077-.154-.154-.224-.235l-.139-.162c-.069-.081-.131-.166-.193-.25a4.012,4.012,0,0,1-.289-.474,4.675,4.675,0,0,1-.22-.513,3.414,3.414,0,0,1-.1-.339,3.471,3.471,0,0,1-.073-.351,2.31,2.31,0,0,1-.035-.285v-.135a4.566,4.566,0,0,1,0-.609l.023-.308a3.708,3.708,0,0,1,.085-.613,1.374,1.374,0,0,1,.058-.3q.062-.308.15-.6c.054-.2.12-.385.189-.59s.154-.385.243-.586a2.3,2.3,0,0,1,.108-.22,8.144,8.144,0,0,1,.725-1.195,13.41,13.41,0,0,1,1.95-2.1,1.884,1.884,0,0,1,1.121-.385,2.4,2.4,0,0,0,.559-.042h0a2.374,2.374,0,0,0,.408-.062c.131-.023.235-.046.347-.077h.027c.127-.031.254-.069.385-.108.25-.085.489-.181.725-.285.115-.054.231-.112.343-.173q.341-.176.663-.385a12.35,12.35,0,0,0,1.542-1.222l.432-.409c.143-.135.285-.277.428-.42l-.274.089-.428.139c.116-.127.227-.254.331-.385s.208-.262.3-.385a7.385,7.385,0,0,0,.925-1.746c.058-.158.112-.316.158-.478s.093-.331.131-.5l-.64.2h0l.208-.609c.139-.385.278-.809.409-1.214.062-.2.123-.4.181-.609a5.908,5.908,0,0,0,.143-.6c.039-.216.05-.308.069-.47a6.164,6.164,0,0,0,.027-.848v-.185l-.023-.274a1.55,1.55,0,0,0-.031-.224h0a8.236,8.236,0,0,1-3.122,3.083c-.069-.212-.123-.385-.208-.647-.524.474-1.037.871-1.468,1.345a17.347,17.347,0,0,0-1.156,1.542c-.023-.1-.05-.2-.085-.335a9.25,9.25,0,0,0-2.659,4.852,2.4,2.4,0,0,1-.879,1.422,12.024,12.024,0,0,0-3.542,4.428,6.859,6.859,0,0,0,2.54,8.918,15.629,15.629,0,0,0,4.347,2.023c1.792.547,3.6,1.029,5.4,1.6a8.564,8.564,0,0,1,3.469,1.888,4.1,4.1,0,0,1,1.426,3.761,5.157,5.157,0,0,1-1.349,2.7,11.96,11.96,0,0,1-1.222,1.156,8.018,8.018,0,0,0-1.5-2.636,5.1,5.1,0,0,0-2.644-1.368,14.5,14.5,0,0,0-3.835-.489,13.523,13.523,0,0,0-3.372.385c-1.5.355-2.424.921-2.763,1.692q-1.044,2.131-1.044,8.494,0,3.777.274,6.872a16.893,16.893,0,0,0,.574,3.734q.428,1.191,2.775,1.191c1.626,0,2.536-.385,2.736-1.114a1.339,1.339,0,0,0,.058-.432,18.127,18.127,0,0,0-.439-3.245,18.464,18.464,0,0,1-.436-3.264,4.306,4.306,0,0,1,.52-2.347.474.474,0,0,1,.416-.208,8.745,8.745,0,0,1,1.484.513,5.007,5.007,0,0,0,5.253-.52l.023-.023v.023a15.868,15.868,0,0,0,3.684-2.493,17.344,17.344,0,0,0,3.125-3.272c.069-.1.135-.2.2-.3s.185-.281.27-.428l.038-.066c.089-.146.17-.3.251-.447A8.28,8.28,0,0,0,592.225,88.435Zm-8.571,13.234a1.48,1.48,0,0,1-1.588,1.218,8.716,8.716,0,0,1-1.156-.119q-1.218-.181-1.218-1.8a1.279,1.279,0,0,1,.667-1.122,1.85,1.85,0,0,1,1.353-.3q2.035.351,2.035,1.515A2.471,2.471,0,0,1,583.653,101.669Zm-2.864-6.432s5.669-.582,7.2,3.291c-.112-.189-1.962-3.025-7.2-3.3Z" transform="translate(-352.54 -37.419)" fill="#fff"/>
    <path id="Path_1064" data-name="Path 1064" d="M605.564,82.274h0l0,0Z" transform="translate(-372.18 -50.289)" fill="#fff"/>
    <path id="Path_1065" data-name="Path 1065" d="M597.64,88q.341-.176.663-.385A6.827,6.827,0,0,1,597.64,88Z" transform="translate(-367.313 -53.571)" fill="#fff"/>
    <path id="Path_1066" data-name="Path 1066" d="M608.641,67.041a5.458,5.458,0,0,0,.143-.6c-.035.2-.085.385-.139.605s-.12.385-.185.605C608.522,67.427,608.583,67.23,608.641,67.041Z" transform="translate(-373.963 -40.56)" fill="#fff"/>
    <path id="Path_1067" data-name="Path 1067" d="M609.421,61.434a1.542,1.542,0,0,0-.031-.224h0A2.2,2.2,0,0,1,609.421,61.434Z" transform="translate(-374.534 -37.346)" fill="#fff"/>
    <path id="Path_1068" data-name="Path 1068" d="M582.1,117.625a4.043,4.043,0,0,1-.447-.385C581.785,117.367,581.939,117.5,582.1,117.625Z" transform="translate(-357.485 -71.782)" fill="#fff"/>
    <path id="Path_1069" data-name="Path 1069" d="M606.86,73.3l.208-.609c-.07.2-.139.385-.2.609Z" transform="translate(-372.979 -44.401)" fill="#fff"/>
    <path id="Path_1070" data-name="Path 1070" d="M608.325,73.76c-.039.17-.085.339-.135.5.05-.166.093-.331.131-.5Z" transform="translate(-373.797 -45.059)" fill="#fff"/>
    <path id="Path_1071" data-name="Path 1071" d="M14.552,63.276a.231.231,0,0,0-.262-.312A19.867,19.867,0,0,1,3.164,61.422a2.22,2.22,0,0,0-1.823.031l-.085.039-.131.073-.116.073L.9,61.715c-.066.05-.127.1-.189.158h0l-.069.046c-.046.046-.089.1-.131.146a.8.8,0,0,1-.054.066,2.106,2.106,0,0,0-.15.227.386.386,0,0,0-.031.054,2.158,2.158,0,0,0-.1.212s-.019.066-.027.066a2.054,2.054,0,0,0-.085.274s0,.023,0,.035a1.954,1.954,0,0,0-.042.262s0,.042,0,.062a2.054,2.054,0,0,0,0,.308H0a2.193,2.193,0,0,0,.05.312V64a2.6,2.6,0,0,0,.1.324,19.8,19.8,0,0,0,2.162,3.993,18.28,18.28,0,0,0,2.147,2.52l.119.119.042.039a18.364,18.364,0,0,0,6.112,3.827,23.448,23.448,0,0,0,5.068,1.31h.285l.158-.019h.089a.875.875,0,0,0,.131-.042l.073-.031a.686.686,0,0,0,.1-.066.266.266,0,0,0,.05-.042.443.443,0,0,0,.081-.089A.127.127,0,0,0,16.8,75.8a.925.925,0,0,0,.135-.486h0C16.957,73.1,12.834,67.187,14.552,63.276Z" transform="translate(0 -37.365)" fill="#fff"/>
    <path id="Path_1072" data-name="Path 1072" d="M115.79,77.162c-.181-.177-.355-.362-.524-.551l-.162-.189c-.127-.15-.254-.3-.385-.451-.062-.077-.119-.154-.177-.235-.108-.143-.216-.285-.32-.432l-.181-.262c-.092-.143-.189-.285-.277-.432l-.173-.285c-.085-.143-.166-.285-.247-.428l-.17-.312c-.073-.139-.143-.281-.212-.42l-.162-.343-.181-.4c-.054-.127-.108-.251-.158-.385s-.1-.243-.143-.366-.112-.289-.166-.439l-.069-.216a25.889,25.889,0,0,1-1.183-5.527h0c-1.777-15.828,6.887-37.333-3.469-37.8-13.385-.594-59.709,13.685-59.709,13.685-3.654,1.989-3.23,4.925-2.193,9.373s7.9,20.522,7.357,34.782c-.705,19.27,20.1,24.218,45.927,25.32a21.43,21.43,0,0,0,15.959-5.623c7.777-7.322,9.041-20.1,1.056-28ZM56.354,68.468c-.771-2.228-11.292-21.582-3.126-24.06,0,0,40.466-12.918,53.435-12.051,5.739.728-4.27,25.1-1.488,36.177,1.037,4.725-5.01,1.885-13.851,1.819s-23.952,2.312-29.259,5.723C60.521,77.721,57.114,70.691,56.354,68.468Zm2.9,22.06A12.059,12.059,0,0,1,65.6,78.311c5.419-2.844,14.645-5.831,28.762-4.8a52.44,52.44,0,0,1,6.987.952l.462.1.385.092.47.112.2.05c.362.1.717.193,1.064.293l.3.085.443.139.32.1.416.143.312.108.385.15.3.116.385.154.289.119.366.158.277.127.355.166.258.127.343.173.239.131.339.181.17.1c.231.131.451.266.667.385l.2.131.274.185.227.158.254.185.224.166.235.185.216.173.22.189c.073.058.143.119.212.181l.2.185.2.193.189.185c.069.069.135.135.2.2s.119.119.173.181.135.146.2.224l.146.166.247.3a1.2,1.2,0,0,0,.089.108c.1.131.2.262.293.385.039.05.069.1.1.15l.185.262.108.17.158.247.1.181c.05.081.1.162.143.243s.066.123.1.181l.131.25c.031.058.062.119.089.181s.085.17.123.254l.081.177c.039.089.077.177.112.266s.05.112.073.17l.112.289c.019.05.039.1.054.15.046.123.089.247.127.385,0,.027.019.05.027.077.046.146.092.3.135.447a.641.641,0,0,0,.031.116c.031.112.062.22.089.328s.027.112.039.17.046.189.066.281.027.123.039.185.035.177.054.266l.035.2a1.48,1.48,0,0,0,.042.251c.015.085.019.139.031.2s.023.166.031.247.019.139.027.212a1.057,1.057,0,0,0,.027.239.559.559,0,0,1,0,.212,1,1,0,0,0,.019.235.838.838,0,0,1,0,.22v.22c0,.32.023.644.027.967V91.53l-.023.32a.885.885,0,0,1,0,.1,1.439,1.439,0,0,1-.027.339v.058a38.434,38.434,0,0,1-.944,5.311c-.031.123-.069.243-.108.366s-.062.224-.1.335-.092.231-.139.347-.089.224-.139.331-.116.22-.173.331-.108.212-.17.312-.139.212-.208.316-.131.2-.2.3-.158.2-.239.3-.15.189-.231.277l-.266.289-.258.258-.3.274-.285.243c-.108.085-.216.173-.328.254s-.2.154-.3.227l-.355.243-.328.208-.385.231-.343.185c-.135.077-.274.15-.412.22l-.355.17c-.146.069-.293.143-.447.208l-.351.146c-.162.069-.324.139-.489.2l-.324.119-.555.2-.143.042c-.752.251-1.542.466-2.355.655l-.277.066c-.216.05-.435.092-.655.135-.116.023-.227.05-.343.069-.216.042-.435.077-.651.116l-.385.062-.655.1-.385.054c-.22.031-.443.058-.667.081l-.385.046-.678.066-.385.031c-.231,0-.466.039-.7.05l-.385.023-.728.039H97.7l-.771.019H94.516c-1.788-.046-3.584-.185-5.338-.4h0c-.817-.1-1.623-.22-2.416-.355C76.422,103.67,61.106,104.81,59.256,90.528Z" transform="translate(-27.535 -16.728)" fill="#fff"/>
    <path id="Path_1073" data-name="Path 1073" d="M236.346,2.332a2.2,2.2,0,0,0-.085-.385.463.463,0,0,1-.019-.054,1.926,1.926,0,0,0-.127-.3.422.422,0,0,1-.031-.058,2.227,2.227,0,0,0-.185-.27l-.023-.031a2.122,2.122,0,0,0-.547-.47l-.046-.027a2.04,2.04,0,0,0-.262-.123l-.1-.046c-.077-.027-.154-.046-.231-.066l-.116-.027a.812.812,0,0,1-.235-.023.771.771,0,0,0-.092,0h0a2.112,2.112,0,0,0-1.688.771C227.6,7.211,222.322,9,220.661,9.435a.277.277,0,0,0-.127.47c3.642,3.156,2.513,10.945,3.4,13.678h0c.023.062.046.116.069.17s.035.1.054.143h0a1.129,1.129,0,0,0,.513.578h0a.736.736,0,0,0,.227.062,1.542,1.542,0,0,0,.925-.258c7.153-4.787,9.8-10.71,10.537-15.77a23.749,23.749,0,0,0,.085-6.174Z" transform="translate(-135.489 0)" fill="#fff"/>
    <path id="Path_1074" data-name="Path 1074" d="M109.588,169.489c-3.9-.351-9.488,4.139-4.135,8.729a3.933,3.933,0,0,0,.347.266c3.854,2.636,7.161,3.006,9.149,2.7a.451.451,0,0,1,.462.647,4.487,4.487,0,0,1-3.056,2.127.112.112,0,0,0,0,.22c1.457.3,5.954.852,7.831-3.338C122.449,175.841,113.527,169.836,109.588,169.489Zm-.717,7.226a3.434,3.434,0,0,1-.744-.967,2.717,2.717,0,0,1,.092-2.613,2.247,2.247,0,0,1,2.829-1.017c1.191.489,2.829,1.85,4.582,5.326C117.52,180.361,111.739,179.44,108.872,176.715Z" transform="translate(-63.457 -103.883)" fill="#fff"/>
    <path id="Path_1075" data-name="Path 1075" d="M174.168,186.766a.108.108,0,0,0,0-.212,4.521,4.521,0,0,1-3.106-2.058.451.451,0,0,1,.447-.659c2.027.247,5.4-.22,9.25-3.083,3.827-3.083-.748-9.635-6.509-8.093-3.823,1.033-10.375,5.958-8,10.934C168.237,187.761,172.723,187.109,174.168,186.766Zm-4.378-5.881c.771-1.757,2.289-5.01,6.224-5.01a1.773,1.773,0,0,1,1.518,2.7,9.722,9.722,0,0,1-6.9,3.611.913.913,0,0,1-.844-1.3Z" transform="translate(-101.868 -105.702)" fill="#fff"/>
    <path id="Path_1076" data-name="Path 1076" d="M90.847,90.011c7.446-.617,9.161-8.39,7-12.333a1.657,1.657,0,0,0-3.083.409c-.771,3.106-3.18,7.708-10.383,5.985a1.653,1.653,0,0,0-1.981,2.05C83,88.138,84.955,90.5,90.847,90.011Z" transform="translate(-50.608 -46.923)" fill="#fff"/>
    <path id="Path_1077" data-name="Path 1077" d="M160.4,84.279c5.742-2.717,5.357-6.166,4.286-8.371a1.661,1.661,0,0,0-2.794-.308c-4.575,5.685-9.192,3.7-11.751,1.757a1.657,1.657,0,0,0-2.559,1.885C148.97,83.077,155.024,86.827,160.4,84.279Z" transform="translate(-90.644 -45.804)" fill="#fff"/>
    <path id="Path_1082" data-name="Path 1082" d="M634.424,85.13h0Z" transform="translate(-389.918 -52.047)" fill="#75c7e8"/>
  </g>
</svg>
