<svg id="thit_ca_hoi_2" xmlns="http://www.w3.org/2000/svg" width="38.594" height="38.595" viewBox="0 0 38.594 38.595">
  <g id="Group_3489" data-name="Group 3489" transform="translate(0.565 5.894)">
    <path id="Path_23130" data-name="Path 23130" d="M40.449,103.791a18.732,18.732,0,1,1-27.3-25.6,18.732,18.732,0,0,0,27.3,25.6Z" transform="translate(-7.5 -78.19)" fill="#d3effd"/>
    <path id="Path_23131" data-name="Path 23131" d="M101.562,156.84a13.565,13.565,0,1,1-22.48-14.94,13.563,13.563,0,0,0,22.48,14.94Z" transform="translate(-70.836 -137.098)" fill="#b2e5fb"/>
    <path id="Path_23132" data-name="Path 23132" d="M263.765,112.7a1.851,1.851,0,0,1-.822,1.047l-1.511.937c-.789-1.633-3.382-3.161-3.382-3.161s-1.5-2.643-2.36-3.172a2.607,2.607,0,0,1,3.261-.5l3.8,2.241A2.262,2.262,0,0,1,263.765,112.7Z" transform="translate(-236.981 -105.277)" fill="#f7f9fa"/>
    <path id="Path_23133" data-name="Path 23133" d="M262.394,116.151l-.962.6a9.246,9.246,0,0,0-3.155-3.011l-2.586-3.323a2.606,2.606,0,0,1,1.015-.693h0a18.588,18.588,0,0,1,2.266,1.747A15.35,15.35,0,0,1,262.394,116.151Z" transform="translate(-236.981 -107.343)" fill="#e9edf1"/>
    <path id="Path_23135" data-name="Path 23135" d="M140.117,232.405l-.029.09a1.829,1.829,0,0,1-.28.508l0,0a1.268,1.268,0,0,1-1.791.093l-.29-.262a4.369,4.369,0,0,1-1.294-4.386.23.23,0,0,0-.071-.235,7.566,7.566,0,0,0-3.991-1.706c-3.189-.368-7.237-1.366-10.1-3.943a17.209,17.209,0,0,1-3.349-4.1c.285-.11.182-.726.458-.854s.959.218,1.238.064a17.25,17.25,0,0,0,3.236,3.91c2.861,2.577,6.908,3.575,10.1,3.943a7.565,7.565,0,0,1,3.991,1.706.23.23,0,0,1,.071.235,4.369,4.369,0,0,0,1.294,4.386l.29.262A1.257,1.257,0,0,0,140.117,232.405Z" transform="translate(-110.521 -207.078)" fill="#5595a2"/>
    <path id="Path_23136" data-name="Path 23136" d="M113.771,89.059a14.056,14.056,0,0,1-8.477,9.3c-2.341-4.006-.354-10.162.279-10.361C107.473,87.4,110.581,87.6,113.771,89.059Z" transform="translate(-96.894 -86.969)" fill="#f7f9fa"/>
    <path id="Path_23137" data-name="Path 23137" d="M96.182,101.368a13.872,13.872,0,0,1-1.7.79A13.792,13.792,0,0,1,92.5,95.676a4.5,4.5,0,0,1,.814-3.033,3.3,3.3,0,0,1,1.477-.853C93.6,93.346,93.8,97.414,96.182,101.368Z" transform="translate(-86.087 -90.765)" fill="#e9edf1"/>
    <ellipse id="Ellipse_51" data-name="Ellipse 51" cx="1.206" cy="1.206" rx="1.206" ry="1.206" transform="translate(10.439 3.083)" fill="#e9edf1"/>
  </g>
  <g id="Group_3490" data-name="Group 3490">
    <path id="Path_23141" data-name="Path 23141" d="M32.943,5.652A19.3,19.3,0,0,0,7.837,3.77a.565.565,0,0,0,.672.909,18.185,18.185,0,1,1-1.97,1.685.565.565,0,1,0-.794-.8,19.3,19.3,0,1,0,27.2,27.383,19.3,19.3,0,0,0,0-27.291Z"/>
    <path id="Path_23142" data-name="Path 23142" d="M69.7,76.649a14.115,14.115,0,0,0,.157,13.018,9.041,9.041,0,0,0,2.917,6.079.565.565,0,0,0,.764-.834,7.916,7.916,0,0,1-2.132-8.432l1.008.552a6.783,6.783,0,0,0,11.67,6.4l1.009.553a7.944,7.944,0,0,1-9.466,2.307.565.565,0,1,0-.465,1.03A9.061,9.061,0,0,0,83,97.12c.343-.017.689-.046,1.03-.087A14.164,14.164,0,0,0,89.79,95c.562.7,1.3,1.547,2.289,1.473A1.847,1.847,0,0,0,93.731,95.2l.667-2.078a.942.942,0,0,1,.523-.577c.512-.267,2.223-.823,2.572-1.3a1.833,1.833,0,0,0-.139-2.589l-.29-.261a4.973,4.973,0,0,0-1.354-.868,14.137,14.137,0,0,0-8.659-17.846.565.565,0,0,0-.38,1.065,12.995,12.995,0,0,1,7.955,16.456,4.919,4.919,0,0,0-2.365.163,7.018,7.018,0,0,1-1.868-3.282.565.565,0,0,0-1.1.277,8.137,8.137,0,0,0,2.452,4.075.565.565,0,0,0,.589.1,3.788,3.788,0,0,1,3.97.7c.542.344.787,1.091.1,1.428l-1.936.839a2.073,2.073,0,0,0-1.15,1.268l-.667,2.078a.708.708,0,0,1-1.143.313l-.29-.261a3.823,3.823,0,0,1-1.1-3.939.566.566,0,0,0-.171-.591,8.093,8.093,0,0,0-4.411-1.929c-2.911-.331-6.973-1.256-9.79-3.785a16.841,16.841,0,0,1-2.886-3.374,14.394,14.394,0,0,0,7.962-8.822,16.84,16.84,0,0,1,3.636,2.493,13.617,13.617,0,0,1,3.074,4.221l.006.012a20.987,20.987,0,0,1,1.069,2.665.565.565,0,1,0,1.075-.352,22.668,22.668,0,0,0-.906-2.338c.807-.475,1.925-1.014,2.154-2.017a2.818,2.818,0,0,0-1.273-3.259l-3.8-2.234a3.184,3.184,0,0,0-3.625.29,17.026,17.026,0,0,0-3.325-1.488,13.056,13.056,0,0,1,5.3-.32.565.565,0,1,0,.164-1.119,14.168,14.168,0,0,0-7.48.935c-.122-.022-.243-.042-.365-.061-2.737-.417-5.085.045-6.127,1.206C69.449,72.16,69.195,74.249,69.7,76.649ZM73.43,87.588l4.01,2.2-3.418,2.172a5.691,5.691,0,0,1-.562-1.3A5.588,5.588,0,0,1,73.43,87.588Zm1.265,5.282,3.276-2.081.1,3.88a5.674,5.674,0,0,1-3.373-1.8ZM79.2,94.719l-.1-4.024,3.973,2.177A5.715,5.715,0,0,1,79.2,94.719ZM75,85.5c3.039,2.729,7.343,3.718,10.418,4.067a6.974,6.974,0,0,1,3.53,1.439,4.962,4.962,0,0,0,.287,3.01,12.774,12.774,0,0,1-4.221,1.708A9.014,9.014,0,0,0,86.4,94.11a.565.565,0,0,0-.2-.811l-1.994-1.093h0l-2.943-1.613L71.389,85.18a.569.569,0,0,0-.79.269,9.032,9.032,0,0,0-.571,1.792,13.016,13.016,0,0,1,.151-8.883A17.349,17.349,0,0,0,75,85.5ZM85.286,72.629l3.8,2.234a1.691,1.691,0,0,1,.764,1.956c-.128.637-1.1,1.008-1.572,1.328a14.376,14.376,0,0,0-3.063-4.03A18.1,18.1,0,0,0,83.275,72.6a2.049,2.049,0,0,1,2.011.031Zm-14.041-.776c.638-.711,2.467-1.247,5.115-.844a14.579,14.579,0,0,1,3.432.978,13.259,13.259,0,0,1-7.511,8.322,14.566,14.566,0,0,1-1.326-3.28C70.269,74.439,70.607,72.563,71.245,71.852Z" transform="translate(-63.048 -63.677)"/>
    <path id="Path_23143" data-name="Path 23143" d="M139,114.936a1.771,1.771,0,1,0-.135-2.5A1.774,1.774,0,0,0,139,114.936Zm.707-1.746a.641.641,0,1,1,.049.9A.641.641,0,0,1,139.711,113.19Z" transform="translate(-127.985 -103.416)"/>
  </g>
</svg>
