<svg id="thit_ga_2" xmlns="http://www.w3.org/2000/svg" width="34.648" height="34.649" viewBox="0 0 34.648 34.649">
  <g id="Group_3292" data-name="Group 3292" transform="translate(22.411 22.411)">
    <path id="Path_22132" data-name="Path 22132" d="M338.42,335.684a2.634,2.634,0,0,0-.268.314l-4.845-4.845-2.153,2.153L336,338.152a4.623,4.623,0,1,0,2.422-2.468Z" transform="translate(-331.154 -331.154)" fill="#f3f0f3"/>
  </g>
  <g id="Group_3293" data-name="Group 3293" transform="translate(23.642 22.411)">
    <path id="Path_22133" data-name="Path 22133" d="M359.669,338.483a2.616,2.616,0,0,0-4.317-.982l0,0a.4.4,0,0,1-.571.006l-5.431-5.431.922-.922L355.115,336a2.615,2.615,0,0,1,4.555,2.482Z" transform="translate(-349.348 -331.156)" fill="#e2dee2"/>
  </g>
  <g id="Group_3295" data-name="Group 3295" transform="translate(17.165 1.691)">
    <path id="Path_22135" data-name="Path 22135" d="M263.566,48.13l-.879.879a4.251,4.251,0,0,0-.595-1.089,4.639,4.639,0,0,1-.667-2.089c-.045-.358-.073-.719-.089-1.079-.031-.692-.019-1.385-.015-2.077a19.27,19.27,0,0,0-.327-4.577,20.121,20.121,0,0,0-.916-2.858,25.135,25.135,0,0,0-2.664-4.888c-.167-.241-2.534-3.214-3.778-4.528l.834-.834s7.473,6.572,8.294,15.054a15.522,15.522,0,0,1,.071,1.694,33.94,33.94,0,0,0,.058,3.627c.03.326.068.652.114.976a7.216,7.216,0,0,0,.559,1.789Z" transform="translate(-253.636 -24.99)" fill="#c86d36"/>
  </g>
  <g id="Group_3297" data-name="Group 3297" transform="translate(4.408 0.511)">
    <path id="Path_22136" data-name="Path 22136" d="M75.094,21.412c-3.256,3.256-7.123,5.01-9.961,4.791,2.648-.3,5.87-1.984,8.647-4.761,4.508-4.508,6.136-10.187,3.638-12.686A4.2,4.2,0,0,0,74.693,7.6a4.766,4.766,0,0,1,4.039,1.123c2.5,2.5.87,8.178-3.638,12.686Z" transform="translate(-65.133 -7.554)" fill="#e19974"/>
  </g>
  <g id="Group_3300" data-name="Group 3300" transform="translate(9.679 4.436)">
    <ellipse id="Ellipse_39" data-name="Ellipse 39" cx="2.611" cy="1.359" rx="2.611" ry="1.359" transform="translate(0 3.849) rotate(-47.472)" fill="#ecbba3"/>
  </g>
  <g id="Group_3301" data-name="Group 3301" transform="translate(10.415 5.143)">
    <path id="Path_22138" data-name="Path 22138" d="M156.925,79.054c-.975,1.062-2.214,1.513-2.767,1.005a.9.9,0,0,1-.264-.665,3.6,3.6,0,0,0,1.958-1.2,3.44,3.44,0,0,0,1.027-2.178.957.957,0,0,1,.808.193C158.241,76.718,157.9,77.991,156.925,79.054Z" transform="translate(-153.894 -76.002)" fill="#e8ad8c"/>
  </g>
  <g id="Group_3302" data-name="Group 3302" transform="translate(0 0)">
    <path id="Path_22139" data-name="Path 22139" d="M33.734,26.581a3.148,3.148,0,0,0-.488-.4.508.508,0,0,0-.561.848,2.121,2.121,0,0,1,.947,1.759,2.107,2.107,0,0,1-2.206,2.1.508.508,0,0,0-.532.532,2.106,2.106,0,1,1-3.594-1.39c.279-.279.713-.588.314-.987L25.605,27.04l1.434-1.434,2.009,2.009a.519.519,0,0,0,.771-.061,2.137,2.137,0,0,1,.217-.254,2.081,2.081,0,0,1,.851-.519.508.508,0,0,0-.307-.97,3.133,3.133,0,0,0-1.194.7l-1.8-1.8a11.405,11.405,0,0,1-.551-1.746,23.911,23.911,0,0,1-.174-3.608A25.005,25.005,0,0,0,26.8,16.7,23.1,23.1,0,0,0,22.248,5.738a37.759,37.759,0,0,0-3.882-4.415C17.021-.022,14.858-.355,12.276.386A17.663,17.663,0,0,0,4.961,4.961,17.663,17.663,0,0,0,.385,12.277c-.74,2.582-.407,4.744.938,6.089a37.42,37.42,0,0,0,4.415,3.882,25.939,25.939,0,0,0,6.743,3.607,19.491,19.491,0,0,0,2.157.614,16.761,16.761,0,0,0,3.583.4,34.575,34.575,0,0,1,4.75.169,11.3,11.3,0,0,1,1.718.544l1.824,1.8a3.123,3.123,0,1,0,5.377,2.505,3.123,3.123,0,0,0,1.843-5.31ZM1.363,12.557A16.639,16.639,0,0,1,5.68,5.68a16.638,16.638,0,0,1,6.877-4.317A8.215,8.215,0,0,1,14.8,1.017a3.891,3.891,0,0,1,2.843,1.026c1.072,1.072,1.313,2.879.679,5.09a16.638,16.638,0,0,1-4.317,6.877,16.637,16.637,0,0,1-6.877,4.317c-2.211.634-4.018.393-5.09-.679s-1.313-2.879-.679-5.09Zm21.75,13.475q-.5-.071-1-.112c-.953-.08-1.906-.091-2.87-.078a18.1,18.1,0,0,1-5.5-.653,23.648,23.648,0,0,1-7.382-3.748c-.862-.627-1.616-1.246-2.242-1.8a6.581,6.581,0,0,0,.769.044A9.225,9.225,0,0,0,7.412,19.3a17.664,17.664,0,0,0,7.316-4.575A17.664,17.664,0,0,0,19.3,7.412a8.471,8.471,0,0,0,.342-3.3c.55.626,1.169,1.38,1.8,2.241a22.083,22.083,0,0,1,4.344,10.437c.2,2.1-.05,4.217.246,6.32a6.767,6.767,0,0,0,.464,1.6L24.711,26.5A6.757,6.757,0,0,0,23.113,26.032Z" transform="translate(0 0)"/>
    <path id="Path_22140" data-name="Path 22140" d="M37.061,46.532a15.357,15.357,0,0,0,5.7-3.744,15.357,15.357,0,0,0,3.744-5.7c.677-2.016.5-3.677-.5-4.677-2-2-6.556-.574-10.374,3.244a18.519,18.519,0,0,0-1.621,1.849.509.509,0,1,0,.808.617,17.471,17.471,0,0,1,1.531-1.746c3.3-3.3,7.394-4.787,8.936-3.244.7.7.8,2.027.255,3.634a14.331,14.331,0,0,1-3.5,5.3,14.331,14.331,0,0,1-5.3,3.5c-1.607.54-2.932.447-3.634-.255-.955-.955-.773-2.981.474-5.287a.508.508,0,1,0-.894-.484c-1.492,2.759-1.6,5.185-.3,6.49a3.349,3.349,0,0,0,2.452.9,7.055,7.055,0,0,0,2.225-.4Z" transform="translate(-29.349 -29.378)"/>
    <path id="Path_22141" data-name="Path 22141" d="M147.738,73.758a3.752,3.752,0,0,0,2.538-1.38c1.2-1.311,1.516-2.842.731-3.562a1.651,1.651,0,0,0-1.743-.189,4.6,4.6,0,0,0-1.742,1.226c-1.2,1.311-1.516,2.842-.731,3.562A1.364,1.364,0,0,0,147.738,73.758Zm.534-3.217a3.628,3.628,0,0,1,1.34-.958c.443-.161.86-.127.8.437a3.14,3.14,0,0,1-.888,1.671c-.854.932-1.8,1.2-2.048.975S147.418,71.472,148.273,70.54Z" transform="translate(-136.456 -63.839)"/>
  </g>
</svg>
