<svg xmlns="http://www.w3.org/2000/svg" width="38.91" height="28.805" viewBox="0 0 38.91 28.805">
  <g id="thit_bo_1" transform="translate(0 -0.499)">
    <path id="Path_22142" data-name="Path 22142" d="M45.267,144.977H7.5v5.656a10.405,10.405,0,0,0,7.5,9.982,40.738,40.738,0,0,0,22.766,0,10.4,10.4,0,0,0,7.483-9.384Zm0,0" transform="translate(-6.931 -133.498)" fill="#b2785b"/>
    <path id="Path_22143" data-name="Path 22143" d="M7.5,144.977v5.656a10.4,10.4,0,0,0,7.5,9.982,40.731,40.731,0,0,0,16.341,1.319,12.126,12.126,0,0,0-.531-5.594V144.977Zm0,0" transform="translate(-6.931 -133.498)" fill="#935b45"/>
    <path id="Path_22144" data-name="Path 22144" d="M7.5,18.438c0-8.4,7.729-8.25,13.3-6.868,4.348,1.078,7.51-2.063,11.161-3.124a10.4,10.4,0,0,1,5.8,19.974A40.739,40.739,0,0,1,15,28.42a10.4,10.4,0,0,1-7.5-9.982Zm0,0" transform="translate(-6.931 -6.959)" fill="#fce6d4"/>
    <path id="Path_22145" data-name="Path 22145" d="M20.805,45.93C15.23,44.548,7.5,44.4,7.5,52.8A10.405,10.405,0,0,0,15,62.78a40.741,40.741,0,0,0,15.811,1.38c-4.038-6.435-11.257-4.191-13.342-10.155-2.323-6.647,3.335-8.075,3.335-8.075Zm0,0" transform="translate(-6.931 -41.318)" fill="#efd4bf"/>
    <path id="Path_22146" data-name="Path 22146" d="M64.318,64.857c-12.182,0-15.764-5.27-15.764-8.485,0-.638,0-4.687,4.891-4.462,1.327.061,6.239.936,7.09.936a16,16,0,0,0,7.283-2.192,14.142,14.142,0,0,1,4.986-1.57,7.314,7.314,0,0,1,6.986,5.251,7.233,7.233,0,0,1-.611,5.538c-.937,1.7-5.065,4.982-14.861,4.982Zm0,0" transform="translate(-44.865 -44.894)" fill="#f2b4b1"/>
    <path id="Path_22147" data-name="Path 22147" d="M336.883,106.123a3.1,3.1,0,1,1-3.1-3.1A3.1,3.1,0,0,1,336.883,106.123Zm0,0" transform="translate(-305.554 -94.733)" fill="#fff"/>
    <path id="Path_22148" data-name="Path 22148" d="M55.4,91.824c-.862-2.467-.625-4.214.015-5.437-.844-.121-1.572-.213-1.973-.232-4.891-.225-4.891,3.824-4.891,4.462,0,3.215,3.582,8.485,15.764,8.485.6,0,1.184-.012,1.744-.036C62.071,96.11,57.08,96.618,55.4,91.824Zm0,0" transform="translate(-44.865 -79.139)" fill="#eaa2a2"/>
    <path id="Path_22149" data-name="Path 22149" d="M38.469,8.414A10.97,10.97,0,0,0,24.875.94,21.784,21.784,0,0,0,21.31,2.458c-2.351,1.171-4.572,2.276-7.3,1.6a22.008,22.008,0,0,0-5.921-.723A9.113,9.113,0,0,0,2.652,5.024C.892,6.4,0,8.573,0,11.479v5.656A11.05,11.05,0,0,0,2.157,23.66a10.869,10.869,0,0,0,5.755,4A41.439,41.439,0,0,0,19.464,29.3a41.308,41.308,0,0,0,9.059-1,.57.57,0,0,0-.25-1.112,40.146,40.146,0,0,1-8.809.976,40.315,40.315,0,0,1-11.234-1.6,9.718,9.718,0,0,1-5.156-3.588,10.883,10.883,0,0,1-1.934-6.649,10.931,10.931,0,0,0,6.772,5.676,41.355,41.355,0,0,0,11.542,1.645A42.452,42.452,0,0,0,31,22.008a10.048,10.048,0,0,0,6.758-5.643l0,1.35a9.848,9.848,0,0,1-7.072,8.854.563.563,0,0,0-.388.707.571.571,0,0,0,.707.388,10.99,10.99,0,0,0,7.893-9.9c0-.011.018-6.023.018-6.023a11.01,11.01,0,0,0-.437-3.33Zm-1.92,7.8a9.79,9.79,0,0,1-5.872,4.7,40.172,40.172,0,0,1-22.448,0,9.742,9.742,0,0,1-5.156-3.588,9.9,9.9,0,0,1-1.934-5.847c0-2.538.745-4.407,2.215-5.557a8.442,8.442,0,0,1,5.22-1.452,24.035,24.035,0,0,1,5.161.695c3.425.766,6.173-.736,8.082-1.686a20.665,20.665,0,0,1,3.375-1.444,9.83,9.83,0,0,1,12.182,6.7,9.872,9.872,0,0,1,.394,2.713,9.452,9.452,0,0,1-1.219,4.765Zm0,0" transform="translate(0 0)"/>
    <path id="Path_22150" data-name="Path 22150" d="M65.875,41.586c-1.872,0-4.693,1.357-5.24,1.629a15.549,15.549,0,0,1-7.029,2.132c-.374,0-1.87-.226-3.19-.425-1.557-.235-3.167-.478-3.874-.51a5.306,5.306,0,0,0-4.067,1.253,4.993,4.993,0,0,0-1.42,3.778,7.08,7.08,0,0,0,2.4,4.963.57.57,0,0,0,.785-.826,5.95,5.95,0,0,1-2.041-4.137,3.963,3.963,0,0,1,1.068-2.953,4.227,4.227,0,0,1,3.228-.939c.647.03,2.3.279,3.756.5,1.8.272,2.931.438,3.36.438a16.466,16.466,0,0,0,7.538-2.252,13.362,13.362,0,0,1,4.732-1.51,6.742,6.742,0,0,1,6.439,4.841,6.664,6.664,0,0,1-.563,5.1,8.555,8.555,0,0,1-3.836,2.882,26.642,26.642,0,0,1-10.526,1.8c-4.8,0-8.62-.817-11.343-2.428a.57.57,0,0,0-.58.981c2.9,1.716,6.914,2.587,11.924,2.587a27.752,27.752,0,0,0,10.98-1.9c2.993-1.3,4.06-2.8,4.38-3.378a7.8,7.8,0,0,0,.659-5.972,7.887,7.887,0,0,0-7.533-5.662Zm0,0" transform="translate(-37.935 -37.964)"/>
    <path id="Path_22151" data-name="Path 22151" d="M330.522,99.193a3.669,3.669,0,1,0-3.669,3.669A3.674,3.674,0,0,0,330.522,99.193Zm-6.2,0a2.53,2.53,0,1,1,2.53,2.53A2.532,2.532,0,0,1,324.323,99.193Zm0,0" transform="translate(-298.624 -87.803)"/>
  </g>
</svg>
