<svg id="gia_vi_2" xmlns="http://www.w3.org/2000/svg" width="37.627" height="33.093" viewBox="0 0 37.627 33.093">
  <g id="Group_3305" data-name="Group 3305" transform="translate(20.818 4.315)">
    <path id="Path_22154" data-name="Path 22154" d="M283.271,89.574h2.245v5.309h-2.245Z" transform="translate(-283.271 -89.574)" fill="#cbe2ff"/>
  </g>
  <g id="Group_3309" data-name="Group 3309" transform="translate(3.102 5.057)">
    <path id="Path_22158" data-name="Path 22158" d="M42.212,99.661h6.176v4.823H42.212Z" transform="translate(-42.212 -99.661)" fill="#ddeafb"/>
  </g>
  <g id="Group_3310" data-name="Group 3310" transform="translate(7.014 5.057)">
    <path id="Path_22159" data-name="Path 22159" d="M95.444,99.661h2.264v4.823H95.444Z" transform="translate(-95.444 -99.661)" fill="#cbe2ff"/>
  </g>
  <g id="Group_3312" data-name="Group 3312" transform="translate(28.023 9.261)">
    <path id="Path_22162" data-name="Path 22162" d="M381.3,156.872h7.58V162.9H381.3Z" transform="translate(-381.304 -156.872)" fill="#ddeafb"/>
  </g>
  <g id="Group_3313" data-name="Group 3313" transform="translate(33.233 9.261)">
    <path id="Path_22163" data-name="Path 22163" d="M452.2,156.872h2.37V162.9H452.2Z" transform="translate(-452.202 -156.872)" fill="#cbe2ff"/>
  </g>
  <g id="Group_3330" data-name="Group 3330" transform="translate(0 0)">
    <path id="Path_22178" data-name="Path 22178" d="M206.381,41.544a.909.909,0,0,0,.908-.908v-1.95a2.363,2.363,0,0,0-2.361-2.361H198.02a2.364,2.364,0,0,0-2.361,2.361v1.95a.909.909,0,0,0,.908.908h.572v.778a.544.544,0,0,0,0,1.07v.96a2.4,2.4,0,0,0-1.48,2.213,9.325,9.325,0,0,0,.381,2.59,9.569,9.569,0,0,1,0,5.114,9.5,9.5,0,0,0-.369,2.152,7.813,7.813,0,0,1-.921.522V44.2a3.244,3.244,0,0,0-.972-2.286,2.04,2.04,0,0,1-.508-1.348v-3.6a3.617,3.617,0,0,0,.09-5.768,1.446,1.446,0,0,0-.935-.35h-3.2a.545.545,0,1,0,0,1.09h3.2a.4.4,0,0,1,.264.119,2.511,2.511,0,0,1,.971,1.991,2.286,2.286,0,0,1-1.235,2.11h-6.98a2.286,2.286,0,0,1-1.236-2.11,2.511,2.511,0,0,1,.971-1.991.4.4,0,0,1,.264-.118h1.047a.545.545,0,0,0,0-1.09h-1.047a1.446,1.446,0,0,0-.935.35,3.617,3.617,0,0,0,.09,5.768v3.6a2.04,2.04,0,0,1-.508,1.348,3.244,3.244,0,0,0-.972,2.286V57.147a1.636,1.636,0,0,0,1.634,1.634h.925a9.978,9.978,0,0,0,5.654,4.668,10.106,10.106,0,0,0,3.133.5,9.975,9.975,0,0,0,3.617-.675.545.545,0,0,0-.4-1.015,8.952,8.952,0,0,1-11.533-5.007c-.042-.048.068-.134.1-.082A8.861,8.861,0,0,0,198.2,55.6a1.9,1.9,0,0,1,1.381-.683,2.844,2.844,0,0,1,1.549.384c-.062.037-.126.073-.191.107a.545.545,0,0,0,.495.971,4.311,4.311,0,0,0,.537-.325,2.883,2.883,0,0,1,.331.57,1.88,1.88,0,0,1-.07,1.652,8.814,8.814,0,0,1-2.433,2.8.545.545,0,1,0,.655.871,9.827,9.827,0,0,0,2.781-3.241h2.206a1.849,1.849,0,0,0,1.846-1.851,9.133,9.133,0,0,0-.251-2.09,9.917,9.917,0,0,1-.13-5.614,9.321,9.321,0,0,0,.381-2.59,2.4,2.4,0,0,0-1.48-2.213v-.96a.544.544,0,0,0,0-1.07v-.778Zm-20.692-4.29h6.49v2.681h-6.49Zm7.971,19.893a.538.538,0,0,1-.055.238,7.762,7.762,0,0,1-6.715-1.106,1.159,1.159,0,0,0-1.731,1.413h-.4a.545.545,0,0,1-.545-.545V55.423h9.451v1.724Zm0-2.814h-9.451V46.41h1.979a.9.9,0,0,0,.866-.638,1.969,1.969,0,0,1,3.76,0,.9.9,0,0,0,.866.638h1.979v7.923Zm0-9.013h-1.848a3.058,3.058,0,0,0-5.755,0h-1.848V44.2a2.2,2.2,0,0,1,.7-1.567,3.128,3.128,0,0,0,.746-1.613h6.558a3.128,3.128,0,0,0,.746,1.613,2.2,2.2,0,0,1,.7,1.567V45.32Zm3.089-4.866V38.686a1.273,1.273,0,0,1,1.271-1.271h6.908a1.273,1.273,0,0,1,1.271,1.271v1.768Zm7.971,1.858h-6.491v-.768h6.491Zm-6.491,1.09h6.491v.768h-6.491Zm4.1,7.748a3.147,3.147,0,0,1,.19,2.417,3.184,3.184,0,0,1-.368.766h-.516a3.941,3.941,0,0,0-2.093-.5c-.08,0-.16.011-.239.02V49.905h6.32a10.705,10.705,0,0,0-.151,1.807,10.378,10.378,0,0,0,.327,2.621h-2.41a4.338,4.338,0,0,0,.166-.429,4.23,4.23,0,0,0-.256-3.248.545.545,0,1,0-.971.495Zm3.117,6.47h-1.9a2.986,2.986,0,0,0-.238-1.43,3.987,3.987,0,0,0-.442-.767h3.2a7.9,7.9,0,0,1,.136,1.442.757.757,0,0,1-.756.756Zm.756-11.055a8.22,8.22,0,0,1-.328,2.25h-6.752a.909.909,0,0,0-.908.908V54.2a3,3,0,0,0-.845.7c-.154.184-.315.359-.483.526q.079-.427.2-.859a10.648,10.648,0,0,0,0-5.72,8.236,8.236,0,0,1-.338-2.287,1.307,1.307,0,0,1,1.306-1.306h6.839A1.307,1.307,0,0,1,206.2,46.565Z" transform="translate(-169.661 -30.856)"/>
    <path id="Path_22179" data-name="Path 22179" d="M10.746,76.356H9.823V74.828a1.273,1.273,0,0,0,1.141-1.265V71.828a1.273,1.273,0,0,0-1.271-1.271H2.688a1.273,1.273,0,0,0-1.271,1.271v1.735a1.273,1.273,0,0,0,1.141,1.265v1.528H1.634A1.636,1.636,0,0,0,0,77.99v1.384a2.471,2.471,0,0,0,.673,1.7l1.065,1.132a2.187,2.187,0,0,1,0,2.987L.67,86.333a2.471,2.471,0,0,0-.67,1.7v1.134a.545.545,0,0,0,1.09,0V88.029a1.386,1.386,0,0,1,.376-.951l1.069-1.141a3.278,3.278,0,0,0,0-4.479l-.941-1H3.1a.545.545,0,1,0,0-1.09H1.09V77.99a.545.545,0,0,1,.545-.545h9.112a.545.545,0,0,1,.545.545v1.379H5.711a.545.545,0,1,0,0,1.09H10.79l-.941,1a3.278,3.278,0,0,0,0,4.479l1.069,1.141a1.385,1.385,0,0,1,.376.951v5.9a.545.545,0,0,1-.545.545H1.634a.545.545,0,0,1-.545-.545V91.857a.545.545,0,0,0-1.09,0v2.074a1.636,1.636,0,0,0,1.634,1.634h9.112a1.636,1.636,0,0,0,1.634-1.634v-5.9a2.471,2.471,0,0,0-.671-1.7l-1.069-1.141a2.187,2.187,0,0,1,0-2.987l1.065-1.132a2.471,2.471,0,0,0,.673-1.7V77.99a1.636,1.636,0,0,0-1.634-1.634Zm-2.013,0H3.647V74.835H8.734Zm.959-2.611H2.688a.182.182,0,0,1-.182-.182V71.828a.182.182,0,0,1,.182-.182H9.693a.182.182,0,0,1,.182.182v1.735a.182.182,0,0,1-.182.182Z" transform="translate(0 -67.639)"/>
    <path id="Path_22180" data-name="Path 22180" d="M51.686,281.407a2.844,2.844,0,1,0-2.8,2.367A2.617,2.617,0,0,0,51.686,281.407Zm-4.518,0c0-.7.769-1.278,1.714-1.278s1.714.573,1.714,1.278-.769,1.278-1.714,1.278S47.168,282.112,47.168,281.407Z" transform="translate(-42.692 -260.801)"/>
    <path id="Path_22181" data-name="Path 22181" d="M36.826,359.452a.545.545,0,0,0,.545.545h5.878a.545.545,0,0,0,0-1.09H37.371A.545.545,0,0,0,36.826,359.452Z" transform="translate(-34.12 -334.798)"/>
    <path id="Path_22182" data-name="Path 22182" d="M222.028,272.814a.545.545,0,1,0,0,1.09h4.9a.545.545,0,0,0,0-1.09Z" transform="translate(-205.206 -255.032)"/>
    <path id="Path_22183" data-name="Path 22183" d="M226.929,303.533h-4.9a.545.545,0,0,0,0,1.09h4.9a.545.545,0,1,0,0-1.09Z" transform="translate(-205.205 -283.494)"/>
  </g>
</svg>
