<svg xmlns="http://www.w3.org/2000/svg" width="120" height="120" viewBox="0 0 120 120">
  <g id="icon_tu_nhien" transform="translate(19824 -6296)">
    <rect id="Rectangle_301" data-name="Rectangle 301" width="120" height="120" transform="translate(-19824 6296)" fill="#fff" opacity="0"/>
    <g id="Group_4698" data-name="Group 4698" transform="translate(-6 -7.199)">
      <g id="icon_tu_nhien-2" data-name="icon_tu_nhien" transform="translate(-483.356 9.951)">
        <path id="Path_879" data-name="Path 879" d="M107.792,52.895c.588-10.031-2.835-20.061-8.305-28.474-4.641-7.2-12.358-17.494-20.543-20.844C68.592-.662,59.016,6.252,49.039,7.65,40.118,8.88,30.87,4.975,22.157,7.275c-6.239,1.632-11.368,6.353-14.524,11.99S3.212,31.409,2.837,37.849A72.676,72.676,0,0,0,10.3,74.066c2.755,5.584,6.614,9.95,10.031,15.006s5.9,9.556,12.271,11.7a20.2,20.2,0,0,0,17.173-2.167c4.507-2.916,7.657-7.5,11.983-10.586,8.025-5.711,18.757-5.162,27.845-8.111C101.212,76.159,107.1,64.624,107.792,52.895Z" transform="translate(-19329.732 6306.49)" fill="#f1e0c4"/>
        <g id="field" transform="translate(-19308.277 6308.709)">
          <path id="Path_1040" data-name="Path 1040" d="M304.96,400.957a43.151,43.151,0,0,0-30.37,12.692,1.35,1.35,0,0,0,1.915,1.9,40.432,40.432,0,0,1,28.455-11.9,1.35,1.35,0,0,0,0-2.7Zm0,0" transform="translate(-237.17 -346.811)" fill="#275471"/>
          <path id="Path_1041" data-name="Path 1041" d="M187.143,387.886a1.35,1.35,0,0,0-1.875-.363,53.3,53.3,0,0,0-14.5,14.505,1.351,1.351,0,1,0,2.242,1.506,50.6,50.6,0,0,1,13.765-13.774,1.351,1.351,0,0,0,.363-1.875Zm0,0" transform="translate(-147.514 -334.99)" fill="#275471"/>
          <path id="Path_1042" data-name="Path 1042" d="M382.475,320.457a53.11,53.11,0,0,0-17.761,3.065,1.35,1.35,0,1,0,.9,2.546,50.419,50.419,0,0,1,16.86-2.91,1.35,1.35,0,1,0,0-2.7Zm0,0" transform="translate(-314.685 -277.181)" fill="#275471"/>
          <path id="Path_1043" data-name="Path 1043" d="M19.347,59.875A61.55,61.55,0,0,1,55.283,37.235l.007,0a60.188,60.188,0,0,1,12.5-1.317,1.35,1.35,0,0,0,0-2.7,63.547,63.547,0,0,0-11.425,1.039V31.339c4.881-4.132,7.56-9.546,7.56-15.312C63.925,10.066,61.061,4.48,55.86.3a1.351,1.351,0,0,0-1.693,0C48.967,4.48,46.1,10.066,46.1,16.027c0,5.766,2.68,11.18,7.56,15.312v3.467a63.942,63.942,0,0,0-7.571,2.224V29.124a1.346,1.346,0,0,0-.392-.952h0l-7.562-7.607a1.352,1.352,0,0,0-.958-.4H21.74a1.351,1.351,0,0,0-.957.4L13.22,28.172h0a1.346,1.346,0,0,0-.393.952v5.157q-1.412-.259-2.836-.454V29.014a15.412,15.412,0,0,0,5.716-11.728A15.555,15.555,0,0,0,9.487,5.138a1.351,1.351,0,0,0-1.692,0,15.554,15.554,0,0,0-6.22,12.148A15.412,15.412,0,0,0,7.291,29.013v4.5q-2.954-.276-5.942-.279a1.35,1.35,0,1,0,0,2.7A60.908,60.908,0,0,1,32.02,44.216a63.75,63.75,0,0,0-6.379,4.954A53.725,53.725,0,0,0,1.349,43.3a1.35,1.35,0,1,0,0,2.7,50.981,50.981,0,0,1,22.17,5.132,63.822,63.822,0,0,0-5.743,6.357A42.242,42.242,0,0,0,1.349,54.169a1.35,1.35,0,0,0,0,2.7,39.522,39.522,0,0,1,14.745,2.851q-1.4,1.945-2.654,4l-2.058,3.371a1.35,1.35,0,1,0,2.305,1.407l2.058-3.371a59.951,59.951,0,0,1,3.468-5.074,1.278,1.278,0,0,0,.133-.174ZM48.8,16.027a17.232,17.232,0,0,1,6.21-12.909,17.232,17.232,0,0,1,6.21,12.909,16.811,16.811,0,0,1-4.859,11.6V17.286a1.35,1.35,0,0,0-2.7,0V27.627A16.809,16.809,0,0,1,48.8,16.027ZM4.276,17.286A12.637,12.637,0,0,1,8.641,7.97a12.636,12.636,0,0,1,4.366,9.316,12.209,12.209,0,0,1-3.015,7.906V16.206a1.35,1.35,0,1,0-2.7,0v8.986a12.209,12.209,0,0,1-3.015-7.906ZM41.5,27.774H29.864l-4.877-4.906H36.619ZM21.74,23.432l4.316,4.341H17.425Zm-6.212,7.042H27.952v8.588q-.939-.432-1.891-.834V33.693a1.351,1.351,0,0,0-1.35-1.35H18.769a1.351,1.351,0,0,0-1.35,1.35V35.3q-.942-.245-1.891-.463Zm7.832,6.688q-1.606-.592-3.241-1.1V35.043h3.241Zm7.292,3.221V30.475H43.392v7.6a63.379,63.379,0,0,0-6.765,3.283q-1.051.589-2.077,1.22-1.915-1.169-3.9-2.2Zm0,0" fill="#275471"/>
          <path id="Path_1044" data-name="Path 1044" d="M398.748,82.7a1.353,1.353,0,1,0-.954-.4A1.359,1.359,0,0,0,398.748,82.7Zm0,0" transform="translate(-343.734 -69.196)" fill="#275471"/>
          <path id="Path_1045" data-name="Path 1045" d="M318.064,362.733a1.349,1.349,0,1,0,.955-.4A1.362,1.362,0,0,0,318.064,362.733Zm0,0" transform="translate(-274.771 -313.405)" fill="#275471"/>
        </g>
      </g>
    </g>
  </g>
</svg>
