<svg xmlns="http://www.w3.org/2000/svg" width="50" height="50" viewBox="0 0 50 50">
  <g id="dang-nhap" transform="translate(18504 31)">
    <g id="Group_6088" data-name="Group 6088" transform="translate(0 -88)">
      <g id="icon_dang_xuat" transform="translate(-64)">
        <circle id="Ellipse_54" data-name="Ellipse 54" cx="25" cy="25" r="25" transform="translate(-18440 57)" fill="#e8f8f7"/>
        <g id="logout" transform="translate(-18427 73.024)">
          <g id="Group_5858" data-name="Group 5858" transform="translate(0)">
            <g id="Group_5857" data-name="Group 5857">
              <path id="Path_37880" data-name="Path 37880" d="M298.745,152.461a.873.873,0,0,1,.187-.281l2.589-2.589a.863.863,0,0,1,1.22,1.22l-1.116,1.116h4.822a.863.863,0,1,1,0,1.726h-4.821l1.116,1.116a.863.863,0,1,1-1.221,1.22l-2.589-2.589a.855.855,0,0,1-.187-.281A.864.864,0,0,1,298.745,152.461Z" transform="translate(310.31 162.286) rotate(180)" fill="#275471"/>
              <path id="Path_37881" data-name="Path 37881" d="M.877,12.084a.863.863,0,0,1,.863.863v4.316H7.193V3.453a.864.864,0,0,1,.615-.827l3-.9H1.74V6.042a.863.863,0,1,1-1.726,0V.863A.863.863,0,0,1,.877,0h13.81a.769.769,0,0,1,.089.016.852.852,0,0,1,.366.128c.019.012.042.013.06.027s.01.015.016.02a.855.855,0,0,1,.23.273.7.7,0,0,1,.024.073.819.819,0,0,1,.068.2.537.537,0,0,1,0,.075c0,.017.012.033.012.05V18.126a.862.862,0,0,1-.694.846L8.7,20.6l-.477.1a.8.8,0,0,1-.169.017.864.864,0,0,1-.863-.863v-.863H.877a.863.863,0,0,1-.863-.863V12.947A.863.863,0,0,1,.877,12.084Z" transform="translate(5.164)" fill="#275471"/>
            </g>
          </g>
        </g>
      </g>
    </g>
  </g>
</svg>
