<svg xmlns="http://www.w3.org/2000/svg" width="50" height="50" viewBox="0 0 50 50">
  <g id="icon_yeu_thich" transform="translate(18303 -57)">
    <circle id="Ellipse_55" data-name="Ellipse 55" cx="25" cy="25" r="25" transform="translate(-18303 57)" fill="#f6f3e3"/>
    <g id="love-hand-drawn-heart-symbol-outline" transform="translate(-18290 72.79)">
      <g id="Group_848" data-name="Group 848" transform="translate(0 0)">
        <path id="Path_992" data-name="Path 992" d="M18.05,13.215c-.2,0-.395.009-.59.026a7.075,7.075,0,0,0-5.2,3.457,8.313,8.313,0,0,0-6.6-3.766,6.188,6.188,0,0,0-1.6.209A5.42,5.42,0,0,0,.483,16.413,6.423,6.423,0,0,0,.819,22c1.312,2.224,3.56,3.581,5.734,4.893a29.554,29.554,0,0,1,3.262,2.17,9.894,9.894,0,0,1,.984.884,13.429,13.429,0,0,0-1.2,1.725A3.631,3.631,0,0,0,9.3,34.137a1.287,1.287,0,0,0,.68.762,1.222,1.222,0,0,0,.52.117,2.865,2.865,0,0,0,1.941-1.338,3.116,3.116,0,0,0,.375-3.487c1.022-.924,2.134-1.784,3.209-2.615a31.491,31.491,0,0,0,5.286-4.768c.744-.908,3.043-4.1,1.418-7.08A5.161,5.161,0,0,0,18.05,13.215ZM11.4,32.436a2.111,2.111,0,0,1-.473.645,3.431,3.431,0,0,1,.307-1.1c.03-.066.228-.372.37-.576A1.709,1.709,0,0,1,11.4,32.436ZM9.55,15.991A7.387,7.387,0,0,1,10.8,17.308c.042.057.107.165.182.291.435.724.9,1.431,1.407,1.431.251,0,.463-.176.631-.525a6.02,6.02,0,0,1,4.819-3.729c.118-.011.238-.016.357-.016A3.558,3.558,0,0,1,21.6,17.027c.634,1.788-.369,3.906-3.067,6.476a46.56,46.56,0,0,1-3.685,3.056c-.975.753-1.982,1.531-2.925,2.36a15.136,15.136,0,0,0-2.844-2.314c-.524-.348-1.09-.688-1.689-1.048-2.947-1.771-6.286-3.778-5.759-7.515a3.919,3.919,0,0,1,4.052-3.518c.159,0,.321.008.483.023A6.345,6.345,0,0,1,9.55,15.991Z" transform="translate(-0.001 -12.933)" fill="#275471"/>
      </g>
    </g>
  </g>
</svg>
