<svg xmlns="http://www.w3.org/2000/svg" width="50.5" height="45.081" viewBox="0 0 50.5 45.081">
  <g id="icon_so_che" transform="translate(0.25 0.25)">
    <g id="chopping-board" transform="translate(0 0)">
      <path id="Path_23113" data-name="Path 23113" d="M49.268,55.847A.732.732,0,0,0,50,55.115V33.957a3.08,3.08,0,0,0-3.076-3.076H40.542v-2.4a.733.733,0,0,0-.793-.73,6.872,6.872,0,0,0-5.06,3.131H8.973a.732.732,0,0,0,0,1.465H33.781c-.014.026-.027.053-.041.079-2.78,5.27-3.538,14.616-3.374,20.32a.732.732,0,0,0,.732.71h3.553v1.679a1.227,1.227,0,0,0-.8,1.145v9.679H3.076a1.613,1.613,0,0,1-1.611-1.611V33.957a1.613,1.613,0,0,1,1.611-1.611H5.555a.732.732,0,1,0,0-1.465H3.076A3.08,3.08,0,0,0,0,33.957v30.39a3.08,3.08,0,0,0,3.076,3.076H33.855V70.13a2.2,2.2,0,0,0,2.2,2.2h3.09a2.2,2.2,0,0,0,2.2-2.2V67.423h5.585A3.08,3.08,0,0,0,50,64.347V58.533a.732.732,0,1,0-1.465,0v5.814a1.613,1.613,0,0,1-1.611,1.611H41.339c0-10.335.01-9.736-.022-9.9a1.227,1.227,0,0,0-.775-.919V32.345h6.381a1.613,1.613,0,0,1,1.611,1.611V55.115A.732.732,0,0,0,49.268,55.847ZM33.4,51.99H31.82c-.036-6.474.948-21,7.257-22.646v.732C33.987,34.579,33.421,47.143,33.4,51.99Zm5.678-19.769V55.058H36.116V52.723a.732.732,0,0,0-.732-.732h-.519C34.887,48.284,35.283,37.137,39.077,32.222Zm.8,37.908a.733.733,0,0,1-.732.732h-3.09a.733.733,0,0,1-.732-.732V56.523h4.554c0,.661,0,12.946,0,13.607Z" transform="translate(0 -27.747)" fill="#275471" stroke="#275471" stroke-width="0.5"/>
      <g id="Group_3408" data-name="Group 3408" transform="translate(4.165 11.039)">
        <path id="Path_23114" data-name="Path 23114" d="M43.15,167.761a3.153,3.153,0,0,1-3.15-3.15V150.087a3.15,3.15,0,0,1,6.3,0v14.525A3.153,3.153,0,0,1,43.15,167.761Zm0-19.262a1.59,1.59,0,0,0-1.588,1.588v14.525a1.588,1.588,0,1,0,3.176,0V150.087A1.589,1.589,0,0,0,43.15,148.5Z" transform="translate(-40 -146.937)" fill="#275471" stroke="#275471" stroke-width="0.5"/>
      </g>
    </g>
  </g>
</svg>
