<svg xmlns="http://www.w3.org/2000/svg" width="120" height="120" viewBox="0 0 120 120">
  <g id="icon_van_chuyen" transform="translate(19663 -6296)">
    <rect id="Rectangle_302" data-name="Rectangle 302" width="120" height="120" transform="translate(-19663 6296)" fill="#fff" opacity="0"/>
    <g id="icon_van_chuyen-2" data-name="icon_van_chuyen" transform="translate(-692.316 -0.814)">
      <g id="Asset_4" data-name="Asset 4" transform="translate(-18963 6301.709)">
        <g id="Layer_2" data-name="Layer 2" transform="translate(0 0)">
          <g id="OBJECTS">
            <path id="Path_881" data-name="Path 881" d="M48.114,102.8c-12.752,1.8-25.97-3.942-34.767-13.857S.135,65.337,0,51.784C-.157,36.132,5.629,20.071,17.04,10.044,29.234-.672,48.567-3.366,62.666,4.643c6.718,3.818,12.175,9.7,18.694,13.895,7.2,4.625,16,7.45,20.705,14.844,3.16,4.967,3.9,11.337,2.881,17.21a46.221,46.221,0,0,1-6.761,16.316C87.4,84.217,68.043,99.992,48.114,102.8Z" transform="translate(0.005 7.003)" fill="#d3e5f6"/>
          </g>
        </g>
      </g>
      <g id="delivery-truck" transform="translate(-18945.242 6264.733)">
        <g id="Group_915" data-name="Group 915" transform="translate(0 68.867)">
          <g id="Group_914" data-name="Group 914">
            <path id="Path_1036" data-name="Path 1036" d="M55.134,84.783H50.847l1.292-14.832c0-.027,0-.053,0-.08,0,0,0,0,0-.007h0a1,1,0,0,0-.6-.914l-.009,0c-.022-.009-.045-.017-.068-.025l-.026-.009L51.38,68.9l-.04-.01-.052-.008-.049-.007h-.008l-.052,0-.035,0H30.728a1,1,0,0,0,0,2H50.056l-1.985,22.8v.005l-.5,5.752H12.9l.58-5.985h6.6a1,1,0,0,0,0-2H13.678L14.9,78.8h10.5a1,1,0,1,0,0-2H15.1l.576-5.941H26.737a1,1,0,0,0,0-2H14.764a1,1,0,0,0-.973.787l0,.01c-.005.025-.008.05-.012.076,0,.008,0,.016,0,.024v0L13.091,76.8H1a1,1,0,1,0,0,2H12.9L11.673,91.434H8.114a1,1,0,0,0,0,2H11.48l-.667,6.88v0L9.783,110.95v.007c0,.014,0,.027,0,.041s0,.036,0,.055v0c0,.026,0,.051,0,.076,0,.008,0,.016,0,.024,0,.026.007.051.012.076,0,.007,0,.015,0,.022s.009.038.014.056.006.027.01.04l0,.011a1,1,0,0,0,.237.391l.006.006.033.03a.99.99,0,0,0,.231.158c.018.009.035.018.053.026l.017.006c.025.01.05.02.076.028l.007,0c.03.009.059.016.09.023l.012,0c.029.005.058.01.088.013h0q.049,0,.1,0h4.443a7.594,7.594,0,0,0,15.056,0h16a7.594,7.594,0,0,0,15.056,0h4.444c.033,0,.066,0,.1-.005l.017,0c.026,0,.052-.007.077-.012l.032-.008.058-.015L66.1,112l.049-.018.04-.017.043-.021.04-.022.041-.025.037-.025.04-.03.033-.026.04-.036.027-.026c.014-.014.027-.029.04-.044l.021-.024c.015-.018.028-.037.041-.055l.014-.019c.016-.024.032-.049.046-.075l0,0c.015-.028.029-.056.041-.085l.009-.025c.008-.021.016-.041.023-.063s.008-.028.011-.042.009-.033.013-.05.005-.03.008-.046.005-.027.007-.04c.042-.339.823-6.606,1.172-10.659,0,0,0-.008,0-.012.1-1.168.165-2.152.165-2.754A12.984,12.984,0,0,0,55.134,84.783Zm-4.461,2h4.081l-.521,5.985H50.152ZM22.747,116.654a5.6,5.6,0,1,1,5.6-5.6A5.607,5.607,0,0,1,22.747,116.654Zm31.057,0a5.6,5.6,0,1,1,5.6-5.6A5.607,5.607,0,0,1,53.8,116.654Zm11.089-6.6h-3.56a7.594,7.594,0,0,0-15.056,0h-16a7.594,7.594,0,0,0-15.056,0H11.874l.838-8.646H48.485a.981.981,0,0,0,.1-.005l.018,0c.026,0,.052-.007.078-.012l.033-.008.059-.015.039-.013.05-.018.041-.018.044-.021.04-.023.041-.025.038-.026.039-.029.034-.028.037-.034.03-.03.035-.039.026-.031.032-.043.023-.033q.015-.023.028-.046c.007-.012.014-.023.02-.035s.016-.032.023-.048.012-.026.017-.039.012-.032.018-.048.01-.028.014-.043.008-.031.012-.047.008-.032.011-.048,0-.032.007-.048.005-.033.007-.049,0,0,0-.007l.5-5.74h5.156c3.057,0,4.435,1.584,5.894,3.26,1.2,1.383,2.549,2.927,4.834,3.3C65.572,104.391,65.1,108.331,64.893,110.056Zm1.14-10.732c-1.482-.3-2.395-1.344-3.5-2.614-1.382-1.588-3.069-3.525-6.3-3.886l.516-5.926a10.99,10.99,0,0,1,9.362,10.854C66.108,98.126,66.08,98.67,66.033,99.323Z" transform="translate(0 -68.867)" fill="#275471" stroke="#275471" stroke-width="1"/>
          </g>
        </g>
        <g id="Group_917" data-name="Group 917" transform="translate(19.089 107.396)">
          <g id="Group_916" data-name="Group 916">
            <path id="Path_1037" data-name="Path 1037" d="M147.166,358.524a3.658,3.658,0,1,0,3.658,3.658A3.662,3.662,0,0,0,147.166,358.524Zm0,5.321a1.663,1.663,0,1,1,1.663-1.663A1.664,1.664,0,0,1,147.166,363.845Z" transform="translate(-143.508 -358.524)" fill="#275471" stroke="#275471" stroke-width="1"/>
          </g>
        </g>
        <g id="Group_919" data-name="Group 919" transform="translate(50.146 107.396)">
          <g id="Group_918" data-name="Group 918">
            <path id="Path_1038" data-name="Path 1038" d="M380.654,358.524a3.658,3.658,0,1,0,3.658,3.658A3.662,3.662,0,0,0,380.654,358.524Zm0,5.321a1.663,1.663,0,1,1,1.663-1.663A1.664,1.664,0,0,1,380.654,363.845Z" transform="translate(-376.996 -358.524)" fill="#275471" stroke="#275471" stroke-width="1"/>
          </g>
        </g>
        <g id="Group_921" data-name="Group 921" transform="translate(3.569 84.783)">
          <g id="Group_920" data-name="Group 920" transform="translate(0 0)">
            <path id="Path_1039" data-name="Path 1039" d="M32.709,188.527H27.832a1,1,0,1,0,0,2h4.877a1,1,0,1,0,0-2Z" transform="translate(-26.834 -188.527)" fill="#275471" stroke="#275471" stroke-width="1"/>
          </g>
        </g>
      </g>
    </g>
  </g>
</svg>
