<svg xmlns="http://www.w3.org/2000/svg" width="50" height="50" viewBox="0 0 50 50">
  <g id="icon_tai_khoan" transform="translate(18369 -57)">
    <circle id="Ellipse_54" data-name="Ellipse 54" cx="25" cy="25" r="25" transform="translate(-18369 57)" fill="#e8f8f7"/>
    <g id="users-couple-hand-drawn-outlines" transform="translate(-18354.004 8.313)">
      <g id="Group_936" data-name="Group 936" transform="translate(0.004 62.532)">
        <path id="Path_1084" data-name="Path 1084" d="M80.563,70.995a5.059,5.059,0,0,0,2.927.969A5.354,5.354,0,0,0,87.2,70.38c.282-.273.577-.592.656-.687a.82.82,0,0,0,.09-.135,4.656,4.656,0,0,0-.463-5.424c-.311-.366-.587-.676-.686-.772a.747.747,0,0,0-.178-.125,5.978,5.978,0,0,0-2.741-.706,5.792,5.792,0,0,0-3.582,1.316.692.692,0,0,0-.124.121c-.081.1-.343.462-.575.8A4.316,4.316,0,0,0,80.563,70.995Zm.609-5.971a.694.694,0,0,0,.059-.072,2.81,2.81,0,0,1,.831-.618,3.949,3.949,0,0,1,2.832-.274,3.41,3.41,0,0,1,1.415.874,3.15,3.15,0,0,1,.756,3.122,3,3,0,0,1-.4.871,3.7,3.7,0,0,1-6.335-.479A3.027,3.027,0,0,1,81.172,65.024Z" transform="translate(-73.713 -62.532)" fill="#275471"/>
        <path id="Path_1088" data-name="Path 1088" d="M19.692,237.854q0-.207-.011-.413c0-.055,0-.11,0-.165s0-.11-.007-.165c-.007-.182-.013-.364-.023-.546,0-.055-.009-.11-.012-.165s-.009-.11-.012-.165c-.01-.14-.018-.28-.031-.42,0-.053-.013-.107-.018-.16a6.761,6.761,0,0,0-.121-.775c-.014-.064-.034-.127-.051-.19a3.26,3.26,0,0,0-.168-.478,2.337,2.337,0,0,0-.34-.548,2.126,2.126,0,0,0-.277-.264c-.053-.044-.107-.087-.165-.128s-.109-.073-.165-.107a3.453,3.453,0,0,0-.37-.2,3.5,3.5,0,0,0-.622-.218,2.667,2.667,0,0,0-.442-.075c-.181-.013-.364-.017-.547-.02-.054,0-.108,0-.162,0h-.168c-.2,0-.408,0-.612.008l-.164,0-.165,0c-.272.006-.543.012-.813.009l-1.418-.015-1.4-.015c-1.882-.016-3.766-.016-5.646.068-1.056.047-2.11.121-3.161.233a.644.644,0,0,0-.263.026,3.324,3.324,0,0,0-2.087,1.786.856.856,0,0,0-.07.249.643.643,0,0,0-.07.286c-.06,3.056-.187,6.108,0,9.162A.621.621,0,0,0,.446,245a.552.552,0,0,0,.393.15c1.209,0,2.418-.005,3.626-.061,0,.405,0,.782,0,1.107a.637.637,0,0,0,.067.29.542.542,0,0,0,.538.373c3.418,0,6.837.071,10.255.075a.6.6,0,0,0,.484-.927c0-.135,0-.278,0-.427.979-.05,1.959-.058,2.939-.058a.56.56,0,0,0,.369-.127.616.616,0,0,0,.746-.61c0-2-.084-4-.146-5.994C19.706,238.476,19.7,238.165,19.692,237.854Zm-3.909,6.534c-.05-2-.152-4.5-.236-6-.046-.819-1.325-.824-1.278,0,.1,1.862.236,5.284.263,7.348-2.929-.011-5.858-.057-8.787-.067-.009-2.056-.048-5.364-.051-7.174a.64.64,0,0,0-1.279,0c0,1.347.025,3.526.04,5.4-1.033.048-2.067.058-3.1.06-.145-2.87-.034-5.74.023-8.612a2.08,2.08,0,0,1,1.244-1.116c1.813-.191,3.635-.269,5.457-.3,1.15-.017,2.3-.012,3.451,0l2.035.021c.493.005.986,0,1.48,0h.329l.539,0h.4a3.553,3.553,0,0,1,.716.067,1.458,1.458,0,0,1,.736.372,1.554,1.554,0,0,1,.267.346,1.534,1.534,0,0,1,.1.216q.03.079.052.16c.015.054.027.109.038.165a3.33,3.33,0,0,1,.051.439c0,.034,0,.068.006.1,0,.055.007.109.01.164s.007.111.011.167c0,.029,0,.058.006.087.016.262.031.523.048.785s.032.5.044.743c0,.007,0,.014,0,.021.068,1.393.112,2.787.146,4.18.019.79.026,1.579.03,2.369C17.647,244.329,16.715,244.339,15.783,244.387Z" transform="translate(-0.004 -221.879)" fill="#275471"/>
      </g>
    </g>
  </g>
</svg>
