<svg id="icon_hotline" xmlns="http://www.w3.org/2000/svg" width="50" height="42.756" viewBox="0 0 50 42.756">
  <g id="Group_878" data-name="Group 878" transform="translate(0)">
    <path id="Path_1002" data-name="Path 1002" d="M25,34.63c-9.075-.205-17.314,3.141-21.674,11.706C-.6,54.055-.18,63.531.312,71.92c.118,2.024,3.278,2.035,3.158,0q-.043-.734-.083-1.47a1.713,1.713,0,0,0,.4.048c1.211,0,2.419.019,3.625.119,1.551,4.182,5.02,7.329,10.272,6.672a1.666,1.666,0,0,0,1.4-1.151,1.561,1.561,0,0,0,.182-.745c.006-4.091.055-8.183.11-12.274.046-3.352,1.626-9.045-3.521-9.258-4.987-.207-8.334,4.287-9.135,8.742H4.08a1.351,1.351,0,0,0-.139-.014H3.214A42.11,42.11,0,0,1,5.1,50.24a17.424,17.424,0,0,1,6.4-8.816,21.573,21.573,0,0,1,12.374-3.641,1.711,1.711,0,0,0,.388.028c.245-.011.49-.017.736-.022s.491.011.736.022a1.713,1.713,0,0,0,.388-.028A21.568,21.568,0,0,1,38.5,41.424a17.424,17.424,0,0,1,6.4,8.816,42.114,42.114,0,0,1,1.889,12.349h-.231a1.3,1.3,0,0,0-.3.038,1.655,1.655,0,0,0-.2-.023H43.286c.07,0-1.233-3.713-1.41-4.032A8.771,8.771,0,0,0,38.954,55.4c-1.612-1.04-8.378-3.4-8.372.414.01,6.527.148,13.054.157,19.581a1.569,1.569,0,0,0,.182.744,1.666,1.666,0,0,0,1.4,1.151c5.251.657,8.721-2.49,10.272-6.672,1.206-.1,2.414-.118,3.625-.118a1.737,1.737,0,0,0,.4-.048q-.039.736-.083,1.47c-.12,2.035,3.039,2.024,3.158,0,.492-8.389.917-17.865-3.013-25.584C42.315,37.771,34.076,34.425,25,34.63ZM16.254,57.076c-.022,5.694-.122,11.387-.144,17.082C7.577,73.428,7.064,57.263,16.254,57.076ZM3.941,65.762H6.485A16,16,0,0,0,6.619,67.4c-.818-.045-1.638-.056-2.458-.059a1.325,1.325,0,0,0-.309-.04h-.6q-.025-.769-.039-1.541h.73Zm29.949,8.4c-.021-5.695-.122-11.388-.144-17.082C42.937,57.263,42.423,73.428,33.89,74.158Zm12.86-6.845a1.3,1.3,0,0,0-.292.051,1.486,1.486,0,0,0-.244-.022c-.946,0-1.889.011-2.832.062a15.974,15.974,0,0,0,.134-1.642h2.541c.022,0,.039-.006.06-.007s.05.008.076.008h.6Q46.775,66.538,46.75,67.312Z" transform="translate(-0.001 -34.621)" fill="#fff"/>
  </g>
</svg>
