<?xml version="1.0" encoding="UTF-8"?>
<svg xmlns="http://www.w3.org/2000/svg" xmlns:xlink="http://www.w3.org/1999/xlink" width="24pt" height="23pt" viewBox="0 0 24 23" version="1.1">
<g id="surface1">
<path style=" stroke:none;fill-rule:nonzero;fill:rgb(100%,100%,100%);fill-opacity:1;" d="M 23.332031 20.984375 C 22.792969 20.984375 22.253906 20.988281 21.714844 21 C 21.351562 16.828125 21.113281 12.652344 20.882812 8.476562 C 20.9375 8.339844 20.953125 8.191406 20.925781 8.046875 C 20.886719 7.816406 20.871094 7.585938 20.871094 7.355469 C 21.332031 7.371094 21.792969 7.390625 22.257812 7.417969 C 22.410156 7.433594 22.566406 7.386719 22.683594 7.289062 C 22.804688 7.1875 22.875 7.046875 22.878906 6.894531 C 22.988281 6.667969 22.921875 6.398438 22.71875 6.246094 C 21.953125 5.597656 21.148438 4.996094 20.308594 4.4375 C 20.3125 4.417969 20.316406 4.394531 20.316406 4.371094 C 20.3125 3.097656 20.257812 1.828125 20.253906 0.554688 C 20.257812 0.421875 20.203125 0.296875 20.101562 0.203125 C 20.003906 0.113281 19.871094 0.0664062 19.738281 0.078125 C 19.699219 0.0703125 19.664062 0.0625 19.625 0.0625 C 18.472656 0.00390625 17.316406 0 16.160156 0 C 16.027344 -0.00390625 15.898438 0.046875 15.808594 0.140625 C 15.714844 0.230469 15.667969 0.359375 15.671875 0.488281 C 15.660156 0.527344 15.65625 0.570312 15.65625 0.617188 C 15.65625 1.015625 15.652344 1.414062 15.636719 1.808594 C 14.351562 1.191406 13.039062 0.621094 11.722656 0.0742188 C 11.507812 -0.015625 11.257812 0.00390625 11.0625 0.132812 C 10.945312 0.136719 10.832031 0.171875 10.734375 0.234375 C 7.109375 2.519531 3.742188 5.152344 0.28125 7.664062 C -0.332031 8.109375 0.164062 9.074219 0.773438 8.855469 C 1.042969 8.835938 1.316406 8.816406 1.585938 8.796875 C 1.875 13.039062 1.644531 17.296875 1.960938 21.539062 C 1.625 21.535156 1.289062 21.53125 0.953125 21.523438 C 0.0664062 21.503906 0.0703125 22.855469 0.960938 22.875 C 4.347656 22.945312 7.730469 22.84375 11.113281 22.710938 C 14.300781 22.648438 17.488281 22.53125 20.671875 22.367188 C 21.558594 22.347656 22.445312 22.335938 23.332031 22.335938 C 23.703125 22.316406 23.992188 22.019531 23.992188 21.660156 C 23.992188 21.296875 23.699219 21 23.332031 20.984375 Z M 16.65625 0.984375 C 17.519531 0.984375 18.382812 0.996094 19.246094 1.03125 C 19.257812 1.953125 19.285156 2.875 19.300781 3.796875 C 18.425781 3.257812 17.53125 2.757812 16.613281 2.296875 C 16.644531 1.859375 16.65625 1.421875 16.65625 0.984375 Z M 11.394531 21.351562 C 10.320312 21.394531 9.25 21.429688 8.175781 21.464844 C 8.101562 20.695312 8.0625 19.925781 8.042969 19.152344 C 8.140625 19.210938 8.253906 19.238281 8.371094 19.238281 C 8.722656 19.230469 9.007812 18.945312 9.007812 18.597656 C 9.007812 18.253906 8.722656 17.96875 8.371094 17.960938 C 8.25 17.957031 8.136719 17.988281 8.035156 18.050781 C 8.039062 17.300781 8.0625 16.550781 8.109375 15.800781 C 9.003906 15.175781 10.171875 15.050781 11.183594 15.472656 C 11.378906 17.425781 11.449219 19.386719 11.394531 21.351562 Z M 12.703125 21.296875 C 12.757812 19.222656 12.675781 17.148438 12.453125 15.085938 C 12.445312 14.988281 12.414062 14.898438 12.367188 14.8125 C 12.324219 14.652344 12.207031 14.519531 12.050781 14.453125 C 10.5 13.652344 8.613281 13.808594 7.222656 14.851562 C 7.160156 14.898438 7.105469 14.953125 7.0625 15.019531 C 6.917969 15.132812 6.828125 15.300781 6.820312 15.484375 C 6.664062 17.480469 6.683594 19.488281 6.871094 21.484375 C 5.667969 21.492188 4.46875 21.488281 3.269531 21.480469 C 2.957031 17.25 3.183594 13.003906 2.898438 8.773438 C 2.894531 8.75 2.890625 8.722656 2.882812 8.695312 C 8.445312 8.226562 13.984375 7.328125 19.566406 7.335938 C 19.574219 7.539062 19.582031 7.738281 19.605469 7.941406 C 19.570312 8.027344 19.554688 8.121094 19.558594 8.214844 C 19.59375 8.769531 19.625 9.324219 19.652344 9.878906 C 19.492188 9.421875 19.207031 9.019531 18.828125 8.710938 C 17.035156 7.246094 13.902344 8.160156 14.023438 10.664062 C 14.058594 11.433594 14.324219 12.171875 14.789062 12.792969 C 16.03125 14.09375 18.109375 13.320312 19.160156 12.214844 C 19.4375 11.925781 19.632812 11.574219 19.726562 11.1875 C 19.917969 14.46875 20.125 17.75 20.410156 21.023438 C 17.839844 21.078125 15.273438 21.191406 12.703125 21.296875 Z M 18.378906 11.089844 C 18.363281 11.121094 18.351562 11.148438 18.332031 11.179688 C 18.117188 11.53125 17.796875 11.808594 17.417969 11.976562 L 17.417969 11.109375 C 17.738281 11.101562 18.058594 11.09375 18.378906 11.089844 Z M 17.417969 10.125 L 17.417969 9.394531 C 17.546875 9.433594 17.671875 9.484375 17.792969 9.550781 C 18.03125 9.675781 18.226562 9.871094 18.351562 10.105469 C 18.039062 10.109375 17.730469 10.113281 17.417969 10.125 Z M 15.515625 10.199219 C 15.527344 10.175781 15.539062 10.152344 15.554688 10.125 C 15.738281 9.789062 16.042969 9.527344 16.410156 9.398438 L 16.410156 10.160156 C 16.113281 10.171875 15.8125 10.1875 15.515625 10.199219 Z M 16.410156 11.144531 L 16.410156 12.167969 C 16.199219 12.152344 15.996094 12.085938 15.816406 11.980469 C 15.53125 11.808594 15.347656 11.519531 15.3125 11.195312 C 15.679688 11.179688 16.046875 11.160156 16.410156 11.144531 Z M 2.765625 7.429688 C 5.597656 5.339844 8.410156 3.21875 11.394531 1.339844 C 11.402344 1.335938 11.40625 1.328125 11.414062 1.324219 C 14.550781 2.636719 17.679688 4.074219 20.417969 6.070312 C 14.507812 5.960938 8.652344 6.9375 2.765625 7.429688 Z M 2.765625 7.429688 "/>
</g>
</svg>
