<svg xmlns="http://www.w3.org/2000/svg" xmlns:xlink="http://www.w3.org/1999/xlink" width="120" height="120" viewBox="0 0 120 120">
  <defs>
    <clipPath id="clip-path">
      <rect id="Rectangle_299" data-name="Rectangle 299" width="120" height="120" transform="translate(-20144 6296)" fill="#fff" opacity="0"/>
    </clipPath>
  </defs>
  <g id="icon_tuyen_chon" transform="translate(20144 -6296)">
    <g id="Mask_Group_159" data-name="Mask Group 159" clip-path="url(#clip-path)">
      <path id="Path_883" data-name="Path 883" d="M1.134,21.38A60.938,60.938,0,0,0,7.027,61.23c21.266,40.812,78.591,25.76,92.707-12.716,2.466-6.657,3.5-14.59-.468-20.471-4.45-6.6-13.456-8.18-21.414-8.013s-16.285,1.381-23.6-1.769C42.02,12.978,36.855-1.341,21.525.1,9.388,1.236,3.384,10.371,1.134,21.38Z" transform="translate(-20071.934 6412.191) rotate(-135)" fill="#b6eed2"/>
    </g>
    <g id="chicken-hand-drawn-outline" transform="translate(-20123 6256.023)">
      <g id="Group_911" data-name="Group 911" transform="translate(0.001 68.759)">
        <path id="Path_1021" data-name="Path 1021" d="M409.969,344.693c-.617,0-.624-.44-1,0a4.734,4.734,0,0,0-1,2,1.918,1.918,0,0,0,2,2,3.423,3.423,0,0,0,2-1c.325-.38,1-.47,1-1C412.971,345.681,411.3,344.693,409.969,344.693Z" transform="translate(-350.969 -305.476)" fill="#275471"/>
        <path id="Path_1022" data-name="Path 1022" d="M434.922,310.433a4.691,4.691,0,0,0-1,2,1.917,1.917,0,0,0,2,2,3.412,3.412,0,0,0,2-1c.325-.379,0-.472,0-1a1.916,1.916,0,0,0-2-2C435.3,310.433,435.3,309.994,434.922,310.433Z" transform="translate(-372.923 -276.215)" fill="#275471"/>
        <path id="Path_1023" data-name="Path 1023" d="M430.545,269.686c-.326.379-1,.472-1,1,0,1.014,1.67,2,3,2,.618,0,.623-.559,1-1,.325-.381,1-.47,1-1a1.917,1.917,0,0,0-2-2A3.434,3.434,0,0,0,430.545,269.686Z" transform="translate(-369.546 -240.468)" fill="#275471"/>
        <path id="Path_1024" data-name="Path 1024" d="M394.529,298.665a1.917,1.917,0,0,0-2-2c-.617,0-1.623-.441-2,0-.326.379,0,1.471,0,2a1.916,1.916,0,0,0,2,2,3.42,3.42,0,0,0,2-1C394.855,299.285,394.529,299.194,394.529,298.665Z" transform="translate(-335.53 -264.448)" fill="#275471"/>
        <path id="Path_1025" data-name="Path 1025" d="M234.287,320.422c.617,0,.622-.56,1-1,.327-.38,1-.471,1-1a1.916,1.916,0,0,0-2-2c-.617,0-1.623-.44-2,0-.326.38,0,1.47,0,2A1.916,1.916,0,0,0,234.287,320.422Z" transform="translate(-199.288 -281.205)" fill="#275471"/>
        <path id="Path_1026" data-name="Path 1026" d="M257.873,244.208a3.421,3.421,0,0,0,2-1c.325-.378,0-.469,0-1a1.916,1.916,0,0,0-2-2,3.423,3.423,0,0,0-2,1c-.327.38,0,.47,0,1A1.918,1.918,0,0,0,257.873,244.208Z" transform="translate(-219.873 -215.991)" fill="#275471"/>
        <path id="Path_1027" data-name="Path 1027" d="M262.99,279.979c-.325.381,0,.47,0,1,0,1.014.67,3,2,3a3.412,3.412,0,0,0,2-1c.326-.379,0-1.471,0-2a1.917,1.917,0,0,0-2-2A3.416,3.416,0,0,0,262.99,279.979Z" transform="translate(-225.991 -249.762)" fill="#275471"/>
        <path id="Path_1028" data-name="Path 1028" d="M199.113,321.469c.617,0,.622-.559,1-1,.327-.378,1-.472,1-1a1.917,1.917,0,0,0-2-2c-.617,0-1.622-.44-2,0-.326.38,0,1.47,0,2A1.917,1.917,0,0,0,199.113,321.469Z" transform="translate(-169.115 -282.252)" fill="#275471"/>
        <path id="Path_1029" data-name="Path 1029" d="M372.85,335.737c-.619,0-.624.559-1,1-.326.378-1,.471-1,1,0,1.014.67,3,2,3a3.419,3.419,0,0,0,2-1c.326-.378,0-1.471,0-2A1.917,1.917,0,0,0,372.85,335.737Z" transform="translate(-318.851 -298.519)" fill="#275471"/>
        <path id="Path_1030" data-name="Path 1030" d="M398.9,256.768c.62,0,.624-.56,1-1,.326-.379,1-.471,1-1a1.916,1.916,0,0,0-2-2c-.617,0-1.624-.439-2,0-.325.379,0,1.469,0,2A1.919,1.919,0,0,0,398.9,256.768Z" transform="translate(-340.902 -226.55)" fill="#275471"/>
        <path id="Path_1031" data-name="Path 1031" d="M66,87.977c-3.885-6.321-8.907-11.452-16-14a22.527,22.527,0,0,0-20,2c-.509-.441-1.482-.332-2-1a6.182,6.182,0,0,0-1-5c-.905-1.008-1.533-1-3-1-1.583,0-3.136-.149-4,1-.583.777-.868,2.777-1,4-1.907.317-4.466,1.3-5,3-.51,1.629.337,2.983,2,4,1.8,1.1,5.762,1.058,6,1,.05.031.615-.251,1,0a45.21,45.21,0,0,0-5,6,9.073,9.073,0,0,1-4-3,4.091,4.091,0,0,0-1-4,6,6,0,0,0-4-2c-1.583,0-2.136.851-3,2-.582.776-1.868,1.778-2,3a4.664,4.664,0,0,0-4,3,4.722,4.722,0,0,0,2,5c1.8,1.1,4.762.057,5,0,.08.049.9-.056,1,0a5.791,5.791,0,0,1,1,1c.034.091.048-.148,0,0-.15.467-.619,1.329,0,2a7.166,7.166,0,0,0,2,1c.4.2.736-.2,1,0,.527.412.518,1.531,1,2-2.92,5.409-3.858,13.392,1,18,3.491,3.31,9.452,4.247,14,5,6.375,1.053,13.572.571,20,0,8.089-.721,18.59-1.572,23-9C75.382,104.6,69.946,94.394,66,87.977Zm-47-9c-.831,0-1.126-.225-1-1,.173-1.057,1.625-1.308,3-1,.815.184,1.419-.75,1-2a2.334,2.334,0,0,1,1-3c.988-.418,1.734-.35,2,0a3.941,3.941,0,0,1,0,3c-.188.469-.24.578,0,1a18.346,18.346,0,0,0,2,2c-.629.619-1.316,1.286-2,2-.572-.44-1.324-1.675-2-2C22.069,77.529,19.6,78.977,19,78.977Zm-9,11c-.573-.44-.324-.675-1-1-.932-.447-3.4,0-4,0-.832,0-2.126-.225-2-1,.173-1.058,1.625-1.308,3-1,.815.184,2.419-.749,2-2a2.335,2.335,0,0,1,1-3c.99-.419,1.735.65,2,1,.366.48-.588.976-1,2-.189.468.759.579,1,1a7.115,7.115,0,0,0,1,2C11.371,88.6,10.684,89.262,10,89.977Zm2,3,3-3a8.934,8.934,0,0,0,5,2c1.6,0,2.45-.616,4-1a27.549,27.549,0,0,1,10-1c2.576.352,6.557,1.492,8,5,1.451,3.535.421,7.2-2,10-2.487,2.875-5.586,4.664-9,4-2.574-.5-5.783-1.5-8-4-1.029-1.161-2.045-2.773-3-4C17.7,98.01,15.319,95.011,12,92.977Zm52,21c-5.239,3.433-13.791,4.756-20,5-9.319.369-24.013-1.074-28-5-1.714-1.688-2.97-8.238,0-14,.674.826,1.362,2.159,2,3,2.13,2.808,3.86,5.1,7,7a13.26,13.26,0,0,0,7,2h0c4.822,0,9.581-1.845,12-6a14.9,14.9,0,0,0,1-12c-1.3-3.379-4.568-4.909-8-6a19.981,19.981,0,0,0-10-1c-.962.148-2.048.763-3,1s-2.059-.141-3,0c6.595-9.476,17.4-15.617,29-10,5,2.42,10.817,8.564,14,13C68.628,97.424,72.346,108.5,64,113.977Z" transform="translate(-0.001 -68.759)" fill="#275471"/>
      </g>
    </g>
  </g>
</svg>
