<svg xmlns="http://www.w3.org/2000/svg" width="50" height="50" viewBox="0 0 50 50">
  <g id="icon_dang_xuat" transform="translate(18440 -57)">
    <circle id="Ellipse_54" data-name="Ellipse 54" cx="25" cy="25" r="25" transform="translate(-18440 57)" fill="#e8f8f7"/>
    <g id="logout" transform="translate(-18423.014 73.024)">
      <g id="Group_5858" data-name="Group 5858" transform="translate(0.014)">
        <g id="Group_5857" data-name="Group 5857">
          <path id="Path_37880" data-name="Path 37880" d="M307.245,152.461a.873.873,0,0,0-.187-.281l-2.589-2.589a.863.863,0,0,0-1.22,1.22l1.116,1.116h-4.822a.863.863,0,1,0,0,1.726h4.821l-1.116,1.116a.863.863,0,1,0,1.221,1.22l2.589-2.589a.855.855,0,0,0,.187-.281A.864.864,0,0,0,307.245,152.461Z" transform="translate(-286.596 -143.297)" fill="#275471"/>
          <path id="Path_37881" data-name="Path 37881" d="M14.687,12.084a.863.863,0,0,0-.863.863v4.316H10.372V3.453a.864.864,0,0,0-.615-.827l-3-.9h7.066V6.042a.863.863,0,1,0,1.726,0V.863A.863.863,0,0,0,14.687,0H.877A.769.769,0,0,0,.788.016.852.852,0,0,0,.422.144C.4.156.38.157.362.171S.352.186.345.191a.855.855,0,0,0-.23.273A.7.7,0,0,0,.092.536a.819.819,0,0,0-.068.2.537.537,0,0,0,0,.075C.025.83.014.846.014.863V18.126a.862.862,0,0,0,.694.846L9.339,20.7a.8.8,0,0,0,.169.017.864.864,0,0,0,.863-.863v-.863h4.316a.863.863,0,0,0,.863-.863V12.947A.863.863,0,0,0,14.687,12.084Z" transform="translate(-0.014)" fill="#275471"/>
        </g>
      </g>
    </g>
  </g>
</svg>
