<?xml version="1.0" encoding="UTF-8"?>
<svg xmlns="http://www.w3.org/2000/svg" xmlns:xlink="http://www.w3.org/1999/xlink" width="50pt" height="50pt" viewBox="0 0 50 50" version="1.1">
<g id="surface1">
<path style=" stroke:none;fill-rule:nonzero;fill:rgb(0%,0%,0%);fill-opacity:1;" d="M 49.839844 22.121094 C 49.734375 21.867188 49.582031 21.636719 49.390625 21.441406 L 43.140625 15.191406 C 42.328125 14.378906 41.007812 14.378906 40.195312 15.191406 C 39.378906 16.007812 39.378906 17.328125 40.195312 18.140625 L 42.890625 20.832031 L 31.25 20.832031 C 30.097656 20.832031 29.167969 21.765625 29.167969 22.917969 C 29.167969 24.066406 30.097656 25 31.25 25 L 42.890625 25 L 40.195312 27.691406 C 39.378906 28.507812 39.378906 29.828125 40.195312 30.640625 C 40.601562 31.046875 41.132812 31.25 41.667969 31.25 C 42.203125 31.25 42.734375 31.046875 43.140625 30.640625 L 49.390625 24.390625 C 49.582031 24.199219 49.734375 23.96875 49.839844 23.710938 C 50.050781 23.203125 50.050781 22.628906 49.839844 22.121094 Z M 49.839844 22.121094 "/>
<path style=" stroke:none;fill-rule:nonzero;fill:rgb(0%,0%,0%);fill-opacity:1;" d="M 35.417969 29.167969 C 34.265625 29.167969 33.335938 30.101562 33.335938 31.25 L 33.335938 41.667969 L 25 41.667969 L 25 8.332031 C 25 7.414062 24.398438 6.601562 23.515625 6.335938 L 16.28125 4.167969 L 33.335938 4.167969 L 33.335938 14.582031 C 33.335938 15.734375 34.265625 16.667969 35.417969 16.667969 C 36.570312 16.667969 37.5 15.734375 37.5 14.582031 L 37.5 2.082031 C 37.5 0.933594 36.570312 0 35.417969 0 L 2.085938 0 C 2.007812 0 1.941406 0.03125 1.871094 0.0390625 C 1.773438 0.0507812 1.683594 0.0664062 1.589844 0.0898438 C 1.371094 0.144531 1.171875 0.230469 0.988281 0.347656 C 0.941406 0.378906 0.886719 0.378906 0.839844 0.414062 C 0.824219 0.425781 0.816406 0.449219 0.800781 0.460938 C 0.574219 0.640625 0.382812 0.859375 0.246094 1.117188 C 0.21875 1.175781 0.210938 1.234375 0.1875 1.292969 C 0.121094 1.453125 0.0507812 1.605469 0.0234375 1.78125 C 0.015625 1.84375 0.03125 1.902344 0.03125 1.960938 C 0.0273438 2.003906 0 2.042969 0 2.082031 L 0 43.75 C 0 44.742188 0.703125 45.597656 1.675781 45.792969 L 22.507812 49.957031 C 22.644531 49.988281 22.78125 50 22.917969 50 C 23.394531 50 23.863281 49.835938 24.238281 49.527344 C 24.71875 49.132812 25 48.542969 25 47.917969 L 25 45.832031 L 35.417969 45.832031 C 36.570312 45.832031 37.5 44.898438 37.5 43.75 L 37.5 31.25 C 37.5 30.101562 36.570312 29.167969 35.417969 29.167969 Z M 35.417969 29.167969 "/>
</g>
</svg>
