<svg xmlns="http://www.w3.org/2000/svg" width="50" height="47.638" viewBox="0 0 50 47.638">
  <g id="icon_khoi_luong" transform="translate(0 0)">
    <g id="kilogram" transform="translate(0 0)">
      <path id="Path_978" data-name="Path 978" d="M49.822,52.42l-6.01-24.139A5.881,5.881,0,0,0,38.1,23.814H30.855a7.324,7.324,0,1,0-11.71,0H11.97a5.883,5.883,0,0,0-5.712,4.452L.181,52.405a5.889,5.889,0,0,0,5.712,7.328H44.106a5.889,5.889,0,0,0,5.716-7.313Zm-29.217-33A4.394,4.394,0,1,1,25,23.814,4.4,4.4,0,0,1,20.605,19.42ZM44.106,56.8H5.893a2.96,2.96,0,0,1-2.871-3.683L9.1,28.982a2.957,2.957,0,0,1,2.871-2.238H38.1a2.956,2.956,0,0,1,2.873,2.245l6.01,24.139A2.96,2.96,0,0,1,44.106,56.8Z" transform="translate(0 -12.096)" fill="#275471"/>
      <path id="Path_979" data-name="Path 979" d="M138.18,251.053l4.645-4.27a1.517,1.517,0,0,0-2.053-2.233l-3.657,3.361v-2.39a1.517,1.517,0,1,0-3.033,0v11.525a1.517,1.517,0,1,0,3.033,0v-2.806l4.039,3.9a1.517,1.517,0,1,0,2.106-2.183Z" transform="translate(-121.095 -221.693)" fill="#275471"/>
      <path id="Path_980" data-name="Path 980" d="M253.978,249.766H250.53a1.517,1.517,0,1,0,0,3.033h1.743a3.275,3.275,0,0,1-3.27,2.73,4.246,4.246,0,1,1,2.373-7.768,1.517,1.517,0,0,0,1.7-2.513A7.28,7.28,0,1,0,249,258.562c3.822,0,6.491-2.993,6.491-7.279A1.517,1.517,0,0,0,253.978,249.766Z" transform="translate(-218.421 -221.691)" fill="#275471"/>
    </g>
  </g>
</svg>
