<svg xmlns="http://www.w3.org/2000/svg" width="50.504" height="42.682" viewBox="0 0 50.504 42.682">
  <g id="icon_gio_hang_1" transform="translate(19842.25 -1177.75)">
    <g id="Group_4611" data-name="Group 4611" transform="translate(-19842 1178)">
      <g id="online-shop" transform="translate(0)">
        <path id="Path_986" data-name="Path 986" d="M11.377,24.015a1.277,1.277,0,0,0-1.06-.81H1.446a1.459,1.459,0,0,1,0-2.918h8.871a4.173,4.173,0,0,1,3.841,2.935l2.4,8.564a3.18,3.18,0,0,1,.863-.122H46.079a3.19,3.19,0,0,1,2.376,1.048,3.256,3.256,0,0,1,.8,2.49L47.918,48.885a3.616,3.616,0,0,1-3.554,3.252H22.118a4.134,4.134,0,0,1-3.824-2.956L15.507,38.773Zm9.707,24.4a1.24,1.24,0,0,0,1.035.8H44.364a.737.737,0,0,0,.678-.62l1.337-13.682a.31.31,0,0,0-.065-.244.3.3,0,0,0-.234-.089H17.38c0,.011,0,.023.008.037Z" transform="translate(0.73 -20.287)" fill="#fff" stroke="#fff" stroke-width="0.5"/>
        <path id="Path_987" data-name="Path 987" d="M28.569,192.543a4.538,4.538,0,1,1-4.538,4.538A4.544,4.544,0,0,1,28.569,192.543Zm0,6.159a1.62,1.62,0,1,0-1.62-1.62A1.622,1.622,0,0,0,28.569,198.7Z" transform="translate(12.218 -159.437)" fill="#fff" stroke="#fff" stroke-width="0.5"/>
        <path id="Path_988" data-name="Path 988" d="M102.538,192.543A4.538,4.538,0,1,1,98,197.081,4.544,4.544,0,0,1,102.538,192.543Zm0,6.159a1.62,1.62,0,1,0-1.62-1.62A1.622,1.622,0,0,0,102.538,198.7Z" transform="translate(-75.92 -159.437)" fill="#fff" stroke="#fff" stroke-width="0.5"/>
        <path id="Path_989" data-name="Path 989" d="M196.317,81.271H206.85a.973.973,0,1,1,0,1.945H196.317a.973.973,0,0,1,0-1.945Z" transform="translate(-195.344 -69.525)" fill="#fff" stroke="#fff" stroke-width="0.5"/>
        <path id="Path_990" data-name="Path 990" d="M187.312,104.545h9.365a.973.973,0,1,1,0,1.945h-9.365a.973.973,0,0,1,0-1.945Z" transform="translate(-183.419 -88.317)" fill="#fff" stroke="#fff" stroke-width="0.5"/>
        <path id="Path_991" data-name="Path 991" d="M181.31,127.82h8a.973.973,0,0,1,0,1.945h-8a.973.973,0,0,1,0-1.945Z" transform="translate(-174.886 -107.109)" fill="#fff" stroke="#fff" stroke-width="0.5"/>
      </g>
    </g>
  </g>
</svg>
