<svg xmlns="http://www.w3.org/2000/svg" width="50" height="50" viewBox="0 0 50 50">
  <g id="icon_gio_hang" transform="translate(18237 -57)">
    <circle id="Ellipse_57" data-name="Ellipse 57" cx="25" cy="25" r="25" transform="translate(-18237 57)" fill="#f3e4dc"/>
    <g id="online-shop" transform="translate(-18226.996 73)">
      <path id="Path_986" data-name="Path 986" d="M6.088,22.262a.682.682,0,0,0-.567-.429H.774a.773.773,0,1,1,0-1.546H5.521a2.23,2.23,0,0,1,2.055,1.555L8.858,26.38a1.717,1.717,0,0,1,.462-.064H24.656a1.691,1.691,0,0,1,1.7,1.875l-.715,7.25a1.928,1.928,0,0,1-1.9,1.723h-11.9A2.209,2.209,0,0,1,9.789,35.6L8.3,30.083Zm5.194,12.931a.662.662,0,0,0,.554.424h11.9a.393.393,0,0,0,.363-.329l.715-7.25a.147.147,0,0,0-.16-.177H9.3c0,.006,0,.012,0,.019Z" transform="translate(0.386 -20.287)" fill="#275471"/>
      <path id="Path_987" data-name="Path 987" d="M26.436,192.543a2.4,2.4,0,1,1-2.4,2.4A2.408,2.408,0,0,1,26.436,192.543Zm0,3.263a.859.859,0,1,0-.859-.859A.86.86,0,0,0,26.436,195.806Z" transform="translate(-4.568 -174.785)" fill="#275471"/>
      <path id="Path_988" data-name="Path 988" d="M100.4,192.543a2.4,2.4,0,1,1-2.4,2.4A2.408,2.408,0,0,1,100.4,192.543Zm0,3.263a.859.859,0,1,0-.859-.859A.86.86,0,0,0,100.4,195.806Z" transform="translate(-86.162 -174.785)" fill="#275471"/>
      <path id="Path_989" data-name="Path 989" d="M195.859,81.271h5.582a.515.515,0,1,1,0,1.031h-5.582a.515.515,0,1,1,0-1.031Z" transform="translate(-195.344 -74.984)" fill="#275471"/>
      <path id="Path_990" data-name="Path 990" d="M186.854,104.545h4.962a.515.515,0,1,1,0,1.031h-4.962a.515.515,0,1,1,0-1.031Z" transform="translate(-184.792 -95.859)" fill="#275471"/>
      <path id="Path_991" data-name="Path 991" d="M180.852,127.82h4.24a.515.515,0,0,1,0,1.031h-4.24a.515.515,0,0,1,0-1.031Z" transform="translate(-177.448 -116.735)" fill="#275471"/>
    </g>
  </g>
</svg>
