<?xml version="1.0" encoding="UTF-8"?>
<svg xmlns="http://www.w3.org/2000/svg" xmlns:xlink="http://www.w3.org/1999/xlink" width="48pt" height="35pt" viewBox="0 0 48 35" version="1.1">
<g id="surface1">
<path style=" stroke:none;fill-rule:nonzero;fill:rgb(43.921569%,43.921569%,43.921569%);fill-opacity:1;" d="M 43.871094 15.589844 L 40.109375 9.875 L 32.054688 9.875 L 32.578125 6.453125 L 29.144531 6.453125 C 28.78125 2.789062 25.734375 0 22.09375 0 C 18.457031 0 15.40625 2.789062 15.046875 6.453125 L 6.332031 6.453125 L 6.332031 7.878906 L 15.046875 7.878906 C 15.40625 11.542969 18.457031 14.335938 22.09375 14.335938 C 25.734375 14.335938 28.78125 11.542969 29.144531 7.878906 L 30.9375 7.878906 L 28.339844 24.78125 L 15.195312 24.78125 C 14 22.890625 11.929688 21.746094 9.710938 21.746094 C 7.488281 21.746094 5.421875 22.890625 4.226562 24.78125 L 0 24.78125 L 0 29.054688 L 3.226562 29.054688 C 3.585938 32.40625 6.382812 34.941406 9.710938 34.941406 C 13.039062 34.941406 15.832031 32.40625 16.191406 29.054688 L 29.589844 29.054688 C 29.949219 32.40625 32.746094 34.941406 36.074219 34.941406 C 39.402344 34.941406 42.195312 32.40625 42.554688 29.054688 L 48.035156 29.054688 L 48.035156 20.175781 C 48.03125 17.785156 46.222656 15.796875 43.871094 15.589844 Z M 22.089844 12.914062 C 18.953125 12.914062 16.414062 10.339844 16.414062 7.167969 C 16.414062 3.996094 18.953125 1.421875 22.089844 1.421875 C 25.226562 1.421875 27.769531 3.996094 27.769531 7.167969 C 27.765625 10.339844 25.226562 12.910156 22.09375 12.914062 Z M 3.226562 27.632812 L 1.40625 27.632812 L 1.40625 26.207031 L 3.542969 26.207031 C 3.386719 26.671875 3.28125 27.148438 3.226562 27.632812 Z M 9.710938 33.523438 C 6.886719 33.523438 4.597656 31.203125 4.597656 28.347656 C 4.597656 25.488281 6.886719 23.171875 9.710938 23.171875 C 12.535156 23.171875 14.824219 25.488281 14.824219 28.347656 C 14.820312 31.203125 12.53125 33.519531 9.710938 33.523438 Z M 35.167969 11.300781 L 39.355469 11.300781 L 42.171875 15.574219 L 34.464844 15.574219 Z M 29.589844 27.632812 L 16.191406 27.632812 C 16.140625 27.148438 16.035156 26.671875 15.878906 26.210938 L 29.90625 26.210938 C 29.75 26.671875 29.644531 27.148438 29.589844 27.632812 Z M 36.074219 33.523438 C 33.25 33.523438 30.960938 31.203125 30.960938 28.347656 C 30.960938 25.488281 33.25 23.171875 36.074219 23.171875 C 38.898438 23.171875 41.1875 25.488281 41.1875 28.34375 C 41.183594 31.203125 38.898438 33.515625 36.074219 33.519531 Z M 46.628906 27.632812 L 42.554688 27.632812 C 42.503906 27.148438 42.398438 26.671875 42.242188 26.210938 L 46.628906 26.210938 Z M 46.628906 24.785156 L 41.558594 24.785156 C 40.363281 22.894531 38.292969 21.75 36.074219 21.75 C 33.855469 21.75 31.785156 22.894531 30.589844 24.785156 L 29.761719 24.785156 L 31.832031 11.300781 L 33.738281 11.300781 L 32.800781 17 L 43.484375 17 C 44.949219 17 46.21875 18.023438 46.546875 19.46875 L 44.046875 19.46875 C 42.882812 19.46875 41.9375 20.425781 41.9375 21.605469 C 41.9375 22.785156 42.882812 23.742188 44.046875 23.742188 L 46.628906 23.742188 Z M 46.628906 22.316406 L 44.046875 22.316406 C 43.660156 22.316406 43.34375 21.996094 43.34375 21.605469 C 43.34375 21.210938 43.660156 20.890625 44.046875 20.890625 L 46.628906 20.890625 Z M 46.628906 22.316406 "/>
<path style=" stroke:none;fill-rule:nonzero;fill:rgb(43.921569%,43.921569%,43.921569%);fill-opacity:1;" d="M 1.453125 10.066406 L 2.863281 10.066406 L 2.863281 11.488281 L 1.453125 11.488281 Z M 1.453125 10.066406 "/>
<path style=" stroke:none;fill-rule:nonzero;fill:rgb(43.921569%,43.921569%,43.921569%);fill-opacity:1;" d="M 4.269531 10.066406 L 10.554688 10.066406 L 10.554688 11.488281 L 4.269531 11.488281 Z M 4.269531 10.066406 "/>
<path style=" stroke:none;fill-rule:nonzero;fill:rgb(43.921569%,43.921569%,43.921569%);fill-opacity:1;" d="M 4.363281 13.53125 L 5.769531 13.53125 L 5.769531 14.957031 L 4.363281 14.957031 Z M 4.363281 13.53125 "/>
<path style=" stroke:none;fill-rule:nonzero;fill:rgb(43.921569%,43.921569%,43.921569%);fill-opacity:1;" d="M 7.175781 13.53125 L 15.246094 13.53125 L 15.246094 14.957031 L 7.175781 14.957031 Z M 7.175781 13.53125 "/>
<path style=" stroke:none;fill-rule:nonzero;fill:rgb(43.921569%,43.921569%,43.921569%);fill-opacity:1;" d="M 2.957031 16.996094 L 11.023438 16.996094 L 11.023438 18.421875 L 2.957031 18.421875 Z M 2.957031 16.996094 "/>
<path style=" stroke:none;fill-rule:nonzero;fill:rgb(43.921569%,43.921569%,43.921569%);fill-opacity:1;" d="M 0.140625 16.996094 L 1.546875 16.996094 L 1.546875 18.421875 L 0.140625 18.421875 Z M 0.140625 16.996094 "/>
<path style=" stroke:none;fill-rule:nonzero;fill:rgb(43.921569%,43.921569%,43.921569%);fill-opacity:1;" d="M 9.710938 26.207031 C 8.542969 26.207031 7.597656 27.164062 7.597656 28.34375 C 7.597656 29.523438 8.542969 30.480469 9.710938 30.480469 C 10.875 30.480469 11.820312 29.523438 11.820312 28.34375 C 11.820312 27.164062 10.875 26.210938 9.710938 26.207031 Z M 9.007812 28.34375 C 9.007812 27.953125 9.320312 27.632812 9.710938 27.632812 C 10.097656 27.632812 10.414062 27.953125 10.414062 28.34375 C 10.414062 28.738281 9.007812 29.285156 9.007812 28.34375 Z M 9.007812 28.34375 "/>
<path style=" stroke:none;fill-rule:nonzero;fill:rgb(43.921569%,43.921569%,43.921569%);fill-opacity:1;" d="M 36.074219 26.207031 C 34.90625 26.207031 33.960938 27.164062 33.960938 28.34375 C 33.960938 29.523438 34.90625 30.480469 36.074219 30.480469 C 37.238281 30.480469 38.183594 29.523438 38.183594 28.34375 C 38.183594 27.164062 37.238281 26.210938 36.074219 26.207031 Z M 36.074219 29.058594 C 35.683594 29.058594 35.371094 28.738281 35.371094 28.34375 C 35.371094 27.949219 35.683594 27.632812 36.074219 27.632812 C 36.460938 27.632812 36.777344 27.949219 36.777344 28.34375 C 36.777344 28.738281 36.460938 29.058594 36.074219 29.058594 Z M 36.074219 29.058594 "/>
<path style=" stroke:none;fill-rule:nonzero;fill:rgb(43.921569%,43.921569%,43.921569%);fill-opacity:1;" d="M 22.890625 3.085938 L 21.484375 3.085938 L 21.484375 8.261719 L 24.816406 8.261719 L 24.816406 6.835938 L 22.890625 6.835938 Z M 22.890625 3.085938 "/>
</g>
</svg>
