<svg xmlns="http://www.w3.org/2000/svg" width="120.441" height="120" viewBox="0 0 120.441 120">
  <g id="icon_dong_goi" transform="translate(19986.441 -6296)">
    <rect id="Rectangle_300" data-name="Rectangle 300" width="120" height="120" transform="translate(-19986 6296)" fill="#fff" opacity="0"/>
    <g id="icon_dong_goi-2" data-name="icon_dong_goi" transform="translate(-243.441 -2.224)">
      <path id="Path_880" data-name="Path 880" d="M12.216,6.134A32.1,32.1,0,0,0,4.589,17.169C2.172,22.9,1.145,29.125.441,35.309c-2.27,20,3.925,43.055,25.408,49.209,14.414,4.107,30.043-.1,43.231-6.213,19.36-8.982,46.686-36.959,23.859-57.733-12.267-11.146-32.09-6.958-46.6-13.041C39.519,4.679,33.118-.571,25.368.051A22.045,22.045,0,0,0,12.216,6.134Z" transform="matrix(-0.966, 0.259, -0.259, -0.966, -19622.559, 6391.927)" fill="#e8f0bd"/>
      <g id="box-package-with-an-up-arrow-hand-drawn-symbol" transform="translate(-19711.688 6280.748)">
        <g id="Group_913" data-name="Group 913" transform="translate(0 52.853)">
          <path id="Path_1034" data-name="Path 1034" d="M64.278,67.505a1.628,1.628,0,0,0-1.319-1.811c-.032-.025-.057-.054-.09-.078-5.707-3.99-11.442-7.943-16.927-12.24a1.912,1.912,0,0,0-.764-.364,1.773,1.773,0,0,0-.8-.16c-13.818.306-27.626.89-41.433,1.49a1.779,1.779,0,0,0-.974.322A1.943,1.943,0,0,0,.03,56.906,160.916,160.916,0,0,1,2.053,87.729a1.577,1.577,0,0,0,.7,1.421,1.68,1.68,0,0,0,.119.141,59.672,59.672,0,0,0,19.148,12.554,1.523,1.523,0,0,0,1.492.787c12.817-.61,25.623-1.464,38.453-1.788a1.909,1.909,0,0,0,.472-.074,1.654,1.654,0,0,0,1.913-1.714q-.419-15.5,0-31A1.888,1.888,0,0,0,64.278,67.505ZM21.759,97.886a55.531,55.531,0,0,1-16.121-10.9A168.515,168.515,0,0,0,4.1,59.92c5.826,3.735,11.6,7.556,17.356,11.394C21.711,80.169,21.925,89.026,21.759,97.886Zm1.158-30.128a1.9,1.9,0,0,0-.284.054Q15,62.724,7.3,57.735c12.267-.527,24.534-1.021,36.809-1.3,4.226,3.28,8.574,6.39,12.95,9.462C45.667,66.36,34.275,66.758,22.917,67.757Zm37.82,29.551c-11.813.329-23.608,1.074-35.41,1.655.208-9.269-.033-18.533-.3-27.8,11.888-.971,23.809-1.338,35.723-1.841Q60.4,83.317,60.737,97.308Z" transform="translate(0 -52.853)" fill="#275471" stroke="#e8f0bd" stroke-width="0.8"/>
          <path id="Path_1035" data-name="Path 1035" d="M266.486,204.229c-3.807-3-6.514-6.073-10.467-8.74a1.2,1.2,0,0,0-2.126.132c-3.595,3.132-5.9,6.514-9.314,9.959-.946.955.26,2.263,1.314,1.919a1.092,1.092,0,0,0,.577.039c1.2-.221,2.406-.4,3.611-.6-.05,2.46.041,7.945-.069,10.4a.986.986,0,0,0,1.025,1.088,1.206,1.206,0,0,0,.463.036c2.182-.249,3.371-.306,4.843-.442,1.478-.047,2.665-.136,4.861-.157a1.206,1.206,0,0,0,.455-.092.986.986,0,0,0,.883-1.207c-.412-2.426-1-7.88-1.347-10.315,1.219.043,2.438.077,3.656.149a1.089,1.089,0,0,0,.568-.109C266.506,206.507,267.541,205.061,266.486,204.229Zm-6.759-.445a.973.973,0,0,0-1.087.967,1.183,1.183,0,0,0-.037.52c.327,2.394.9,7.794,1.307,10.187a1.042,1.042,0,0,0-.81-.193c-1.281.179-2.124.274-2.906.346-.784.025-1.632.034-2.926.013a1.045,1.045,0,0,0-.781.291c.105-2.425.015-7.854.045-10.271a1.168,1.168,0,0,0-.1-.512.973.973,0,0,0-1.2-.827c-.787.14-1.578.262-2.368.386,2.4-2.408,3.815-4.72,6.229-6.919,2.665,1.886,4.358,4.006,7.031,6.1C261.324,203.85,260.524,203.825,259.726,203.784Z" transform="translate(-210.573 -175.319)" fill="#275471" stroke="#e8f0bd" stroke-width="0.8"/>
        </g>
      </g>
    </g>
  </g>
</svg>
