<svg xmlns="http://www.w3.org/2000/svg" width="34.102" height="50" viewBox="0 0 34.102 50">
  <g id="icon_dia_chi" transform="translate(-72.566)">
    <g id="Group_893" data-name="Group 893" transform="translate(72.566)">
      <path id="Path_1015" data-name="Path 1015" d="M89.922,0c-.718,0-1.466.024-2.19.07h-.883a1.67,1.67,0,0,0-.7.154,13.51,13.51,0,0,0-12.369,7.9c-2.063,4.683-1.073,10-.15,13.6,2.123,8.262,6.951,17.139,13.382,24.716l-2.479-.065q-2.033-.054-4.066-.1h-.063a1.725,1.725,0,0,0-1.872,1.656,1.79,1.79,0,0,0,1.908,1.761q2.031.048,4.061.1c3.866.1,7.863.209,11.8.209q1.7,0,3.4-.028a1.783,1.783,0,0,0,1.911-1.748,1.749,1.749,0,0,0-1.931-1.67h0q-1.687.03-3.375.028-1.369,0-2.747-.017A50.982,50.982,0,0,0,106.5,18.676c.439-3.769.248-9.177-3.152-13.534C100.683,1.73,96.167,0,89.922,0Zm12.926,19.773A47.351,47.351,0,0,1,90.3,44.9a67.72,67.72,0,0,1-12.06-20.253c-1.888-4.971-2.534-9.116-1.974-12.675.767-4.869,4.984-8.27,10.256-8.27.1,0,.208,0,.361,0a1.677,1.677,0,0,0,.7-.148h.592a1.663,1.663,0,0,0,.347-.038c.469-.02.941-.031,1.412-.031,5.013,0,8.566,1.319,10.863,4.032C102.986,10.113,103.677,14.234,102.848,19.773Z" transform="translate(-72.566)" fill="#fff"/>
      <path id="Path_1016" data-name="Path 1016" d="M150.752,50.27c-.108,0-.216,0-.287,0-5.156-.207-8.913,3.076-9.25,8.016-.386,5.655,4.722,9.85,9.735,10.219.221.017.444.025.667.025h0c4.946,0,9.651-3.832,10.275-8.369a7.446,7.446,0,0,0-1.784-6.074A12.8,12.8,0,0,0,150.752,50.27Zm7.421,9.572c-.418,3.038-4.035,4.919-7.178,4.919A5.9,5.9,0,0,1,145.17,58.7c0-2.264,1.307-4.683,4.949-4.683.069,0,.138,0,.219,0h.057c.1,0,.2,0,.308,0,2.028,0,4.949.635,6.51,2.425A4.105,4.105,0,0,1,158.173,59.842Z" transform="translate(-133.662 -44.766)" fill="#fff"/>
    </g>
  </g>
</svg>
