<svg xmlns="http://www.w3.org/2000/svg" width="40.754" height="39.078" viewBox="0 0 40.754 39.078">
  <g id="thit_bo_2" transform="matrix(0.799, 0.602, -0.602, 0.799, 14.594, 0)">
    <path id="Path_22147" data-name="Path 22147" d="M5.218,2.609A2.609,2.609,0,1,1,2.609,0,2.609,2.609,0,0,1,5.218,2.609Zm0,0" transform="translate(21.155 6.559)" fill="#fff"/>
    <path id="Path_22149" data-name="Path 22149" d="M32.385,6.662A9.235,9.235,0,0,0,20.94.371a18.338,18.338,0,0,0-3,1.278C15.96,2.635,14.091,3.565,11.795,3A18.527,18.527,0,0,0,6.81,2.387,7.671,7.671,0,0,0,2.233,3.809,6.5,6.5,0,0,0,0,9.243V14A9.3,9.3,0,0,0,1.816,19.5,9.15,9.15,0,0,0,6.66,22.868a34.884,34.884,0,0,0,9.725,1.381,34.774,34.774,0,0,0,7.626-.845.48.48,0,0,0-.211-.936,33.8,33.8,0,0,1-7.416.822,33.937,33.937,0,0,1-9.457-1.343,8.181,8.181,0,0,1-4.341-3.02,9.162,9.162,0,0,1-1.628-5.6,9.2,9.2,0,0,0,5.7,4.778,34.813,34.813,0,0,0,9.717,1.385,35.737,35.737,0,0,0,9.716-1.385,8.459,8.459,0,0,0,5.689-4.75l0,1.137a8.29,8.29,0,0,1-5.953,7.453.474.474,0,0,0-.327.595.48.48,0,0,0,.595.327,9.252,9.252,0,0,0,6.644-8.332c0-.009.015-5.07.015-5.07a9.268,9.268,0,0,0-.368-2.8Zm-1.616,6.563a8.242,8.242,0,0,1-4.943,3.96,33.817,33.817,0,0,1-18.9,0,8.2,8.2,0,0,1-4.341-3.02A8.335,8.335,0,0,1,.96,9.243,5.6,5.6,0,0,1,2.824,4.565,7.107,7.107,0,0,1,7.219,3.342a20.233,20.233,0,0,1,4.345.585c2.884.645,5.2-.619,6.8-1.419a17.4,17.4,0,0,1,2.841-1.216A8.275,8.275,0,0,1,31.463,6.93a8.31,8.31,0,0,1,.332,2.284,7.957,7.957,0,0,1-1.027,4.011Zm0,0" transform="translate(0 0)"/>
    <path id="Path_22150" data-name="Path 22150" d="M20.894,0a12.7,12.7,0,0,0-4.411,1.372,13.09,13.09,0,0,1-5.917,1.795c-.315,0-1.574-.19-2.685-.358-1.311-.2-2.666-.4-3.261-.43A4.467,4.467,0,0,0,1.2,3.434,4.2,4.2,0,0,0,0,6.614a5.96,5.96,0,0,0,2.017,4.178.48.48,0,0,0,.661-.7A5.009,5.009,0,0,1,.959,6.614a3.336,3.336,0,0,1,.9-2.486,3.558,3.558,0,0,1,2.717-.79c.545.025,1.935.235,3.162.42,1.519.229,2.468.369,2.829.369a13.862,13.862,0,0,0,6.345-1.9A11.248,11.248,0,0,1,20.894.959a5.675,5.675,0,0,1,5.42,4.075,5.61,5.61,0,0,1-.474,4.3,7.2,7.2,0,0,1-3.229,2.426,22.428,22.428,0,0,1-8.861,1.519c-4.043,0-7.256-.687-9.549-2.044a.48.48,0,0,0-.489.826c2.443,1.445,5.82,2.177,10.037,2.177a23.362,23.362,0,0,0,9.244-1.6,7.323,7.323,0,0,0,3.687-2.844,6.564,6.564,0,0,0,.555-5.027A6.64,6.64,0,0,0,20.894,0Zm0,0" transform="translate(2.626 2.629)"/>
    <path id="Path_22151" data-name="Path 22151" d="M6.178,3.089A3.089,3.089,0,1,0,3.089,6.178,3.092,3.092,0,0,0,6.178,3.089Zm-5.218,0A2.129,2.129,0,1,1,3.089,5.218,2.132,2.132,0,0,1,.96,3.089Zm0,0" transform="translate(20.676 6.079)"/>
  </g>
</svg>
