<svg id="thit_cuu_2" xmlns="http://www.w3.org/2000/svg" width="40.033" height="31.432" viewBox="0 0 40.033 31.432">
  <path id="Path_23165" data-name="Path 23165" d="M2.129,10.619a5.034,5.034,0,0,1,6.15-5.764A6.611,6.611,0,0,1,9.389,2.81a.782.782,0,0,1,1.221.977A5.031,5.031,0,0,0,9.594,6.009a.782.782,0,0,1-1.09.571,3.467,3.467,0,0,0-4.749,4.13.782.782,0,0,1-.3.855,4.492,4.492,0,0,0,2.229,8.14.783.783,0,0,1,.692.578,3.753,3.753,0,0,0,4.451,2.691.782.782,0,0,1,.69.178,7.1,7.1,0,0,0,8.334.789.782.782,0,0,1,.722-.041,4.993,4.993,0,0,0,2.065.443,5.058,5.058,0,0,0,4.708-3.254.782.782,0,0,1,.7-.5,4.463,4.463,0,0,0,3.662-2.192,7.811,7.811,0,0,1-2.938-2.385,7.967,7.967,0,0,1-1.341-2.7,5.748,5.748,0,0,1-.65.038H25.7a.782.782,0,0,1-.78-.837l.1-1.422a4.848,4.848,0,0,1,4.33-4.465,5.748,5.748,0,0,0-9.522-2.492.782.782,0,0,1-1.183-.107,5.035,5.035,0,0,0-2.9-1.977A.782.782,0,1,1,16.116.521a6.594,6.594,0,0,1,3.263,1.925,7.312,7.312,0,0,1,9.048.106,7.352,7.352,0,0,1,2.363,3.429,6.94,6.94,0,0,1,7.65,2.687c2.339,3.081,2.073,7.233-.592,9.257a5.461,5.461,0,0,1-3.338,1.1,6.366,6.366,0,0,1-1.29-.135,6.035,6.035,0,0,1-4.606,3.215,6.628,6.628,0,0,1-2.8,2.976v3.583l.461.439a1.639,1.639,0,0,1-1.131,2.826H23.109a1.641,1.641,0,0,1-1.639-1.639V25.8a6.523,6.523,0,0,1-1.166-.323,8.663,8.663,0,0,1-7.418.349v2.835l.461.439a1.639,1.639,0,0,1-1.131,2.826H10.178a1.641,1.641,0,0,1-1.639-1.639V24.424A5.328,5.328,0,0,1,5.03,21.2a6.056,6.056,0,0,1-2.9-10.579ZM36.9,16.679c1.978-1.5,2.11-4.671.292-7.065S32.288,6.5,30.309,8a.777.777,0,0,1-.473.159h0a3.276,3.276,0,0,0-3.257,3.036l-.041.585h.242A4.178,4.178,0,0,0,29.9,10.372a.782.782,0,0,1,1.171,1.038,5.738,5.738,0,0,1-2.129,1.505,6.4,6.4,0,0,0,1.072,2.147,6.012,6.012,0,0,0,3.444,2.283,4.116,4.116,0,0,0,3.439-.666ZM23.109,30.367h2.038a.075.075,0,0,0,.052-.129l-.7-.67A.783.783,0,0,1,24.254,29V25.7a6.543,6.543,0,0,1-1.219.191v4.4a.075.075,0,0,0,.075.075Zm-12.932,0h2.039a.075.075,0,0,0,.052-.129l-.7-.67A.782.782,0,0,1,11.322,29V24.98c-.186-.128-.369-.263-.545-.406a5.268,5.268,0,0,1-.674.055v5.663a.075.075,0,0,0,.075.075Zm0,0" transform="translate(0.001 -0.499)"/>
  <path id="Path_23166" data-name="Path 23166" d="M340.438,3.631l-.022.008a.782.782,0,1,1-.5-1.483l.028-.009a.782.782,0,1,1,.493,1.485Zm0,0" transform="translate(-327.477 -1.981)"/>
  <path id="Path_23167" data-name="Path 23167" d="M71.516,127.184a.782.782,0,1,1,.229.553A.788.788,0,0,1,71.516,127.184Zm0,0" transform="translate(-38.638 -116.558)"/>
</svg>
