<svg xmlns="http://www.w3.org/2000/svg" width="40.574" height="40.573" viewBox="0 0 40.574 40.573">
  <g id="thit_ga_1" transform="translate(41.986 41.956)">
    <g id="Group_3292" data-name="Group 3292" transform="translate(-14.658 -14.629)">
      <path id="Path_22132" data-name="Path 22132" d="M339.018,336.057a2.853,2.853,0,0,0-.29.34l-5.243-5.243-2.331,2.331,5.243,5.243a5,5,0,1,0,2.621-2.671Z" transform="translate(-331.154 -331.154)" fill="#f3f0f3"/>
    </g>
    <g id="Group_3293" data-name="Group 3293" transform="translate(-13.325 -14.629)">
      <path id="Path_22133" data-name="Path 22133" d="M360.519,339.086a2.832,2.832,0,0,0-4.672-1.063l0,0a.435.435,0,0,1-.618.006l-5.878-5.878,1-1,5.243,5.243a2.83,2.83,0,0,1,4.929,2.686Z" transform="translate(-349.348 -331.156)" fill="#e2dee2"/>
    </g>
    <g id="Group_3294" data-name="Group 3294" transform="translate(-37.082 -37.053)">
      <path id="Path_22134" data-name="Path 22134" d="M42.635,24.986,33.819,33.8l-.018.018-8.816,8.816s7.113,8.088,16.293,8.976a16.732,16.732,0,0,0,1.834.077,36.741,36.741,0,0,1,3.925.063q.53.049,1.057.124a7.809,7.809,0,0,1,1.936.605l2.45-2.45a7.81,7.81,0,0,1-.605-1.936q-.074-.527-.124-1.057a36.763,36.763,0,0,1-.063-3.925,16.731,16.731,0,0,0-.077-1.834c-.887-9.18-8.976-16.293-8.976-16.293Z" transform="translate(-24.986 -24.986)" fill="#d77f4a"/>
    </g>
    <g id="Group_3295" data-name="Group 3295" transform="translate(-20.335 -37.053)">
      <path id="Path_22135" data-name="Path 22135" d="M264.383,50.034l-.952.952a4.6,4.6,0,0,0-.644-1.179,5.02,5.02,0,0,1-.721-2.261c-.049-.387-.078-.778-.1-1.167-.034-.749-.021-1.5-.016-2.248a20.857,20.857,0,0,0-.354-4.954,21.775,21.775,0,0,0-.991-3.094,27.2,27.2,0,0,0-2.884-5.29c-.18-.261-2.743-3.479-4.089-4.9l.9-.9s8.088,7.113,8.976,16.292a16.818,16.818,0,0,1,.077,1.834,36.715,36.715,0,0,0,.063,3.926c.032.353.074.705.123,1.057a7.81,7.81,0,0,0,.605,1.936Z" transform="translate(-253.636 -24.99)" fill="#c86d36"/>
    </g>
    <g id="Group_3296" data-name="Group 3296" transform="translate(-41.987 -41.956)">
      <ellipse id="Ellipse_37" data-name="Ellipse 37" cx="12.492" cy="6.924" rx="12.492" ry="6.924" transform="translate(0 17.664) rotate(-45)" fill="#e8ad8c"/>
    </g>
    <g id="Group_3297" data-name="Group 3297" transform="translate(-34.141 -38.33)">
      <path id="Path_22136" data-name="Path 22136" d="M75.913,22.552c-3.523,3.523-7.709,5.422-10.78,5.185,2.866-.324,6.353-2.147,9.358-5.152,4.879-4.879,6.641-11.025,3.937-13.729A4.548,4.548,0,0,0,75.48,7.607a5.158,5.158,0,0,1,4.371,1.216c2.7,2.7.941,8.85-3.937,13.729Z" transform="translate(-65.133 -7.554)" fill="#e19974"/>
    </g>
    <g id="Group_3298" data-name="Group 3298" transform="translate(-38.708 -38.677)">
      <ellipse id="Ellipse_38" data-name="Ellipse 38" cx="9.872" cy="4.906" rx="9.872" ry="4.906" transform="translate(0 13.959) rotate(-45)" fill="#9e5528"/>
    </g>
    <g id="Group_3299" data-name="Group 3299" transform="translate(-34.627 -36.017)">
      <path id="Path_22137" data-name="Path 22137" d="M68.34,50.392c-3.493,3.493-7.661,5.112-9.839,3.96,2.3.137,5.607-1.466,8.46-4.32,3.855-3.855,5.428-8.533,3.511-10.449a2.527,2.527,0,0,0-.61-.448,2.98,2.98,0,0,1,1.989.808C73.767,41.859,72.195,46.537,68.34,50.392Z" transform="translate(-58.501 -39.135)" fill="#904d24"/>
    </g>
    <g id="Group_3300" data-name="Group 3300" transform="translate(-28.437 -34.082)">
      <ellipse id="Ellipse_39" data-name="Ellipse 39" cx="2.826" cy="1.471" rx="2.826" ry="1.471" transform="translate(0 4.166) rotate(-47.472)" fill="#ecbba3"/>
    </g>
    <g id="Group_3301" data-name="Group 3301" transform="translate(-27.64 -33.317)">
      <path id="Path_22138" data-name="Path 22138" d="M157.175,79.306c-1.055,1.15-2.4,1.638-2.994,1.088a.976.976,0,0,1-.286-.72,3.9,3.9,0,0,0,2.119-1.3,3.723,3.723,0,0,0,1.112-2.357,1.036,1.036,0,0,1,.875.208C158.6,76.777,158.229,78.155,157.175,79.306Z" transform="translate(-153.894 -76.002)" fill="#e8ad8c"/>
    </g>
    <g id="Group_3302" data-name="Group 3302" transform="translate(-38.912 -38.883)">
      <path id="Path_22139" data-name="Path 22139" d="M36.509,28.768a3.407,3.407,0,0,0-.528-.432.55.55,0,0,0-.607.918,2.3,2.3,0,0,1,1.025,1.9,2.28,2.28,0,0,1-2.388,2.277.55.55,0,0,0-.576.576,2.28,2.28,0,1,1-3.889-1.5c.3-.3.772-.637.34-1.069l-2.175-2.175,1.552-1.552,2.175,2.175a.561.561,0,0,0,.834-.065,2.312,2.312,0,0,1,.234-.275,2.253,2.253,0,0,1,.922-.561.55.55,0,0,0-.332-1.049,3.391,3.391,0,0,0-1.293.76l-1.945-1.945a12.343,12.343,0,0,1-.6-1.889,25.877,25.877,0,0,1-.188-3.9A27.063,27.063,0,0,0,29,18.07,25,25,0,0,0,24.079,6.21a40.865,40.865,0,0,0-4.2-4.778c-1.456-1.456-3.8-1.816-6.59-1.015A19.116,19.116,0,0,0,5.369,5.369,19.116,19.116,0,0,0,.417,13.287c-.8,2.794-.441,5.135,1.015,6.59a40.5,40.5,0,0,0,4.778,4.2,28.073,28.073,0,0,0,7.3,3.9,21.094,21.094,0,0,0,2.335.664,18.14,18.14,0,0,0,3.878.433,37.42,37.42,0,0,1,5.141.183,12.225,12.225,0,0,1,1.86.589L28.7,31.8a3.38,3.38,0,1,0,5.82,2.711,3.38,3.38,0,0,0,1.995-5.747ZM1.475,13.59A18.008,18.008,0,0,1,6.147,6.148,18.007,18.007,0,0,1,13.59,1.475,8.89,8.89,0,0,1,16.021,1.1,4.211,4.211,0,0,1,19.1,2.21c1.16,1.16,1.421,3.116.735,5.509a18.007,18.007,0,0,1-4.672,7.443,18.006,18.006,0,0,1-7.443,4.672c-2.392.686-4.349.425-5.509-.735S.789,15.982,1.475,13.59Zm23.54,14.583q-.542-.076-1.083-.121c-1.031-.087-2.063-.1-3.107-.084a19.586,19.586,0,0,1-5.956-.706A25.594,25.594,0,0,1,6.88,23.205c-.933-.679-1.749-1.349-2.426-1.944a7.122,7.122,0,0,0,.832.048,9.984,9.984,0,0,0,2.737-.417A19.117,19.117,0,0,0,15.94,15.94a19.117,19.117,0,0,0,4.952-7.918,9.168,9.168,0,0,0,.37-3.568c.6.678,1.265,1.493,1.944,2.426a23.9,23.9,0,0,1,4.7,11.3c.22,2.274-.054,4.564.266,6.839a7.323,7.323,0,0,0,.5,1.729l-1.932,1.932a7.313,7.313,0,0,0-1.729-.5Z" transform="translate(0 0)"/>
      <path id="Path_22140" data-name="Path 22140" d="M37.52,47.768a16.62,16.62,0,0,0,6.166-4.052,16.62,16.62,0,0,0,4.052-6.166c.733-2.182.541-3.98-.541-5.062C45.034,30.324,40.1,31.867,35.97,36a20.042,20.042,0,0,0-1.754,2,.55.55,0,0,0,.875.668,18.909,18.909,0,0,1,1.657-1.89c3.573-3.573,8-5.181,9.671-3.511.76.76.861,2.194.276,3.933a15.51,15.51,0,0,1-3.787,5.738,15.51,15.51,0,0,1-5.738,3.787c-1.739.584-3.173.484-3.933-.276-1.033-1.033-.837-3.226.513-5.722a.55.55,0,1,0-.968-.523c-1.615,2.986-1.736,5.612-.323,7.024a3.625,3.625,0,0,0,2.653.979,7.635,7.635,0,0,0,2.408-.438Z" transform="translate(-29.173 -29.203)"/>
      <path id="Path_22141" data-name="Path 22141" d="M147.852,74.192A4.061,4.061,0,0,0,150.6,72.7c1.3-1.419,1.641-3.076.792-3.855a1.787,1.787,0,0,0-1.886-.2,4.978,4.978,0,0,0-1.886,1.327c-1.3,1.419-1.641,3.076-.792,3.855A1.476,1.476,0,0,0,147.852,74.192Zm.578-3.482a3.927,3.927,0,0,1,1.45-1.037c.48-.175.931-.137.868.473a3.4,3.4,0,0,1-.961,1.808c-.925,1.008-1.946,1.3-2.217,1.055S147.505,71.719,148.43,70.71Z" transform="translate(-135.641 -63.457)"/>
    </g>
  </g>
</svg>
