<svg id="thit_ca_hoi_1" xmlns="http://www.w3.org/2000/svg" width="41.406" height="41.406" viewBox="0 0 41.406 41.406">
  <g id="Group_3489" data-name="Group 3489" transform="translate(0.607 0.607)">
    <circle id="Ellipse_49" data-name="Ellipse 49" cx="20.097" cy="20.097" r="20.097" fill="#e6f7fe"/>
    <path id="Path_23130" data-name="Path 23130" d="M42.849,105.656A20.1,20.1,0,1,1,13.556,78.19a20.1,20.1,0,0,0,29.292,27.466Z" transform="translate(-7.5 -72.473)" fill="#d3effd"/>
    <circle id="Ellipse_50" data-name="Ellipse 50" cx="14.614" cy="14.614" r="14.614" transform="translate(5.787 5.787)" fill="#d3effd"/>
    <path id="Path_23131" data-name="Path 23131" d="M103.424,157.929A14.553,14.553,0,1,1,79.307,141.9a14.552,14.552,0,0,0,24.118,16.029Z" transform="translate(-70.46 -131.031)" fill="#b2e5fb"/>
    <path id="Path_23132" data-name="Path 23132" d="M264.353,113.076a1.986,1.986,0,0,1-.881,1.123L261.85,115.2c-.847-1.752-3.628-3.392-3.628-3.392s-1.611-2.835-2.532-3.4a2.8,2.8,0,0,1,3.5-.537l4.077,2.4A2.426,2.426,0,0,1,264.353,113.076Z" transform="translate(-235.618 -99.399)" fill="#f7f9fa"/>
    <path id="Path_23133" data-name="Path 23133" d="M262.882,116.619l-1.032.64a9.919,9.919,0,0,0-3.385-3.23l-2.775-3.565a2.8,2.8,0,0,1,1.089-.744h0a19.936,19.936,0,0,1,2.431,1.875A16.466,16.466,0,0,1,262.882,116.619Z" transform="translate(-235.618 -101.453)" fill="#e9edf1"/>
    <path id="Path_23134" data-name="Path 23134" d="M142.332,128.77a1.617,1.617,0,0,1,.9-.988l2.064-.89a1.382,1.382,0,0,0,.328-.194,1.361,1.361,0,0,0,.058-2.072l-.311-.28a4.689,4.689,0,0,0-4.749-.921.245.245,0,0,1-.252-.048A8.16,8.16,0,0,1,138,119.216c-.757-3.342-2.274-7.482-5.306-10.214a18.486,18.486,0,0,0-4.675-3.084l-9.089.168-.006,9.812a16.841,16.841,0,0,0,3.674,3.832c3.069,2.765,7.411,3.836,10.833,4.23a10.212,10.212,0,0,1,4.909,2.262,4.4,4.4,0,0,0,1.537,4.61l1.789.015Z" transform="translate(-109.909 -97.959)" fill="#61aab8"/>
    <path id="Path_23135" data-name="Path 23135" d="M141.661,233.485l-.032.1a1.962,1.962,0,0,1-.3.545l0,0a1.361,1.361,0,0,1-1.922.1l-.311-.281a4.687,4.687,0,0,1-1.389-4.705.246.246,0,0,0-.076-.252,8.117,8.117,0,0,0-4.281-1.83c-3.422-.395-7.764-1.465-10.833-4.23a18.463,18.463,0,0,1-3.593-4.4c.306-.118.195-.779.492-.916s1.029.233,1.328.069a18.506,18.506,0,0,0,3.472,4.195c3.069,2.765,7.411,3.836,10.833,4.23a8.117,8.117,0,0,1,4.281,1.83.247.247,0,0,1,.076.252,4.687,4.687,0,0,0,1.389,4.705l.311.281A1.35,1.35,0,0,0,141.661,233.485Z" transform="translate(-109.909 -200.595)" fill="#5595a2"/>
    <path id="Path_23136" data-name="Path 23136" d="M114.469,89.159a15.08,15.08,0,0,1-9.095,9.98c-2.511-4.3-.38-10.9.3-11.116C107.713,87.382,111.048,87.593,114.469,89.159Z" transform="translate(-96.364 -81.2)" fill="#f7f9fa"/>
    <path id="Path_23137" data-name="Path 23137" d="M96.451,102.066a14.885,14.885,0,0,1-1.82.848A14.8,14.8,0,0,1,92.5,95.959a4.83,4.83,0,0,1,.873-3.254,3.544,3.544,0,0,1,1.585-.915c-1.278,1.669-1.059,6.034,1.5,10.276Z" transform="translate(-85.62 -84.973)" fill="#e9edf1"/>
    <circle id="Ellipse_51" data-name="Ellipse 51" cx="1.294" cy="1.294" r="1.294" transform="translate(11.199 9.025)" fill="#e9edf1"/>
    <path id="Path_23138" data-name="Path 23138" d="M114.971,305.726c-1.632.057-4.275-1.813-5.71-2.6-4.075-2.242-2.813-10.09-2.685-10.019l.737.405,1.164.64,5.394,4.04,6.21,2.346,1.9,1.046a.243.243,0,0,1,.079.356,9.168,9.168,0,0,1-7.09,3.788Z" transform="translate(-98.303 -270.007)" fill="#ffc736"/>
    <path id="Path_23139" data-name="Path 23139" d="M110.617,304.394a9.112,9.112,0,0,1-3.824.993h0a9.1,9.1,0,0,1-8.737-12.5.243.243,0,0,1,.343-.123l.737.405a9.1,9.1,0,0,0,9.033,11.65h0A9.073,9.073,0,0,0,110.617,304.394Z" transform="translate(-90.125 -269.667)" fill="#faaa0a"/>
    <path id="Path_23140" data-name="Path 23140" d="M134.24,315.2a6.674,6.674,0,0,1-6.419-9.154l5.232,2.879.329.774.846-.127,5.2,2.86a6.718,6.718,0,0,1-5.185,2.768Z" transform="translate(-117.647 -281.898)" fill="#ffe07d"/>
  </g>
  <g id="Group_3490" data-name="Group 3490">
    <path id="Path_23141" data-name="Path 23141" d="M35.342,6.064A20.706,20.706,0,0,0,8.408,4.045a.607.607,0,0,0,.721.975A19.509,19.509,0,1,1,7.015,6.829a.607.607,0,1,0-.852-.863A20.7,20.7,0,1,0,35.343,35.342a20.7,20.7,0,0,0,0-29.279Z"/>
    <path id="Path_23142" data-name="Path 23142" d="M69.813,77.216a15.143,15.143,0,0,0,.168,13.966A9.7,9.7,0,0,0,73.111,97.7a.607.607,0,0,0,.819-.895,8.493,8.493,0,0,1-2.288-9.046l1.081.593a7.278,7.278,0,0,0,12.52,6.862l1.082.593a8.522,8.522,0,0,1-10.156,2.475.607.607,0,1,0-.5,1.106,9.721,9.721,0,0,0,8.41-.213c.368-.018.739-.049,1.1-.093A15.2,15.2,0,0,0,91.364,96.9c.6.754,1.4,1.66,2.456,1.581a1.982,1.982,0,0,0,1.772-1.368l.716-2.229a1.011,1.011,0,0,1,.561-.619c.549-.287,2.384-.883,2.759-1.39a1.967,1.967,0,0,0-.15-2.778l-.312-.28a5.336,5.336,0,0,0-1.452-.932,15.167,15.167,0,0,0-9.29-19.146.607.607,0,0,0-.408,1.143,13.942,13.942,0,0,1,8.535,17.655,5.277,5.277,0,0,0-2.537.175,7.53,7.53,0,0,1-2-3.521.607.607,0,0,0-1.176.3,8.729,8.729,0,0,0,2.63,4.372.607.607,0,0,0,.632.111,4.064,4.064,0,0,1,4.259.748c.582.369.844,1.17.107,1.532l-2.077.9a2.224,2.224,0,0,0-1.234,1.361l-.716,2.229a.76.76,0,0,1-1.226.335L92.9,96.8a4.1,4.1,0,0,1-1.179-4.226.607.607,0,0,0-.183-.634A8.682,8.682,0,0,0,86.8,89.872c-3.123-.355-7.481-1.347-10.5-4.06a18.067,18.067,0,0,1-3.1-3.62,15.443,15.443,0,0,0,8.542-9.464,18.068,18.068,0,0,1,3.9,2.674,14.609,14.609,0,0,1,3.3,4.528l.006.012A22.516,22.516,0,0,1,90.1,82.8a.607.607,0,0,0,1.153-.377,24.319,24.319,0,0,0-.972-2.509c.866-.51,2.065-1.087,2.311-2.164a3.024,3.024,0,0,0-1.366-3.5l-4.081-2.4a3.416,3.416,0,0,0-3.89.311,18.265,18.265,0,0,0-3.567-1.6,14.007,14.007,0,0,1,5.688-.343.607.607,0,1,0,.176-1.2,15.2,15.2,0,0,0-8.024,1c-.13-.023-.261-.046-.392-.065-2.936-.447-5.455.048-6.573,1.294-1.024,1.141-1.3,3.382-.751,5.957Zm4,11.735,4.3,2.358-3.667,2.33a6.1,6.1,0,0,1-.6-1.393A6,6,0,0,1,73.811,88.952Zm1.357,5.667,3.514-2.232.1,4.163a6.088,6.088,0,0,1-3.619-1.93ZM80,96.6l-.108-4.317,4.262,2.336A6.132,6.132,0,0,1,80,96.6Zm-4.51-9.888c3.26,2.927,7.877,3.988,11.177,4.363a7.482,7.482,0,0,1,3.788,1.544,5.323,5.323,0,0,0,.308,3.229,13.7,13.7,0,0,1-4.528,1.833,9.671,9.671,0,0,0,1.492-1.734.607.607,0,0,0-.212-.87l-2.139-1.172h0l-3.157-1.73-10.6-5.808a.61.61,0,0,0-.847.288,9.691,9.691,0,0,0-.612,1.923,13.964,13.964,0,0,1,.162-9.53A18.613,18.613,0,0,0,75.491,86.714ZM86.531,72.9l4.081,2.4a1.814,1.814,0,0,1,.819,2.1c-.138.684-1.178,1.082-1.687,1.424A15.424,15.424,0,0,0,86.459,74.5a19.414,19.414,0,0,0-2.085-1.629,2.2,2.2,0,0,1,2.157.033ZM71.467,72.07c.685-.763,2.647-1.338,5.488-.905a15.641,15.641,0,0,1,3.682,1.049,14.225,14.225,0,0,1-8.059,8.928,15.627,15.627,0,0,1-1.422-3.519C70.421,74.845,70.783,72.832,71.467,72.07Z" transform="translate(-62.674 -63.299)"/>
    <path id="Path_23143" data-name="Path 23143" d="M139.046,115.161a1.9,1.9,0,1,0-.144-2.684A1.9,1.9,0,0,0,139.046,115.161Zm.758-1.873a.687.687,0,1,1,.052.971A.688.688,0,0,1,139.8,113.287Z" transform="translate(-127.225 -102.802)"/>
  </g>
</svg>
