<svg id="thuy_hai_san_2" xmlns="http://www.w3.org/2000/svg" width="35.01" height="33.843" viewBox="0 0 35.01 33.843">
  <ellipse id="Ellipse_52" data-name="Ellipse 52" cx="0.617" cy="0.617" rx="0.617" ry="0.617" transform="translate(17.904 5.556)"/>
  <path id="Path_23181" data-name="Path 23181" d="M16,56.676a.583.583,0,0,0,.583.583H17.75a6.42,6.42,0,0,0,5.488-3.089,4.578,4.578,0,0,0,.617.47,18.92,18.92,0,0,0,10.233,3.2,36.814,36.814,0,0,0,6.533-.595l.017,0c7.745-1.787,10.194-5.938,10.295-6.114a.584.584,0,0,0,0-.579c-.1-.176-2.55-4.327-10.295-6.114l-.017,0a36.073,36.073,0,0,0-4.884-.554,4.073,4.073,0,0,0,.878-1.213l.072.005h6.738A7.467,7.467,0,0,0,49.1,40.433a7.717,7.717,0,0,0,1.9-5.347c0-.016,0-.032,0-.049h0A7.594,7.594,0,0,0,43.424,27.5H30.587a1.752,1.752,0,0,1-1.75-1.75V24.583a.583.583,0,1,0-1.167,0V25.75a2.922,2.922,0,0,0,2.353,2.862,7.568,7.568,0,0,0,.1.792,2.238,2.238,0,0,1-1.208.151,1.241,1.241,0,0,1-.918-.66l-.357-1.007a.583.583,0,1,0-1.1.389l.37,1.044a.587.587,0,0,0,.028.066A2.416,2.416,0,0,0,28.7,30.7a2.975,2.975,0,0,0,.54.048,3.509,3.509,0,0,0,1.173-.211,7.6,7.6,0,0,0,7.175,5.128h5.837a1.2,1.2,0,1,1,.042,2.394h-.013l-6.767.391a2.124,2.124,0,0,0-.456.071,4.1,4.1,0,0,0-3.309-1.69H31.754a.583.583,0,0,0-.583.583,4.086,4.086,0,0,0,1.983,3.5,4.088,4.088,0,0,0-1.969,3.171,20.068,20.068,0,0,0-7.33,2.949,4.576,4.576,0,0,0-.616.471,6.421,6.421,0,0,0-5.488-3.09H16.583a.583.583,0,0,0-.583.583,6.427,6.427,0,0,0,3.746,5.835A6.427,6.427,0,0,0,16,56.676ZM46.446,40.928a2.423,2.423,0,0,1-1.821-2.021,2.352,2.352,0,0,0,1.081-1.417q.28.022.546.022a6.045,6.045,0,0,0,3.48-1.073A5.708,5.708,0,0,1,46.446,40.928ZM42.651,34.5H39.078a5.392,5.392,0,0,0,.815-1.566.584.584,0,0,0-1.107-.369,4.05,4.05,0,0,1-.916,1.558,2.841,2.841,0,0,1-.438.374A6.426,6.426,0,0,1,31.2,28.668H43.424a6.386,6.386,0,0,1,2.319.434A7.869,7.869,0,0,1,42.651,34.5Zm1.606.152a8.675,8.675,0,0,0,2.6-4.987,6.421,6.421,0,0,1,2.976,5.154,4.92,4.92,0,0,1-4.113,1.5A2.373,2.373,0,0,0,44.257,34.655Zm-4.388,4.786,3.626-.209A3.708,3.708,0,0,0,44.8,41.4a8.8,8.8,0,0,1-1.379.1H40.7A2.064,2.064,0,0,1,39.868,39.441Zm-3.122.18,1.918-.111A2.927,2.927,0,0,0,39.15,41.5H36.727a.943.943,0,0,1,.019-1.884Zm6.6,6.848a16.738,16.738,0,0,1,4.542,2.519,10.236,10.236,0,0,1,1.835,1.853,10.221,10.221,0,0,1-1.835,1.853,16.729,16.729,0,0,1-4.542,2.519,11.429,11.429,0,0,1-1.088-4.372A11.481,11.481,0,0,1,43.346,46.469ZM32.4,38h.525a2.929,2.929,0,0,1,2.306,1.131,2.1,2.1,0,0,0-.537,1.147A2.926,2.926,0,0,1,32.4,38ZM34.9,41.527a2.111,2.111,0,0,0,.614.727,2.924,2.924,0,0,1-2.6,1.585H32.4A2.924,2.924,0,0,1,34.9,41.527Zm-10.421,6.5a17.774,17.774,0,0,1,9.606-3.02,36.4,36.4,0,0,1,6.3.571c.659.152,1.276.323,1.853.507a12.4,12.4,0,0,0-1.147,4.757A12.4,12.4,0,0,0,42.237,55.6c-.577.184-1.193.354-1.853.507a36.311,36.311,0,0,1-6.3.571,17.774,17.774,0,0,1-9.606-3.02,3.334,3.334,0,0,1,0-5.631ZM17.2,45.589h.551a5.253,5.253,0,0,1,4.688,2.883,4.474,4.474,0,0,0-.628,1.748A5.261,5.261,0,0,1,17.2,45.589Zm4.611,5.871a4.474,4.474,0,0,0,.629,1.747,5.254,5.254,0,0,1-4.688,2.884H17.2a5.261,5.261,0,0,1,4.611-4.631Z" transform="translate(-16 -24)"/>
  <ellipse id="Ellipse_53" data-name="Ellipse 53" cx="0.617" cy="0.309" rx="0.617" ry="0.309" transform="translate(29.634 25.93)"/>
  <path id="Path_23182" data-name="Path 23182" d="M209.334,337.333a.582.582,0,0,0,.2-.035l4.5-1.634a.583.583,0,0,0,.231-.943,3.842,3.842,0,0,1,0-4.112.583.583,0,0,0-.231-.943l-4.5-1.634a.584.584,0,0,0-.729.305,12.057,12.057,0,0,0,0,8.656A.583.583,0,0,0,209.334,337.333Zm.344-8.007,3.282,1.191-.031.066a5.272,5.272,0,0,0,0,4.163l.031.066L209.679,336a10.816,10.816,0,0,1-.5-2.755h.568a.584.584,0,0,0,0-1.167h-.568a10.822,10.822,0,0,1,.5-2.755Z" transform="translate(-193.996 -305.825)"/>
  <path id="Path_23183" data-name="Path 23183" d="M16.884,150.646l.022.014,2.035,1.251v1.424a1.752,1.752,0,0,0,1.75,1.75,2.549,2.549,0,0,0,.99-.262,2.969,2.969,0,0,1,2.688,0,2.551,2.551,0,0,0,.99.262,1.752,1.752,0,0,0,1.75-1.75v-1.424l2.035-1.251.022-.014a2.094,2.094,0,0,0,.547-2.793A8.286,8.286,0,0,0,23.026,144a8.287,8.287,0,0,0-6.689,3.853A2.094,2.094,0,0,0,16.884,150.646Zm9.059,2.69a.584.584,0,0,1-.583.583,1.815,1.815,0,0,1-.543-.173,4.111,4.111,0,0,0-3.581,0,1.815,1.815,0,0,1-.543.173.584.584,0,0,1-.583-.583v-1.167h5.835Zm-8.617-4.863a7.078,7.078,0,0,1,5.7-3.306,7.078,7.078,0,0,1,5.7,3.306.929.929,0,0,1-.2,1.2L26.362,151H25.72l.745-1.49a.583.583,0,1,0-1.044-.522L24.416,151h-.806v-2.334a.583.583,0,1,0-1.167,0V151h-.806L20.63,148.99a.583.583,0,1,0-1.044.522l.745,1.49H19.69l-2.16-1.327A.93.93,0,0,1,17.326,148.473Z" transform="translate(-16.024 -135.248)"/>
</svg>
