<svg id="icon_giao_hang_1" xmlns="http://www.w3.org/2000/svg" width="93.069" height="66.894" viewBox="0 0 93.069 66.894">
  <g id="Outline_43_">
    <path id="Path_32510" data-name="Path 32510" d="M85,101.843,77.712,90.9H62.106l1.017-6.544H56.464a13.724,13.724,0,0,0-27.312,0H12.27v2.727H29.152a13.724,13.724,0,0,0,27.312,0H59.94l-5.03,32.356H29.442a12.622,12.622,0,0,0-21.256,0H0v8.18H6.255a12.632,12.632,0,0,0,25.117,0H57.334a12.632,12.632,0,0,0,25.117,0H93.069v-17A8.828,8.828,0,0,0,85,101.843Zm-42.2-5.121a11,11,0,1,1,11-11A11.01,11.01,0,0,1,42.808,96.722ZM6.255,124.9H2.727V122.17H6.864A12.527,12.527,0,0,0,6.255,124.9Zm12.559,11.27a9.907,9.907,0,1,1,9.907-9.907,9.918,9.918,0,0,1-9.907,9.907ZM68.14,93.631h8.113l5.453,8.18H66.776ZM57.334,124.9H31.373a12.528,12.528,0,0,0-.609-2.727H57.943A12.527,12.527,0,0,0,57.334,124.9Zm12.559,11.27A9.907,9.907,0,1,1,79.8,126.26,9.918,9.918,0,0,1,69.893,136.167Zm20.45-11.27H82.452a12.527,12.527,0,0,0-.609-2.727h8.5Zm0-5.453H80.521a12.622,12.622,0,0,0-21.256,0h-1.6l4.012-25.812h3.693l-1.818,10.907h20.7a6.1,6.1,0,0,1,5.934,4.726H85.344a4.09,4.09,0,0,0,0,8.18h5Zm0-4.726h-5a1.363,1.363,0,0,1,0-2.727h5Z" transform="translate(0 -72)" fill="#707070"/>
    <path id="Path_32511" data-name="Path 32511" d="M15.5,178h2.727v2.727H15.5Z" transform="translate(-12.682 -158.732)" fill="#707070"/>
    <path id="Path_32512" data-name="Path 32512" d="M45.5,178H57.679v2.727H45.5Z" transform="translate(-37.229 -158.732)" fill="#707070"/>
    <path id="Path_32513" data-name="Path 32513" d="M46.5,214.5h2.727v2.727H46.5Z" transform="translate(-38.047 -188.597)" fill="#707070"/>
    <path id="Path_32514" data-name="Path 32514" d="M76.5,214.5H92.133v2.727H76.5Z" transform="translate(-62.594 -188.597)" fill="#707070"/>
    <path id="Path_32515" data-name="Path 32515" d="M31.5,251H47.133v2.727H31.5Z" transform="translate(-25.774 -218.462)" fill="#707070"/>
    <path id="Path_32516" data-name="Path 32516" d="M1.5,251H4.227v2.727H1.5Z" transform="translate(-1.227 -218.462)" fill="#707070"/>
    <path id="Path_32517" data-name="Path 32517" d="M85.09,348a4.09,4.09,0,1,0,4.09,4.09A4.095,4.095,0,0,0,85.09,348Zm-1.363,4.09a1.363,1.363,0,0,1,2.727,0C86.453,352.842,83.727,353.892,83.727,352.09Z" transform="translate(-66.276 -297.83)" fill="#707070"/>
    <path id="Path_32518" data-name="Path 32518" d="M366.09,348a4.09,4.09,0,1,0,4.09,4.09A4.095,4.095,0,0,0,366.09,348Zm0,5.453a1.363,1.363,0,0,1,0-2.727A1.363,1.363,0,0,1,366.09,353.453Z" transform="translate(-296.197 -297.83)" fill="#707070"/>
    <path id="Path_32519" data-name="Path 32519" d="M231.727,104.5H229v9.907h6.453V111.68h-3.726Z" transform="translate(-187.373 -98.592)" fill="#707070"/>
  </g>
</svg>
