<svg id="icon_giao_hang_2" xmlns="http://www.w3.org/2000/svg" width="93.069" height="54.533" viewBox="0 0 93.069 54.533">
  <g id="Outline_26_">
    <path id="Path_32520" data-name="Path 32520" d="M85,123.482l-7.292-10.938H57.441V106H0v43.263H6.255a12.632,12.632,0,0,0,25.117,0H57.334a12.632,12.632,0,0,0,25.117,0H93.069v-17A8.828,8.828,0,0,0,85,123.482ZM66.53,115.271h9.722l5.453,8.18H66.53ZM6.255,146.536H2.727v-2.727H6.864A12.528,12.528,0,0,0,6.255,146.536Zm12.559,11.27a9.907,9.907,0,1,1,9.907-9.907A9.918,9.918,0,0,1,18.814,157.806ZM8.186,141.083H2.727V108.727H54.715v32.356H29.442A12.622,12.622,0,0,0,8.186,141.083Zm49.148,5.453H31.373a12.528,12.528,0,0,0-.609-2.727H57.943A12.528,12.528,0,0,0,57.334,146.536Zm12.559,11.27A9.907,9.907,0,1,1,79.8,147.9,9.918,9.918,0,0,1,69.893,157.806Zm20.45-11.27H82.452a12.527,12.527,0,0,0-.609-2.727h8.5Zm0-5.453H80.521a12.622,12.622,0,0,0-21.256,0H57.441V115.271H63.8v10.907h20.45a6.1,6.1,0,0,1,5.934,4.726H85.344a4.09,4.09,0,0,0,0,8.18h5Zm0-4.726h-5a1.363,1.363,0,0,1,0-2.727h5Z" transform="translate(0 -106)" fill="#707070"/>
    <path id="Path_32521" data-name="Path 32521" d="M85.09,314a4.09,4.09,0,1,0,4.09,4.09A4.095,4.095,0,0,0,85.09,314Zm-1.363,4.09a1.363,1.363,0,0,1,2.727,0C86.453,318.842,83.727,319.892,83.727,318.09Z" transform="translate(-66.276 -276.191)" fill="#707070"/>
    <path id="Path_32522" data-name="Path 32522" d="M366.09,314a4.09,4.09,0,1,0,4.09,4.09A4.095,4.095,0,0,0,366.09,314Zm-1.363,4.09a1.363,1.363,0,0,1,2.727,0A1.363,1.363,0,0,1,364.727,318.09Z" transform="translate(-296.197 -276.191)" fill="#707070"/>
    <path id="Path_32523" data-name="Path 32523" d="M40.5,183.179h2.727v-4.7h5.181v-2.727H43.227v-3.03h5.181V170H40.5Z" transform="translate(-33.138 -158.366)" fill="#707070"/>
    <path id="Path_32524" data-name="Path 32524" d="M163.5,183.27h7.907v-2.727h-5.181V178h5.181v-2.727h-5.181v-2.545h5.181V170H163.5Z" transform="translate(-133.78 -158.366)" fill="#707070"/>
    <path id="Path_32525" data-name="Path 32525" d="M224.5,183.27h7.907v-2.727h-5.181V178h5.181v-2.727h-5.181v-2.545h5.181V170H224.5Z" transform="translate(-183.691 -158.366)" fill="#707070"/>
    <path id="Path_32526" data-name="Path 32526" d="M103.529,170H98.5v13.179h2.727v-4.7h2.3A1.516,1.516,0,0,1,105.044,180v3.181h2.727c-.182-2.244.558-4.236-1.13-6.059a4.239,4.239,0,0,0-3.112-7.12Zm0,5.756h-2.3v-3.03h2.3A1.515,1.515,0,0,1,103.529,175.756Z" transform="translate(-80.595 -158.366)" fill="#707070"/>
  </g>
</svg>
