<svg id="icon_doi_tra" xmlns="http://www.w3.org/2000/svg" width="65.914" height="60.89" viewBox="0 0 65.914 60.89">
  <g id="refund" transform="translate(0)">
    <path id="Path_32527" data-name="Path 32527" d="M56.929,29.038V15.422L63.52,8.78V31.57h2.2V6.107h-.01a1.11,1.11,0,0,0-.074-.424A1.1,1.1,0,0,0,64.619,5H11.887a1.09,1.09,0,0,0-.777.324L2.323,14.18A1.11,1.11,0,0,0,2,14.964V57.033A1.1,1.1,0,0,0,3.1,58.14H55.83a1.1,1.1,0,0,0,1.1-1.107V43.792A12.733,12.733,0,0,1,46.492,63.676a1.107,1.107,0,0,0,0,2.214h2.2a19.383,19.383,0,0,0,8.239-36.852ZM55.375,13.857H35.412L42,7.214H61.967Zm-23.392.324a1.107,1.107,0,0,0-.322.783v7.75H27.267V15.422l8.145-8.208H38.9ZM12.342,7.214H32.305l-6.591,6.643H5.751ZM4.2,55.926V16.071H25.07v7.75a1.1,1.1,0,0,0,1.1,1.107H32.76a1.1,1.1,0,0,0,1.1-1.107v-7.75H54.732V28.137a18.965,18.965,0,0,0-6.042-1H47.042V21.606a1.11,1.11,0,0,0-.6-.985,1.087,1.087,0,0,0-1.141.084L29.925,31.776a1.111,1.111,0,0,0,0,1.8L45.3,44.648a1.1,1.1,0,0,0,1.737-.9V38.225a12.526,12.526,0,0,1,7.69,3.077V55.926ZM56.981,61.5A14.963,14.963,0,0,0,46.492,36h-.549a1.1,1.1,0,0,0-1.1,1.107V41.6l-12.391-8.92,12.391-8.92v4.491a1.1,1.1,0,0,0,1.1,1.107h2.746A17.182,17.182,0,0,1,56.981,61.5Z" transform="translate(-2 -5)" fill="#707070"/>
    <path id="Path_32528" data-name="Path 32528" d="M6,47H21.427v2.571H6Z" transform="translate(-0.858 -0.785)" fill="#707070"/>
    <path id="Path_32529" data-name="Path 32529" d="M6,43H21.427v2.571H6Z" transform="translate(-0.858 -1.187)" fill="#707070"/>
  </g>
</svg>
