<svg id="icon_yeu_thich" xmlns="http://www.w3.org/2000/svg" width="59" height="55.919" viewBox="0 0 59 55.919">
  <g id="Group_848" data-name="Group 848" transform="translate(0 0)">
    <path id="Path_992" data-name="Path 992" d="M45.7,13.648c-.5,0-1,.022-1.494.067-5.11.462-9.768,3.565-13.162,8.754-3.937-5.807-10.445-9.536-16.7-9.536a15.669,15.669,0,0,0-4.051.529,13.723,13.723,0,0,0-9.068,8.282A16.263,16.263,0,0,0,2.073,35.9c3.321,5.631,9.015,9.068,14.52,12.391a74.834,74.834,0,0,1,8.261,5.494,25.054,25.054,0,0,1,2.491,2.24A34,34,0,0,0,24.3,60.389c-.631,1.328-1.5,4.136-.745,6.236a3.259,3.259,0,0,0,1.722,1.929,3.093,3.093,0,0,0,1.316.3c1.944,0,3.745-1.843,4.915-3.388a7.89,7.89,0,0,0,.95-8.83c2.587-2.341,5.4-4.516,8.126-6.621,4.685-3.621,9.53-7.367,13.385-12.074,1.883-2.3,7.706-10.39,3.591-17.927C55.385,16.027,50.952,13.648,45.7,13.648ZM28.861,62.318a5.345,5.345,0,0,1-1.2,1.632,8.689,8.689,0,0,1,.778-2.791c.076-.168.576-.941.936-1.458A4.326,4.326,0,0,1,28.861,62.318ZM24.179,20.676a18.7,18.7,0,0,1,3.169,3.334c.107.145.271.419.462.736,1.1,1.834,2.283,3.624,3.564,3.624.635,0,1.173-.447,1.6-1.328,2.716-5.624,7.049-8.977,12.2-9.442.3-.028.6-.04.9-.04A9.01,9.01,0,0,1,54.7,23.3c1.6,4.527-.935,9.891-7.766,16.4a117.894,117.894,0,0,1-9.331,7.739c-2.469,1.907-5.019,3.878-7.408,5.977A38.327,38.327,0,0,0,23,47.557c-1.326-.881-2.76-1.742-4.277-2.655-7.461-4.484-15.916-9.566-14.583-19.03A9.924,9.924,0,0,1,14.4,16.966c.4,0,.813.019,1.224.059A16.067,16.067,0,0,1,24.179,20.676Z" transform="translate(-0.001 -12.933)" fill="#707070"/>
  </g>
</svg>
