<svg xmlns="http://www.w3.org/2000/svg" width="50.168" height="39.928" viewBox="0 0 50.168 39.928">
  <g id="icon_lich" transform="translate(-366.607 -1096.578)">
    <g id="calendar-hand-drawn-tool" transform="translate(366.607 1096.578)">
      <g id="Group_3379" data-name="Group 3379" transform="translate(0 0)">
        <path id="Path_23098" data-name="Path 23098" d="M47.985,51.828a1.159,1.159,0,0,0-.872-.978,1.383,1.383,0,0,0-.532-.108H46.11a1.367,1.367,0,0,0-.427.075,1.412,1.412,0,0,0-.251-.031c-1.869,0-3.738-.011-5.607-.016-.039-.623-.067-1.249-.072-1.877a1.42,1.42,0,0,0-2.839,0c0,.624.029,1.247.067,1.869-1.647-.006-3.293-.007-4.939-.014-.052-.694-.091-1.39-.1-2.092a1.421,1.421,0,0,0-2.84,0c.006.7.041,1.389.092,2.08q-2.442-.01-4.883-.02c-.047-.767-.1-1.533-.177-2.3-.184-1.8-3.025-1.821-2.84,0,.077.762.13,1.525.177,2.289-1.675,0-3.349-.016-5.024-.015q-.212-.968-.41-1.941c-.362-1.794-3.1-1.033-2.738.755.08.4.165.8.249,1.194-1.561,0-3.122,0-4.682.013-.117-.5-.246-1-.4-1.489-.549-1.74-3.291-1-2.739.755.079.252.136.508.2.761-1.267.013-2.536.025-3.8.045a1.362,1.362,0,0,0-.855.293A1.289,1.289,0,0,0,0,52.441C.226,62.152.283,74.131,1.183,83.81a1.592,1.592,0,0,0,.075.349A1.458,1.458,0,0,0,2.6,85.467c15.355,1.282,31.375,2.984,46.521-.76a1.273,1.273,0,0,0,1-1.443,1.508,1.508,0,0,0,.038-.4C49.716,73.238,49.786,61.333,47.985,51.828ZM2.864,53.617c1.217-.018,2.435-.018,3.653-.03.14.953.248,1.913.344,2.878.181,1.8,3.023,1.822,2.84,0-.1-.968-.2-1.937-.325-2.9,1.609-.011,3.218-.01,4.826-.013.233.944.479,1.884.755,2.818a1.421,1.421,0,0,0,2.738-.755c-.2-.687-.389-1.378-.567-2.071,1.5,0,3.007.009,4.51.012.036.576.077,1.151.131,1.726.167,1.807,3.009,1.824,2.84,0-.053-.572-.094-1.145-.131-1.718l5.036.018c.1.694.217,1.387.352,2.077.349,1.8,3.086,1.034,2.738-.755-.085-.437-.159-.875-.229-1.313,1.634.006,3.268.007,4.9.012.111.767.236,1.532.4,2.291.381,1.791,3.118,1.031,2.738-.755q-.162-.763-.282-1.529c1.767,0,3.534.012,5.3.014.37,2.12.645,4.248.859,6.382-14.43-.186-28.854.233-43.276.69C2.962,58.337,2.916,55.977,2.864,53.617ZM3.933,82.742c-.489-5.64-.707-13.553-.852-19.207,14.481-.458,28.965-.879,43.455-.685.433,5.682.512,13.657.763,19.359C33.175,85.448,18.248,83.955,3.933,82.742Z" transform="translate(0 -47.06)" fill="#333"/>
        <path id="Path_23099" data-name="Path 23099" d="M239.171,224.573c-2.189,0-2.189,3.6,0,3.6S241.36,224.573,239.171,224.573Z" transform="translate(-211.684 -205.258)" fill="#333"/>
        <path id="Path_23100" data-name="Path 23100" d="M302.869,223.2c-2.189,0-2.189,3.6,0,3.6S305.058,223.2,302.869,223.2Z" transform="translate(-268.451 -204.031)" fill="#333"/>
        <path id="Path_23101" data-name="Path 23101" d="M366.568,220.434c-2.189,0-2.189,3.6,0,3.6S368.757,220.434,366.568,220.434Z" transform="translate(-325.219 -201.57)" fill="#333"/>
        <path id="Path_23102" data-name="Path 23102" d="M239.171,274.238c-2.189,0-2.189,3.6,0,3.6S241.36,274.238,239.171,274.238Z" transform="translate(-211.684 -249.519)" fill="#333"/>
        <path id="Path_23103" data-name="Path 23103" d="M302.869,272.856c-2.189,0-2.189,3.6,0,3.6S305.058,272.856,302.869,272.856Z" transform="translate(-268.451 -248.288)" fill="#333"/>
        <path id="Path_23104" data-name="Path 23104" d="M366.568,270.094c-2.189,0-2.189,3.6,0,3.6S368.757,270.094,366.568,270.094Z" transform="translate(-325.219 -245.826)" fill="#333"/>
        <path id="Path_23105" data-name="Path 23105" d="M57.192,272.316c-2.188-.066-2.285,3.535-.1,3.6S59.38,272.382,57.192,272.316Z" transform="translate(-49.463 -247.805)" fill="#333"/>
        <path id="Path_23106" data-name="Path 23106" d="M120.9,272.854c-2.189-.066-2.285,3.535-.1,3.6S123.092,272.919,120.9,272.854Z" transform="translate(-106.243 -248.285)" fill="#333"/>
        <path id="Path_23107" data-name="Path 23107" d="M184.65,272.012c-2.188-.066-2.284,3.535-.1,3.6S186.838,272.078,184.65,272.012Z" transform="translate(-163.052 -247.535)" fill="#333"/>
        <path id="Path_23108" data-name="Path 23108" d="M57.192,321.979c-2.188-.066-2.285,3.535-.1,3.6S59.38,322.045,57.192,321.979Z" transform="translate(-49.463 -292.065)" fill="#333"/>
        <path id="Path_23109" data-name="Path 23109" d="M120.9,322.517c-2.189-.066-2.285,3.535-.1,3.6S123.092,322.583,120.9,322.517Z" transform="translate(-106.243 -292.544)" fill="#333"/>
        <path id="Path_23110" data-name="Path 23110" d="M184.65,321.68c-2.188-.066-2.284,3.534-.1,3.6S186.838,321.745,184.65,321.68Z" transform="translate(-163.052 -291.798)" fill="#333"/>
      </g>
    </g>
  </g>
</svg>
